<?xml version="1.0" encoding="UTF-8"?>
<svg id="_3D_Printer" data-name="3D Printer" xmlns="http://www.w3.org/2000/svg" viewBox="0 0 128 128">
  <path d="M100.99,97.84H27.01c-.55,0-1-.45-1-1V13.35c0-.55.45-1,1-1h73.98c.55,0,1,.45,1,1v83.49c0,.55-.45,1-1,1ZM28.01,95.84h71.98V14.35H28.01v81.49Z"/>
  <g>
    <path d="M51.6,44.32h-13c-.55,0-1-.45-1-1v-10.55c0-.55.45-1,1-1h13c1.32,0,1.32,2,0,2h-12v8.55h12c1.32,0,1.32,2,0,2Z"/>
    <path d="M89.41,44.32h-9.23c-1.32,0-1.32-2,0-2h8.23v-8.55h-8.23c-1.32,0-1.32-2,0-2h9.23c.55,0,1,.45,1,1v10.55c0,.55-.45,1-1,1Z"/>
    <path d="M89.41,39.05h-9.23c-1.32,0-1.32-2,0-2h9.23c1.32,0,1.32,2,0,2Z"/>
    <path d="M51.6,39.05h-13c-1.32,0-1.32-2,0-2h13c1.32,0,1.32,2,0,2Z"/>
  </g>
  <path d="M76.76,85.48h-21.31c-3.72,0-6.74-3.02-6.74-6.74s3.02-6.74,6.74-6.74h2.07c3.02,0,5.48-2.46,5.48-5.48v-6.56c0-1.32,2-1.32,2,0v6.56c0,4.12-3.36,7.48-7.48,7.48h-2.07c-2.61,0-4.74,2.13-4.74,4.74s2.13,4.74,4.74,4.74h21.31c1.18,0,1.18-1.79,0-1.79h-21.31c-3.93,0-3.91-5.91,0-5.91h2.07c5.11,0,9.26-4.15,9.26-9.26,0-6.49-.34-7.56,1-7.56s1,.99,1,7.56c0,6.21-5.05,11.26-11.26,11.26h-2.07c-1.26,0-1.28,1.91,0,1.91h21.31c3.81,0,3.81,5.79,0,5.79Z"/>
  <path d="M32.22,97.84c-4.96,0-6.21.34-6.21-1V13.35c0-.55.45-1,1-1,4.96,0,6.21-.34,6.21,1v14.87c0,1.32-2,1.32-2,0v-13.87h-3.21v81.49h3.21v-47.96c0-1.32,2-1.32,2,0v48.96c0,.55-.45,1-1,1Z"/>
  <path d="M112.34,97.84h-11.35c-.55,0-1-.45-1-1V14.35H28.01v82.49c0,.55-.45,1-1,1h-11.35c-.55,0-1-.45-1-1,0-86.89-.17-86.45.29-86.92C24.07.81,23.7,1,24.3,1c80.07,0,79.65-.17,80.12.29,9.12,9.12,8.93,8.75,8.93,9.34v86.21c0,.55-.45,1-1,1ZM101.99,95.84h9.35V11.05l-8.05-8.05H24.71l-8.05,8.05v84.79h9.35V13.35c0-.55.45-1,1-1h73.98c.55,0,1,.45,1,1v82.49Z"/>
  <g>
    <g>
      <path d="M36.35,48.88h-9.34c-.55,0-1-.45-1-1v-19.66c0-.55.45-1,1-1h9.34c1.79,0,3.25,1.46,3.25,3.25v15.16c0,1.79-1.46,3.25-3.25,3.25ZM28.01,46.88h8.34c.69,0,1.25-.56,1.25-1.25v-15.16c0-.69-.56-1.25-1.25-1.25h-8.34v17.66Z"/>
      <path d="M33.36,43.53h-6.34c-.55,0-1-.45-1-1v-8.97c0-.55.45-1,1-1h6.34c.55,0,1,.45,1,1v8.97c0,.55-.45,1-1,1ZM28.01,41.53h4.34v-6.97h-4.34v6.97Z"/>
    </g>
    <path d="M101,48.88h-9.34c-1.79,0-3.25-1.46-3.25-3.25v-15.16c0-1.79,1.46-3.25,3.25-3.25h9.34c.55,0,1,.45,1,1v19.66c0,.55-.45,1-1,1ZM91.66,29.22c-.69,0-1.25.56-1.25,1.25v15.16c0,.69.56,1.25,1.25,1.25h8.34v-17.66h-8.34Z"/>
  </g>
  <g>
    <path d="M80.18,47.26h-28.58c-.55,0-1-.45-1-1v-16.42c0-.55.45-1,1-1h28.58c.55,0,1,.45,1,1v16.42c0,.55-.45,1-1,1ZM52.6,45.26h26.58v-14.42h-26.58v14.42Z"/>
    <path d="M76.4,43.47c-21.98,0-22.01.43-22.01-1v-8.85c0-.55.45-1,1-1,21.98,0,22.01-.43,22.01,1v8.85c0,.55-.45,1-1,1ZM56.39,41.47h19.01v-6.85h-19.01v6.85Z"/>
    <path d="M75.81,53.46c-20.83,0-20.65.37-20.83-.85-1-6.57-1.13-6.53-.72-7.01.47-.54,0-.35,22.5-.35.61,0,1.08.55.99,1.15-.92,6.05-.76,7.06-1.93,7.06ZM56.83,51.46h18.12l.64-4.21h-19.41l.64,4.21Z"/>
    <path d="M69.17,60.96c-6.61,0-7.26.27-7.52-.76-2-7.93-2.13-7.82-1.71-8.36s.19-.39,11.12-.39c.65,0,1.13.61.97,1.24-1.93,7.63-1.8,8.25-2.86,8.25ZM63.39,58.96h4.99l1.39-5.5h-7.77l1.39,5.5Z"/>
  </g>
  <path d="M96.02,89.66h-58.77c-.55,0-1-.45-1-1,0-3.85-.35-5.26,1-5.26h58.77c.55,0,1,.45,1,1,0,3.85.35,5.26-1,5.26ZM38.25,87.66h56.77v-2.26h-56.77v2.26Z"/>
  <path d="M46.91,97.84h-5.27c-.55,0-1-.45-1-1v-8.18c0-.55.45-1,1-1h5.27c.55,0,1,.45,1,1v8.18c0,.55-.45,1-1,1ZM42.64,95.84h3.27v-6.18h-3.27v6.18Z"/>
  <path d="M92.04,97.84h-5.27c-.55,0-1-.45-1-1v-8.18c0-.55.45-1,1-1h5.27c.55,0,1,.45,1,1v8.18c0,.55-.45,1-1,1ZM87.77,95.84h3.27v-6.18h-3.27v6.18Z"/>
  <path d="M117.64,120.08H10.36c-1.2,0-2.31-.54-3.05-1.48-1.56-1.98-.99-2.21,2.99-18.62.59-2.43,2.75-4.13,5.25-4.13h96.91c2.5,0,4.66,1.7,5.25,4.13l3.71,15.31c.59,2.44-1.26,4.79-3.77,4.79ZM15.54,97.84c-1.58,0-2.94,1.07-3.31,2.6l-3.71,15.31c-.29,1.18.61,2.32,1.83,2.32,108.73,0,107.88.4,108.76-.72.8-1.02.57-.69-3.36-16.92-.37-1.53-1.73-2.6-3.31-2.6H15.54Z"/>
  <path d="M87.88,112.46h-47.77c-1.35,0-1-1.01-1-7.69,0-.55.45-1,1-1h47.77c1.35,0,1,1.01,1,7.69,0,.55-.45,1-1,1ZM41.12,110.46h45.77v-4.69h-45.77v4.69Z"/>
  <path d="M26.08,112.44c-6.01,0-6.01-8.95,0-8.95s6.01,8.95,0,8.95ZM26.08,105.48c-3.36,0-3.36,4.95,0,4.95s3.36-4.95,0-4.95Z"/>
  <path d="M30.65,127c-13.49,0-13.49.28-13.79-.7-2.27-7.3-2.42-7.25-2-7.81.44-.6,0-.41,17.95-.41.67,0,1.16.65.96,1.3-2.22,7.12-2.1,7.63-3.11,7.63ZM18.55,125h11.36l1.53-4.92h-14.43l1.53,4.92Z"/>
  <path d="M110.19,127c-13.47,0-13.48.29-13.79-.7-2.27-7.3-2.42-7.25-2-7.81.44-.6,0-.41,17.95-.41.67,0,1.16.65.96,1.3-2.22,7.12-2.1,7.63-3.11,7.63ZM98.09,125h11.36l1.53-4.92h-14.43l1.53,4.92Z"/>
</svg>