<?xml version="1.0" encoding="UTF-8"?>
<svg id="Chimney" xmlns="http://www.w3.org/2000/svg" viewBox="0 0 128 128">
  <path d="M14.83,125.33c0-5.17-.57-7.73,1.67-7.73h37.1c1.32,0,1.32,2,0,2H16.82c-.06.78,0,2.54,0,5.33,2.12.27,11.89.07,42.37.07,1.32,0,1.32,2,0,2-44.01,0-44.37.78-44.37-1.67Z"/>
  <g>
    <path d="M9.51,120.57v-15.59c0-1.23,1-2.24,2.23-2.24h12.67c1.32,0,1.32,2,0,2-12.87,0-12.9-.13-12.9.24v15.59c0,1.32-2,1.32-2,0Z"/>
    <path d="M3.51,120.57v-15.59c0-4.54,3.69-8.24,8.23-8.24h13.19c1.32,0,1.32,2,0,2h-13.19c-3.44,0-6.23,2.8-6.23,6.24v15.59c0,1.32-2,1.32-2,0Z"/>
  </g>
  <path d="M53.6,119.6h-30.46c-1.6,0-1.42,3.66,6.61-89.69.11-1.33,2.11-1.14,1.99.17-.49,5.71-6.38,74.25-7.52,87.51h29.37c1.32,0,1.32,2,0,2Z"/>
  <path d="M53.6,107.1c-.51,0-.95-.39-1-.91-.57-6.65-5.69-66.14-6.55-76.1-.11-1.31,1.88-1.5,1.99-.17,7.03,81.71,7.11,77.19,5.55,77.19Z"/>
  <path d="M50.02,65.42h-22.23c-1.51,0-1.01-.87.45-17.84.11-1.31.03-.91,20.34-.91,1.31,0,.94.22,2.44,17.66.05.58-.41,1.09-1,1.09ZM28.88,63.42h20.05l-1.27-14.75h-17.51l-1.27,14.75Z"/>
  <path d="M53.6,107.68h-29.44c-1.52,0-1.04-.52.77-21.61.12-1.34-.03-.91,26.95-.91,1.31,0,.91-.11,2.72,20.85.01.13,0,.26-.04.38.19.65-.29,1.29-.96,1.29ZM25.25,105.68h27.31l-1.6-18.52h-24.11l-1.6,18.52Z"/>
  <g>
    <path d="M71.41,75.24c.05-.56,2.38-27.73,2.9-33.74.11-1.32,2.1-1.15,1.99.17-.51,6.01-2.85,33.17-2.9,33.74-.11,1.32-2.1,1.15-1.99-.17Z"/>
    <path d="M91.64,75.4c-.6-7.1-2.04-23.78-2.9-33.74-.11-1.32,1.88-1.49,1.99-.17.19,2.26,2.3,26.64,2.9,33.74.11,1.32-1.88,1.49-1.99.17Z"/>
    <path d="M92.05,69.43h-19.05c-1.47,0-.91-2.04-.74-4.12,1.04-12.03.76-12.58,2-12.58,17.13,0,17.39-.39,17.51.91,1.29,14.86,1.78,15.79.27,15.79ZM74.09,67.43h16.87c-.36-4.21-.89-10.33-1.1-12.7h-14.68c-.31,3.54-.73,8.47-1.1,12.7Z"/>
  </g>
  <g>
    <path d="M122.49,120.57v-27.8c0-3.44-2.79-6.23-6.23-6.23h-4.81c-1.32,0-1.32-2,0-2h4.81c4.54,0,8.23,3.69,8.23,8.23v27.8c0,1.32-2,1.32-2,0Z"/>
    <path d="M116.49,120.57v-27.8c0-.34-.05-.23-5.04-.23-1.32,0-1.32-2,0-2h4.81c1.23,0,2.23,1,2.23,2.23v27.8c0,1.32-2,1.32-2,0Z"/>
  </g>
  <path d="M111.46,127h-57.86c-.55,0-1-.45-1-1v-49.07c0-1.44,1.17-2.61,2.61-2.61h54.64c1.44,0,2.61,1.17,2.61,2.61v49.07c0,.55-.45,1-1,1ZM54.6,125h55.86v-48.07c0-.95-.02-.61-55.25-.61-1.05,0-.61.02-.61,48.68Z"/>
  <path d="M91.69,127h-18.32c-.55,0-1-.45-1-1v-42.05c0-.55.45-1,1-1h18.32c.55,0,1,.45,1,1v42.05c0,.55-.45,1-1,1ZM74.37,125h16.32v-40.05h-16.32v40.05Z"/>
  <path d="M13.18,127H2.11c-.55,0-1-.45-1-1v-5.43c0-.55.45-1,1-1h11.07c.55,0,1,.45,1,1v5.43c0,.55-.45,1-1,1ZM3.11,125h9.07v-3.43H3.11v3.43Z"/>
  <path d="M125.89,127h-11.07c-.55,0-1-.45-1-1v-5.43c0-.55.45-1,1-1h11.07c.55,0,1,.45,1,1v5.43c0,.55-.45,1-1,1ZM115.82,125h9.07v-3.43h-9.07v3.43Z"/>
  <path d="M38.14,21.48c-4.01,0-5.31-4.63-2.86-7.01-.64-2.42.61-4.9,2.89-5.86.4-1.45,1.53-2.6,2.97-3.04,1.56-4.93,8.02-6.17,11.3-2.24,2.52-1.19,5.44-.94,7.73.66,2.47-2.39,6.65-1.6,8.03,1.62.96.22,1.86.62,2.66,1.18,3.05-2.99,8.46-.89,8.46,3.61,0,2.86-2.45,5.24-5.41,4.97-1.83,6.61-10.89,7.64-14.23,1.75-1.83,1.08-4.05,1.37-6.11.77-2.99,2.99-7.89,2.33-10.11-1-.36.33-.77.61-1.22.83-.1,2.34-1.97,3.77-4.1,3.77ZM47.43,3.01c-2.04,0-4.01,1.32-4.5,3.62-.09.41-.43.72-.84.78-1.08.15-1.92,1-2.05,2.08-.15,1.23-1.73.54-2.63,2.45-.94,1.99.84,2.91-.39,3.71-1.35.88-1.24,2.91.04,3.58,1.34.71,3.44.03,3.18-2.07-.17-1.4,1.56-.71,2.53-2.59.4-.76,1.54-.71,1.83.13,1.17,3.4,5.63,4.19,7.9,1.4.27-.34.73-.46,1.14-.3,1.97.77,4.19.4,5.81-.95.52-.43,1.33-.24,1.58.41,2.12,5.55,10.26,4.67,11.14-1.21.09-.6.7-.99,1.29-.81,2.05.64,3.88-.93,3.88-2.84,0-2.95-3.85-4.12-5.49-1.66-.34.51-1.05.6-1.5.18-2.06-1.88-3.49-.95-3.84-2.15-.72-2.47-3.94-2.94-5.35-.83-.34.5-1.05.6-1.51.18-1.94-1.77-4.73-2.02-6.95-.64-1.64,1.02-1.45-2.47-5.25-2.47Z"/>
  <path d="M81.83,32.92c-4.01,0-5.31-4.62-2.86-7.01-.64-2.4.59-4.9,2.89-5.86.4-1.45,1.53-2.6,2.97-3.04,1.56-4.93,8.01-6.17,11.3-2.24,2.52-1.19,5.44-.94,7.72.66,2.47-2.39,6.65-1.6,8.03,1.62.96.22,1.86.62,2.66,1.18,3.05-2.98,8.46-.9,8.46,3.61,0,2.87-2.44,5.23-5.41,4.97-1.84,6.61-10.9,7.64-14.23,1.75-1.84,1.08-4.05,1.37-6.11.77-3,2.98-7.9,2.33-10.11-1-.36.33-.77.61-1.22.83-.11,2.34-1.97,3.77-4.1,3.77ZM91.11,14.45c-2.03,0-4.01,1.32-4.5,3.62-.09.41-.43.72-.84.78-1.08.15-1.92,1-2.05,2.08-.15,1.23-1.73.54-2.63,2.45-.94,1.99.84,2.9-.39,3.71-1.35.88-1.24,2.91.04,3.58,1.34.7,3.44.03,3.18-2.07-.17-1.4,1.56-.71,2.53-2.59.41-.79,1.55-.69,1.83.13,1.17,3.4,5.63,4.19,7.9,1.4.28-.34.73-.46,1.14-.3,1.96.76,4.19.4,5.81-.95.53-.44,1.33-.23,1.58.41,2.12,5.55,10.26,4.67,11.13-1.21.09-.6.69-.99,1.29-.81,2.06.64,3.89-.94,3.89-2.84,0-2.96-3.85-4.12-5.49-1.66-.34.5-1.05.6-1.5.18-2.05-1.87-3.49-.97-3.84-2.15-.72-2.47-3.95-2.93-5.35-.83-.32.49-1.03.61-1.5.18-1.94-1.77-4.73-2.02-6.95-.64-1.64,1.02-1.45-2.47-5.25-2.47Z"/>
  <path d="M48.33,31h-18.86c-.55,0-1-.45-1-1,0-5.68-.35-6.86,1-6.86h18.86c.55,0,1,.45,1,1,0,5.68.35,6.86-1,6.86ZM30.47,29h16.86v-3.86h-16.86v3.86Z"/>
  <path d="M91.3,42.58h-17.55c-.55,0-1-.45-1-1,0-5.68-.35-6.86,1-6.86h17.55c.55,0,1,.45,1,1,0,5.68.35,6.86-1,6.86ZM74.75,40.58h15.55v-3.86h-15.55v3.86Z"/>
</svg>