<?xml version="1.0" encoding="UTF-8"?>
<svg id="Conveyor" xmlns="http://www.w3.org/2000/svg" viewBox="0 0 128 128">
  <g>
    <path d="M18.6,110.79c-3.6,0-5.02.35-5.02-1v-36.33c0-1.32,2-1.32,2,0v35.33h2.02v-35.33c0-1.32,2-1.32,2,0v36.33c0,.55-.45,1-1,1Z"/>
    <path d="M21.55,115.64h-9.93c-.55,0-1-.45-1-1,0-4.55-.33-5.86,1-5.86h9.93c.55,0,1,.45,1,1,0,4.55.33,5.86-1,5.86ZM12.62,113.64h7.93v-2.86h-7.93v2.86Z"/>
  </g>
  <g>
    <path d="M113.42,110.79c-3.6,0-5.02.35-5.02-1v-40.08c0-.55.45-1,1-1,3.6,0,5.02-.35,5.02,1v40.08c0,.55-.45,1-1,1ZM110.4,108.79h2.02v-38.08h-2.02v38.08Z"/>
    <path d="M116.38,115.64h-9.93c-.55,0-1-.45-1-1,0-4.55-.33-5.86,1-5.86h9.93c.55,0,1,.45,1,1,0,4.55.33,5.86-1,5.86ZM107.45,113.64h7.93v-2.86h-7.93v2.86Z"/>
  </g>
  <path d="M109.4,99.86H18.6c-.55,0-1-.45-1-1v-16.93c0-.55.45-1,1-1h90.8c.55,0,1,.45,1,1v16.93c0,.55-.45,1-1,1ZM19.6,97.86h88.8v-14.93H19.6v14.93Z"/>
  <g>
    <path d="M115.71,70.71h-61.19c-1.32,0-1.32-2,0-2h61.19c5.12,0,9.29-4.16,9.29-9.28s-4.17-9.29-9.29-9.29h-61.19c-1.32,0-1.32-2,0-2h61.19c6.23,0,11.29,5.06,11.29,11.29s-5.06,11.28-11.29,11.28Z"/>
    <path d="M115.71,66.71h-61.19c-1.32,0-1.32-2,0-2h61.19c2.92,0,5.29-2.37,5.29-5.28s-2.37-5.29-5.29-5.29h-61.19c-1.32,0-1.32-2,0-2h61.19c4.02,0,7.29,3.27,7.29,7.29s-3.27,7.28-7.29,7.28Z"/>
    <g>
      <path d="M54.52,64.45c-1.32,0-1.32-2,0-2,3.99,0,3.99-6.04,0-6.04-1.32,0-1.32-2,0-2,2.77,0,5.02,2.25,5.02,5.02s-2.25,5.02-5.02,5.02Z"/>
      <path d="M73.48,64.45c-2.77,0-5.02-2.25-5.02-5.02s2.25-5.02,5.02-5.02,5.02,2.25,5.02,5.02-2.25,5.02-5.02,5.02ZM73.48,56.41c-3.99,0-3.99,6.04,0,6.04s3.99-6.04,0-6.04Z"/>
      <path d="M92.45,64.45c-2.77,0-5.02-2.25-5.02-5.02s2.25-5.02,5.02-5.02,5.02,2.25,5.02,5.02-2.25,5.02-5.02,5.02ZM92.45,56.41c-3.99,0-3.99,6.04,0,6.04s3.99-6.04,0-6.04Z"/>
      <path d="M111.41,64.45c-2.77,0-5.02-2.25-5.02-5.02s2.25-5.02,5.02-5.02,5.02,2.25,5.02,5.02-2.25,5.02-5.02,5.02ZM111.41,56.41c-3.99,0-3.99,6.04,0,6.04s3.99-6.04,0-6.04Z"/>
    </g>
  </g>
  <path d="M54.52,74.46H2c-.55,0-1-.45-1-1V13.36c0-.55.45-1,1-1h52.52c.55,0,1,.45,1,1v60.11c0,.55-.45,1-1,1ZM3,72.46h50.52V14.36H3v58.11Z"/>
  <path d="M48.52,29.79H8c-.55,0-1-.45-1-1v-9.43c0-.55.45-1,1-1h40.52c.55,0,1,.45,1,1v9.43c0,.55-.45,1-1,1ZM9,27.79h38.52v-7.43H9v7.43Z"/>
  <path d="M12.57,47.46c-3.12,0-5.66-2.54-5.66-5.66s2.54-5.66,5.66-5.66,5.66,2.54,5.66,5.66-2.54,5.66-5.66,5.66ZM12.57,38.14c-2.02,0-3.66,1.64-3.66,3.66s1.64,3.66,3.66,3.66,3.66-1.64,3.66-3.66-1.64-3.66-3.66-3.66Z"/>
  <g>
    <path d="M30.69,44.99h-7.32c-4.11,0-4.11-6.21,0-6.21h7.32c4.11,0,4.11,6.21,0,6.21ZM23.37,40.78c-1.46,0-1.46,2.21,0,2.21,7.84,0,7.75.12,8.14-.32.51-.58.35-1.89-.82-1.89h-7.32Z"/>
    <path d="M45.82,44.99h-7.32c-4.11,0-4.11-6.21,0-6.21h7.32c4.11,0,4.11,6.21,0,6.21ZM38.5,40.78c-1.46,0-1.46,2.21,0,2.21,7.84,0,7.75.12,8.14-.32.51-.58.35-1.89-.82-1.89h-7.32Z"/>
  </g>
  <g>
    <path d="M7.29,66.71c-1.33,0-1-1.19-1-6.11,0-1.32,2-1.32,2,0v5.11c0,.55-.45,1-1,1Z"/>
    <path d="M11.95,66.71c-1.33,0-1-1.19-1-6.11,0-1.32,2-1.32,2,0v5.11c0,.55-.45,1-1,1Z"/>
    <path d="M16.61,66.71c-1.33,0-1-1.19-1-6.11,0-1.32,2-1.32,2,0v5.11c0,.55-.45,1-1,1Z"/>
    <path d="M21.27,66.71c-1.33,0-1-1.19-1-6.11,0-1.32,2-1.32,2,0v5.11c0,.55-.45,1-1,1Z"/>
    <path d="M25.93,66.71c-1.33,0-1-1.19-1-6.11,0-1.32,2-1.32,2,0v5.11c0,.55-.45,1-1,1Z"/>
    <path d="M30.59,66.71c-1.33,0-1-1.19-1-6.11,0-1.32,2-1.32,2,0v5.11c0,.55-.45,1-1,1Z"/>
    <path d="M35.25,66.71c-1.33,0-1-1.19-1-6.11,0-1.32,2-1.32,2,0v5.11c0,.55-.45,1-1,1Z"/>
    <path d="M39.91,66.71c-1.33,0-1-1.19-1-6.11,0-1.32,2-1.32,2,0v5.11c0,.55-.45,1-1,1Z"/>
    <path d="M44.57,66.71c-1.33,0-1-1.19-1-6.11,0-1.32,2-1.32,2,0v5.11c0,.55-.45,1-1,1Z"/>
    <path d="M49.23,66.71c-1.33,0-1-1.19-1-6.11,0-1.32,2-1.32,2,0v5.11c0,.55-.45,1-1,1Z"/>
  </g>
</svg>