<?xml version="1.0" encoding="UTF-8"?>
<svg id="Crusher_Machine" data-name="Crusher Machine" xmlns="http://www.w3.org/2000/svg" viewBox="0 0 128 128">
  <g>
    <g>
      <path d="M120.11,114.79c-6.75,0-7.76.34-7.76-1s.99-1,7.76-1c1.32,0,1.32,2,0,2Z"/>
      <path d="M119.11,107.67v-17.59c0-3.94-3.21-7.15-7.15-7.15h-7.85c-1.32,0-1.32-2,0-2h7.85c5.05,0,9.15,4.1,9.15,9.15v17.59c0,1.32-2,1.32-2,0Z"/>
      <path d="M112.35,107.67v-17.59c0-.56-.09-.39-8.24-.39-1.32,0-1.32-2,0-2h7.85c1.32,0,2.39,1.07,2.39,2.39v17.59c0,1.32-2,1.32-2,0Z"/>
    </g>
    <path d="M122.82,114.79h-12.49c-.55,0-1-.45-1-1v-6.12c0-.55.45-1,1-1h12.49c.55,0,1,.45,1,1v6.12c0,.55-.45,1-1,1ZM111.34,112.79h10.49v-4.12h-10.49v4.12Z"/>
    <path d="M104.11,114.84H17.54c-.55,0-1-.45-1-1v-51.86c0-.55.45-1,1-1h86.57c.55,0,1,.45,1,1v51.86c0,.55-.45,1-1,1ZM18.54,112.84h84.57v-49.86H18.54v49.86Z"/>
    <path d="M17.54,97.12H5.18c-.55,0-1-.45-1-1,0-10.94-.21-10.82.51-11.23,13.04-7.39,12.64-7.41,13.35-6.99.72.42.5,0,.5,18.22,0,.55-.45,1-1,1ZM6.18,95.12h10.36v-14.64l-10.36,5.87v8.77Z"/>
  </g>
  <path d="M126,119.8H2c-.55,0-1-.45-1-1,0-4.68-.34-5.96,1-5.96h124c.55,0,1,.45,1,1,0,4.68.34,5.96-1,5.96ZM3,117.8h122v-2.96H3v2.96Z"/>
  <g>
    <path d="M64.25,97.12H31.46c-.55,0-1-.45-1-1v-24.25c0-.55.45-1,1-1h32.79c.55,0,1,.45,1,1v24.25c0,.55-.45,1-1,1ZM32.46,95.12h30.79v-22.25h-30.79v22.25Z"/>
    <path d="M92.86,79.77h-12.54c-.55,0-1-.45-1-1v-6.89c0-.55.45-1,1-1h12.54c.55,0,1,.45,1,1v6.89c0,.55-.45,1-1,1ZM81.32,77.77h10.54v-4.89h-10.54v4.89Z"/>
    <path d="M92.86,97.12h-12.54c-.55,0-1-.45-1-1v-6.89c0-.55.45-1,1-1h12.54c.55,0,1,.45,1,1v6.89c0,.55-.45,1-1,1ZM81.32,95.12h10.54v-4.89h-10.54v4.89Z"/>
  </g>
  <path d="M104.11,114.79H17.54c-.55,0-1-.45-1-1v-8.49c0-.55.45-1,1-1h86.57c.55,0,1,.45,1,1v8.49c0,.55-.45,1-1,1ZM18.54,112.79h84.57v-6.49H18.54v6.49Z"/>
  <path d="M104.11,110.55H17.54c-1.32,0-1.32-2,0-2h86.57c1.32,0,1.32,2,0,2Z"/>
  <path d="M78.5,62.98h-35.36c-.55,0-1-.45-1-1v-7.46c0-.55.45-1,1-1h35.36c.55,0,1,.45,1,1v7.46c0,.55-.45,1-1,1ZM44.14,60.98h33.36v-5.46h-33.36v5.46Z"/>
  <path d="M78.5,55.52h-35.36c-.37,0-.71-.21-.89-.54C18.29,8.9,18.26,9.42,18.72,8.68c.46-.76,0-.48,83.35-.48.75,0,1.23.8.89,1.46-23.97,46.09-23.51,45.86-24.46,45.86ZM43.75,53.52h34.14l22.53-43.32H21.22l22.53,43.32Z"/>
  <path d="M104.11,15.34H17.54c-.55,0-1-.45-1-1,0-4.87-.34-6.14,1-6.14h86.57c.55,0,1,.45,1,1,0,4.87.34,6.14-1,6.14ZM18.54,13.34h84.57v-3.14H18.54v3.14Z"/>
</svg>