<?xml version="1.0" encoding="UTF-8"?>
<svg id="Drill_Machine" data-name="Drill Machine" xmlns="http://www.w3.org/2000/svg" viewBox="0 0 128 128">
  <g>
    <path d="M32.14,93.86v-60.48h-12.81v60.48c0,1.32-2,1.32-2,0v-61.48c0-.55.45-1,1-1h14.81c.55,0,1,.45,1,1v61.48c0,1.32-2,1.32-2,0Z"/>
    <path d="M33.14,108.57h-14.81c-.55,0-1-.45-1-1,0-6.95-.35-7.94,1-7.94s1,1.1,1,6.94h12.81v-5.94c0-1.32,2-1.32,2,0,0,6.95.35,7.94-1,7.94Z"/>
    <path d="M20.21,101.63h-7.38c-1.34,0-1-1-1-7.77,0-.55.45-1,1-1h7.38c1.32,0,1.32,2,0,2h-6.38v4.77h6.38c1.32,0,1.32,2,0,2Z"/>
    <path d="M31.26,101.63c-1.32,0-1.32-2,0-2h78.6l4.64-4.77H31.26c-1.32,0-1.32-2,0-2,86.53,0,86.13-.35,86.53.61.35.83.35.51-6.8,7.86-.46.48-.04.3-79.74.3Z"/>
    <path d="M25.74,104.73c-4.13,0-7.49-3.36-7.49-7.49s3.36-7.49,7.49-7.49,7.49,3.36,7.49,7.49-3.36,7.49-7.49,7.49ZM25.74,91.75c-3.03,0-5.49,2.46-5.49,5.49s2.46,5.49,5.49,5.49,5.49-2.46,5.49-5.49-2.46-5.49-5.49-5.49Z"/>
    <path d="M112.46,127.45H15.54c-2.98,0-5.41-2.42-5.41-5.41v-14.48c0-.55.45-1,1-1h105.73c.55,0,1,.45,1,1v14.48c0,2.98-2.42,5.41-5.41,5.41ZM12.13,108.57v13.48c0,1.88,1.53,3.41,3.41,3.41h96.92c1.88,0,3.41-1.53,3.41-3.41v-13.48H12.13Z"/>
    <path d="M87.73,84.22c-3.57-5.73-3.45-5.43-3.45-5.83v-10.9c0-1.32,2-1.32,2,0v10.61l2.3,3.7,2.31-3.7v-10.61c0-1.32,2-1.32,2,0v10.9c0,.4.11.1-3.46,5.83-.39.63-1.3.63-1.7,0Z"/>
    <path d="M90.89,55.44v-14.72h-4.61v14.72c0,1.32-2,1.32-2,0v-15.72c0-.55.45-1,1-1h6.61c.55,0,1,.45,1,1v15.72c0,1.32-2,1.32-2,0Z"/>
    <g>
      <path d="M91.88,45.91c-.36,0-.06.1-7.08-3.63-1.17-.62-.23-2.38.94-1.77l6.61,3.52c.92.49.57,1.88-.47,1.88Z"/>
      <path d="M91.88,51.55c-.36,0-.06.1-7.08-3.63-1.17-.62-.23-2.38.94-1.77l6.61,3.52c.92.49.57,1.88-.47,1.88Z"/>
      <path d="M90.23,56.31c-.37,0-.13.07-5.42-2.75-1.17-.62-.23-2.39.94-1.77,4.79,2.55,5.99,2.8,5.36,3.98-.18.34-.53.53-.88.53Z"/>
      <path d="M91.88,74.12c-.36,0-.06.1-7.08-3.63-1.17-.62-.23-2.38.94-1.77l6.61,3.52c.92.49.57,1.88-.47,1.88Z"/>
      <path d="M91.76,79.7c-.36,0-.1.08-6.95-3.57-1.17-.62-.22-2.39.94-1.77l6.48,3.45c.92.49.57,1.88-.47,1.88Z"/>
    </g>
    <path d="M91.18,68.62h-5.2c-1.67,0-3.02-1.36-3.02-3.02v-8.27c0-1.67,1.35-3.02,3.02-3.02h5.2c1.67,0,3.02,1.36,3.02,3.02v8.27c0,1.67-1.35,3.02-3.02,3.02ZM85.98,56.31c-.56,0-1.02.46-1.02,1.02v8.27c0,.56.46,1.02,1.02,1.02h5.2c.56,0,1.02-.46,1.02-1.02v-8.27c0-.56-.46-1.02-1.02-1.02h-5.2Z"/>
    <path d="M71.02,6.79h-31.35c-1.32,0-1.32-2,0-2h31.35c1.32,0,1.32,2,0,2Z"/>
    <path d="M116.87,33.38h-58.56c-1.32,0-1.32-2,0-2h57.56c0-24.59.4-24.59-.82-24.59h-33.47c-1.32,0-1.32-2,0-2h33.47c1.56,0,2.82,1.26,2.82,2.81v24.78c0,.55-.45,1-1,1Z"/>
    <path d="M52.63,33.38H12.83c-.55,0-1-.45-1-1V7.6c0-1.55,1.26-2.81,2.81-2.81h14.66c1.32,0,1.32,2,0,2h-14.66c-1.21,0-.81-.02-.81,24.59h38.8c1.32,0,1.32,2,0,2Z"/>
    <path d="M99.32,40.72h-21.49c-1.95,0-3.53-1.58-3.53-3.53,0-4.5-.33-5.81,1-5.81h26.54c.55,0,1,.45,1,1v4.81c0,1.95-1.58,3.53-3.53,3.53ZM76.31,33.38v3.81c0,.84.69,1.53,1.53,1.53h21.49c.84,0,1.53-.69,1.53-1.53v-3.81h-24.54Z"/>
    <path d="M116.87,25.45h-7.78c-.55,0-1-.45-1-1v-11c0-.55.45-1,1-1h7.78c.55,0,1,.45,1,1v11c0,.55-.45,1-1,1ZM110.08,23.45h5.78v-9h-5.78v9Z"/>
    <path d="M21.09,25.45h-7.78c-.55,0-1-.45-1-1v-11c0-.55.45-1,1-1h7.78c.55,0,1,.45,1,1v11c0,.55-.45,1-1,1ZM14.31,23.45h5.78v-9h-5.78v9Z"/>
    <g>
      <path d="M57.31,38.7v-13.13c0-1.32,2-1.32,2,0v13.13c0,1.32-2,1.32-2,0Z"/>
      <path d="M51.63,38.71v-13.14c0-1.32,2-1.32,2,0v13.14c0,1.32-2,1.32-2,0Z"/>
      <path d="M55.47,50.06c-3.62,0-6.57-2.95-6.57-6.57s2.95-6.57,6.57-6.57,6.57,2.95,6.57,6.57-2.95,6.57-6.57,6.57ZM55.47,38.92c-2.52,0-4.57,2.05-4.57,4.57s2.05,4.57,4.57,4.57,4.57-2.05,4.57-4.57-2.05-4.57-4.57-4.57Z"/>
    </g>
    <g>
      <path d="M59.12,15.31c-1.08,0-1.39-1.47-.43-1.91l11.53-6.73c1.14-.66,2.15,1.06,1.01,1.73-12.05,7.03-11.69,6.92-12.11,6.92Z"/>
      <path d="M61.97,20.22c-1.02,0-1.38-1.35-.51-1.86,12.06-7.04,11.7-6.93,12.12-6.93,1.08,0,1.4,1.46.42,1.91-11.97,6.99-11.62,6.88-12.04,6.88Z"/>
      <path d="M76.31,14.14c-6.72,0-9.08-8.89-3.32-12.25h0c1.52-.88,3.29-1.12,4.98-.68,7.38,1.94,5.97,12.92-1.66,12.92ZM74,3.62c-2.18,1.27-2.92,4.07-1.65,6.25,1.27,2.18,4.07,2.92,6.25,1.65,3.53-2.06,2.76-7.34-1.14-8.37-1.18-.31-2.41-.14-3.47.47h0Z"/>
    </g>
    <g>
      <path d="M48.98,20.3c-.41,0-.06.11-12.18-6.74-.93-.48-.59-1.89.45-1.89.42,0,.07-.12,12.22,6.76.89.5.53,1.87-.49,1.87Z"/>
      <path d="M51.76,15.36c-.41,0-.08.1-12.19-6.76-1.15-.65-.17-2.39.99-1.74l11.7,6.63c.89.5.53,1.87-.49,1.87Z"/>
      <path d="M31.25,13.56h0c-5.07-2.87-4.13-10.49,1.48-12.05,3.52-.97,7.12,1.1,8.09,4.58,1.57,5.67-4.53,10.32-9.57,7.47ZM32.23,11.82c3.56,2.01,7.73-1.32,6.66-5.2-.67-2.43-3.19-3.86-5.62-3.18-3.91,1.08-4.55,6.39-1.03,8.38h0Z"/>
    </g>
    <path d="M55.47,27.23c-4.14,0-7.52-3.37-7.52-7.51s3.37-7.52,7.52-7.52,7.52,3.37,7.52,7.52-3.37,7.51-7.52,7.51ZM55.47,14.2c-3.04,0-5.52,2.47-5.52,5.52s2.47,5.51,5.52,5.51,5.52-2.47,5.52-5.51-2.47-5.52-5.52-5.52Z"/>
  </g>
  <path d="M101.93,122.93H27.4c-.55,0-1-.45-1-1v-9.07c0-.55.45-1,1-1h74.53c.55,0,1,.45,1,1v9.07c0,.55-.45,1-1,1ZM28.4,120.93h72.53v-7.07H28.4v7.07Z"/>
</svg>