<?xml version="1.0" encoding="UTF-8"?>
<svg id="Electric_Gnerator" data-name="Electric Gnerator" xmlns="http://www.w3.org/2000/svg" viewBox="0 0 128 128">
  <g>
    <path d="M81.08,70.77c.99-9.42,5.55-52.79,6.07-57.71.14-1.32,2.13-1.11,1.99.21-.52,4.92-5.08,48.29-6.07,57.71-.14,1.32-2.13,1.11-1.99-.21Z"/>
    <path d="M111.59,77.54c-.55-5.25-5.73-54.44-6.76-64.26-.14-1.32,1.85-1.51,1.99-.21,1.03,9.82,6.21,59.01,6.76,64.26.14,1.32-1.85,1.53-1.99.21Z"/>
    <path d="M108.92,43.62h-23.88c-1.51,0-1.01-.99.55-15.8.14-1.28-.03-.9,21.77-.9,1.27,0,.94.35,2.54,15.59.06.59-.4,1.1-.99,1.1ZM86.15,41.62h21.66l-1.34-12.7h-18.98l-1.34,12.7Z"/>
    <path d="M112.58,78.43c-1.27,0-.93-.33-2.56-15.74h-26.08l-.88,8.29c-.14,1.31-2.13,1.11-1.99-.21,1-9.45.74-10.08,1.96-10.08,28.87,0,28.73-.47,28.87.9l1.66,15.74c.06.59-.4,1.1-1,1.1Z"/>
  </g>
  <g>
    <path d="M22.67,73.21c-.6,0-1.06-.52-1-1.11.57-5.44,6.05-57.43,6.74-63.97.14-1.32,2.13-1.1,1.99.21-6.87,64.84-6.21,64.86-7.73,64.86Z"/>
    <path d="M54.5,57.88c-1.39,0-.88.1-6.11-49.53-.14-1.32,1.85-1.51,1.99-.21,5.32,50.53,5.73,49.74,4.12,49.74Z"/>
    <path d="M52.93,42.81h-27.06c-1.59,0-.98-1.25.76-17.76.14-1.29-.03-.9,24.54-.9,1.29,0,.92.19,2.75,17.55.06.59-.4,1.1-.99,1.1ZM26.98,40.81h24.84l-1.54-14.65h-21.75l-1.54,14.65Z"/>
  </g>
  <path d="M100.74,115.6h-15.7c-1.32,0-1.32-2,0-2h15.44c4.29-2.38,15.39-8.52,18.43-10.2v-21.32l-18.43-10.2h-34.79c-1.32,0-1.32-2,0-2,35.52,0,35.18-.07,35.53.13,19.94,11.03,19.69,10.57,19.69,11.48,0,23.37.29,22.93-.52,23.38-19.51,10.8-19.25,10.73-19.65,10.73Z"/>
  <path d="M79.53,115.6h-9.83c-1.32,0-1.32-2,0-2h9.83c1.32,0,1.32,2,0,2Z"/>
  <g>
    <path d="M9.72,121.9h-5.51c-.55,0-1-.45-1-1v-20.48c0-4.33,3.43-7.86,7.64-7.86h3.25c1.32,0,1.32,2,0,2h-3.25c-3.11,0-5.64,2.63-5.64,5.86v19.48h3.51v-19.48c0-1.2.96-2.17,2.13-2.17h3.25c1.32,0,1.32,2,0,2-3.39,0-3.38-.07-3.38.17v20.48c0,.55-.45,1-1,1Z"/>
    <path d="M12.18,127.04H2c-.55,0-1-.45-1-1,0-4.89-.34-6.15,1-6.15h10.18c.55,0,1,.45,1,1,0,4.89.34,6.15-1,6.15ZM3,125.04h8.18v-3.15H3v3.15Z"/>
    <path d="M85.04,121.9h-5.51c-.55,0-1-.45-1-1,0-20.64.08-20.65-.13-20.65h-3.25c-1.32,0-1.32-2,0-2h3.25c1.17,0,2.13.97,2.13,2.17v19.48h3.51v-19.48c0-3.23-2.53-5.86-5.64-5.86h-3.25c-1.32,0-1.32-2,0-2h3.25c4.21,0,7.64,3.53,7.64,7.86v20.48c0,.55-.45,1-1,1Z"/>
    <path d="M87.25,127.04h-10.18c-.55,0-1-.45-1-1,0-4.89-.34-6.15,1-6.15h10.18c.55,0,1,.45,1,1,0,4.89.34,6.15-1,6.15ZM78.07,125.04h8.18v-3.15h-8.18v3.15Z"/>
  </g>
  <path d="M69.7,119.99H19.55c-.55,0-1-.45-1-1v-35.68c0-8.86,5.24-16.87,13.36-20.42,1.21-.52,2.01,1.3.8,1.83-7.39,3.23-12.16,10.52-12.16,18.58v34.68h48.15v-34.68c0-8.06-4.77-15.36-12.16-18.59-1.21-.53-.41-2.36.8-1.83,8.12,3.56,13.36,11.57,13.36,20.43v35.68c0,.55-.45,1-1,1Z"/>
  <path d="M72.98,127.24H16.27c-.55,0-1-.45-1-1v-7.25c0-.55.45-1,1-1h56.72c.55,0,1,.45,1,1v7.25c0,.55-.45,1-1,1ZM17.27,125.24h54.72v-5.25H17.27v5.25Z"/>
  <g>
    <path d="M30.08,114.3c-3.55,0-5,.35-5-1v-33.94c0-.55.45-1,1-1,3.55,0,5-.35,5,1v33.94c0,.55-.45,1-1,1ZM27.08,112.3h2v-31.94h-2v31.94Z"/>
    <path d="M41.11,114.3c-3.55,0-5,.35-5-1v-33.94c0-.55.45-1,1-1,3.55,0,5-.35,5,1v33.94c0,.55-.45,1-1,1ZM38.11,112.3h2v-31.94h-2v31.94Z"/>
    <path d="M52.14,114.3c-3.55,0-5,.35-5-1v-33.94c0-.55.45-1,1-1,3.55,0,5-.35,5,1v33.94c0,.55-.45,1-1,1ZM49.14,112.3h2v-31.94h-2v31.94Z"/>
    <path d="M63.17,114.3c-3.55,0-5,.35-5-1v-33.94c0-.55.45-1,1-1,3.55,0,5-.35,5,1v33.94c0,.55-.45,1-1,1ZM60.17,112.3h2v-31.94h-2v31.94Z"/>
  </g>
  <g>
    <path d="M75.15,105.36h-5.45c-.55,0-1-.45-1-1v-17.07c0-.55.45-1,1-1h5.45c.55,0,1,.45,1,1v17.07c0,.55-.45,1-1,1ZM70.7,103.36h3.45v-15.07h-3.45v15.07Z"/>
    <path d="M19.55,105.36h-5.45c-.55,0-1-.45-1-1v-17.07c0-.55.45-1,1-1h5.45c.55,0,1,.45,1,1v17.07c0,.55-.45,1-1,1ZM15.1,103.36h3.45v-15.07h-3.45v15.07Z"/>
  </g>
  <path d="M119.91,104.83c-.55,0-1-.45-1-1v-22.34c0-1.33,1.19-1,6.1-1,.55,0,1,.45,1,1v22.34c0,1.33-1.19,1-6.1,1ZM120.91,102.83h3.1v-20.34h-3.1v20.34Z"/>
  <path d="M44.62,77.56c-7.35,0-13.32-5.98-13.32-13.32s5.98-13.32,13.32-13.32,13.32,5.98,13.32,13.32-5.98,13.32-13.32,13.32ZM44.62,52.92c-6.24,0-11.32,5.08-11.32,11.32s5.08,11.32,11.32,11.32,11.32-5.08,11.32-11.32-5.08-11.32-11.32-11.32Z"/>
  <path d="M42.91,73.88c-1.12,0-2.05-1.03-1.78-2.22l.92-4.08-3.54-2.26h0c-.48-.31-.8-.81-.87-1.39-.14-1.2-.11-.89,7.39-8.76,1.27-1.33,3.49-.15,3.09,1.65l-.92,4.08,3.54,2.26c1.02.65,1.19,2.07.36,2.94-7.56,7.92-7.15,7.77-8.18,7.77ZM39.67,63.68c4.17,2.66,4.69,2.73,4.49,3.65l-.93,4.13,6.35-6.65c-4.17-2.66-4.69-2.73-4.49-3.65l.93-4.13-6.35,6.65Z"/>
  <path d="M105.38,127.24c-14.68,0-14.25.18-14.67-.42-.43-.6-.4-.13,3.87-12.41.32-.92.69-.67,6.8-.67.99,0,.73.06,4.94,12.17.23.65-.25,1.33-.94,1.33ZM92.93,125.24h11.04l-3.3-9.5h-4.44l-3.3,9.5Z"/>
  <path d="M105.86,111.21v-36.94c0-.35.19-.68.49-.86.67-.39.32-.39,8.06,3.9.8.44.52,0,.52,30,0,.81.09.54-7.59,4.79-.66.36-1.48-.11-1.48-.88ZM107.86,75.97v33.55l5.07-2.8v-27.94l-5.07-2.8Z"/>
  <path d="M107.28,14.17h-20.57c-.55,0-1-.45-1-1,0-5.99-.34-7.12,1-7.12h20.57c.55,0,1,.45,1,1,0,5.99.34,7.12-1,7.12ZM87.71,12.17h18.57v-4.12h-18.57v4.12Z"/>
  <path d="M50.9,9.24h-23c-1.34,0-1-1.04-1-7.48,0-.55.45-1,1-1h23c1.34,0,1,1.04,1,7.48,0,.55-.45,1-1,1ZM28.9,7.24h21V2.76h-21v4.48Z"/>
</svg>