<?xml version="1.0" encoding="UTF-8"?>
<svg id="Factory" xmlns="http://www.w3.org/2000/svg" viewBox="0 0 128 128">
  <g>
    <path d="M89.25,70.17c-1.01,0-.54.25-12.53-26.78-.43-.97-1.39-1.6-2.46-1.6h-15.94c-1.32,0-1.32-2,0-2h15.94c1.85,0,3.53,1.09,4.28,2.78l11.62,26.19c.3.67-.2,1.41-.91,1.41Z"/>
    <path d="M89.99,59.5c-.94,0-.59.13-8.7-18.14-1.23-2.77-3.99-4.57-7.03-4.57h-15.94c-1.32,0-1.32-2,0-2h15.94c3.83,0,7.31,2.26,8.85,5.76,7.95,17.91,7.88,17.61,7.88,17.94,0,.55-.45,1-1,1Z"/>
  </g>
  <path d="M120.39,106.64c-.52,0-.96-.4-1-.93l-6.05-87h-19.59c-.46,6.69-3.93,56.67-4.62,66.65-.09,1.31-2.09,1.19-2-.14.55-7.93,4.3-62,4.69-67.58.04-.52.47-.93,1-.93,22.48,0,22.36-.4,22.46.93,6.48,93.18,6.78,89,5.11,89Z"/>
  <path d="M23.18,45.98v-19.32c0-1.32,2-1.32,2,0v19.32c0,1.32-2,1.32-2,0Z"/>
  <path d="M57.32,59.18V26.66c0-1.32,2-1.32,2,0v32.52c0,1.32-2,1.32-2,0Z"/>
  <path d="M57.32,21.88V7.79H25.18v14.09c0,1.32-2,1.32-2,0V6.79c0-.55.45-1,1-1h34.14c.55,0,1,.45,1,1v15.09c0,1.32-2,1.32-2,0Z"/>
  <path d="M123.79,127h-40.47c-1.32,0-1.32-2,0-2h40.47c1.11,0,.78-.06.78-17.11,0-1.21.01-.78-30.18-.78-1.32,0-1.32-2,0-2h29.4c1.53,0,2.78,1.25,2.78,2.78v16.32c0,1.54-1.25,2.79-2.78,2.79Z"/>
  <path d="M7.43,103.22v-60.72c0-1.96,1.96-3.31,3.79-2.6l62.19,24.05c2.24.84,1.7.77,1.7,21.34,0,1.32-2,1.32-2,0,0-13.5.21-18.76-.2-19.4.13.31-62.36-24.57-63.14-24.04-.54.37-.34.01-.34,61.37,0,1.32-2,1.32-2,0Z"/>
  <path d="M74.11,127H8.43c-.55,0-1-.45-1-1v-15.66c0-1.32,2-1.32,2,0v14.66h64.68c1.32,0,1.32,2,0,2Z"/>
  <path d="M94.39,127H15.54c-.55,0-1-.45-1-1v-37.18c0-2.5,2.03-4.54,4.54-4.54h71.79c2.5,0,4.54,2.03,4.54,4.54v37.18c0,.55-.45,1-1,1ZM16.54,125h76.86v-36.18c0-1.4-1.14-2.54-2.54-2.54H19.07c-1.4,0-2.54,1.14-2.54,2.54v36.18Z"/>
  <path d="M8.43,127c-5.99,0-7,.33-7-1v-15.66c0-4.54,3.69-8.23,8.23-8.23,5.69,0,6.88-.34,6.88,1,0,5.99.33,7-1,7-6.02,0-6.11-.11-6.11.23v15.66c0,.55-.45,1-1,1ZM3.43,125h4v-14.66c0-1.23,1-2.23,2.23-2.23h4.88v-4h-4.88c-3.44,0-6.23,2.8-6.23,6.23v14.66Z"/>
  <path d="M85.5,104.11H24.43c-.55,0-1-.45-1-1v-7.61c0-.55.45-1,1-1h61.07c.55,0,1,.45,1,1v7.61c0,.55-.45,1-1,1ZM25.43,102.11h59.07v-5.61H25.43v5.61Z"/>
  <path d="M68.68,127h-27.43c-.55,0-1-.45-1-1v-15.71c0-.55.45-1,1-1h27.43c.55,0,1,.45,1,1v15.71c0,.55-.45,1-1,1ZM42.25,125h25.43v-13.71h-25.43v13.71Z"/>
  <path d="M117.76,68.86h-28.42c-1.54,0-1.04-.48.6-24.22.09-1.37.06-.93,26.22-.93,1.34,0,.93-.08,2.6,24.08.04.58-.42,1.07-1,1.07ZM90.41,66.86h26.28l-1.46-21.15h-23.35l-1.46,21.15Z"/>
  <path d="M61.66,7.79H20.84c-.55,0-1-.45-1-1,0-4.49-.32-5.79,1-5.79h40.82c.55,0,1,.45,1,1,0,4.49.32,5.79-1,5.79ZM21.84,5.79h38.82v-2.79H21.84v2.79Z"/>
  <path d="M61.66,27.66H20.84c-.55,0-1-.45-1-1,0-4.49-.32-5.79,1-5.79h40.82c.55,0,1,.45,1,1,0,4.49.32,5.79-1,5.79ZM21.84,25.66h38.82v-2.79H21.84v2.79Z"/>
  <path d="M28.23,75.44h-9.31c-.55,0-1-.45-1-1v-9.31c0-.55.45-1,1-1h9.31c.55,0,1,.45,1,1v9.31c0,.55-.45,1-1,1ZM19.93,73.44h7.31v-7.31h-7.31v7.31Z"/>
  <path d="M43.93,75.44h-9.31c-.55,0-1-.45-1-1v-9.31c0-.55.45-1,1-1h9.31c.55,0,1,.45,1,1v9.31c0,.55-.45,1-1,1ZM35.62,73.44h7.31v-7.31h-7.31v7.31Z"/>
  <path d="M59.63,75.44h-9.31c-.55,0-1-.45-1-1v-9.31c0-.55.45-1,1-1h9.31c.55,0,1,.45,1,1v9.31c0,.55-.45,1-1,1ZM51.32,73.44h7.31v-7.31h-7.31v7.31Z"/>
</svg>