<?xml version="1.0" encoding="UTF-8"?>
<svg id="Forklift" xmlns="http://www.w3.org/2000/svg" viewBox="0 0 128 128">
  <path d="M126,103.04h-33.44c-1.32,0-1.32-2,0-2h32.44v-2.42h-30.88c-1.32,0-1.32-2,0-2h31.88c1.33,0,1,1.27,1,5.42,0,.55-.45,1-1,1Z"/>
  <g>
    <path d="M123.54,98.62h-29.42c-1.32,0-1.32-2,0-2h28.42v-33.98h-33.97v17.2c0,1.32-2,1.32-2,0v-18.2c0-.55.45-1,1-1h35.97c.55,0,1,.45,1,1v35.98c0,.55-.45,1-1,1Z"/>
    <path d="M111.2,73.92h-11.28c-.55,0-1-.45-1-1v-11.28c0-.55.45-1,1-1h11.28c.55,0,1,.45,1,1v11.28c0,.55-.45,1-1,1ZM100.92,71.92h9.28v-9.28h-9.28v9.28Z"/>
  </g>
  <g>
    <path d="M111.12,62.64h-23.55c-.55,0-1-.45-1-1v-23.55c0-.55.45-1,1-1h23.55c.55,0,1,.45,1,1v23.55c0,.55-.45,1-1,1ZM88.57,60.64h21.55v-21.55h-21.55v21.55Z"/>
    <path d="M103.03,46.47h-7.38c-.55,0-1-.45-1-1v-7.38c0-.55.45-1,1-1h7.38c.55,0,1,.45,1,1v7.38c0,.55-.45,1-1,1ZM96.65,44.47h5.38v-5.38h-5.38v5.38Z"/>
  </g>
  <path d="M58.94,98.62h-22.83c-1.32,0-1.32-2,0-2h22.83c1.32,0,1.32,2,0,2Z"/>
  <path d="M7.49,98.62h-2.45c-2.23,0-4.04-1.82-4.04-4.05v-38.04c0-2.11,1.72-3.82,3.83-3.82h9.21v-27.82c0-1.92,1.57-3.49,3.49-3.49h36.35c1.36,0,2.61.8,3.17,2.04l24.11,52.57c.55,1.2-1.26,2.04-1.82.83-24.68-53.81-23.98-53.44-25.46-53.44H17.53c-.82,0-1.49.67-1.49,1.49v28.82c0,.55-.45,1-1,1H4.83c-1.01,0-1.83.82-1.83,1.82v38.04c0,1.13.92,2.05,2.04,2.05h2.45c1.32,0,1.32,2,0,2Z"/>
  <path d="M62.43,72.53H21.8c-.55,0-1-.45-1-1V29.17c0-.55.45-1,1-1,30.24,0,29.83-.32,30.25.58,16.68,36.38,16.75,35.86,16.21,36.6-5.3,7.16-5.1,7.18-5.82,7.18ZM22.8,70.53h39.13l4.37-5.9-15.8-34.47h-27.7v40.36Z"/>
  <g>
    <path d="M54.9,65.41c-1.06-.79.14-2.4,1.2-1.6,2.36,1.77,4.64,3.71,6.79,5.46l1.1-1.52-6.7-5.37c-1.03-.83.22-2.39,1.25-1.56l7.44,5.97c.99.8,0,1.63-2.1,4.51-1,1.38-2.22-.81-8.99-5.89Z"/>
    <path d="M51.81,69.21c-1.38,0-2.61-1.03-2.84-2.37-.27-1.57.01-1.45,7.72-11.05,2.31-2.87,6.66.62,4.36,3.5h0c-7.65,9.52-7.54,9.92-9.23,9.92ZM51.13,65.91c-.66.82.58,1.81,1.24.99,7.48-9.31,7.85-9.26,6.99-9.96-.88-.71-.9-.14-8.22,8.97ZM60.27,58.67h0,0Z"/>
  </g>
  <path d="M86.57,79.84V17.07h-3.57v59.82c0,1.32-2,1.32-2,0V16.07c0-.55.45-1,1-1,5.37,0,6.57-.34,6.57,1v63.77c0,1.32-2,1.32-2,0Z"/>
  <path d="M21.8,112.93c-8.44,0-15.31-6.87-15.31-15.31s6.87-15.31,15.31-15.31,15.31,6.87,15.31,15.31-6.87,15.31-15.31,15.31ZM21.8,84.31c-7.34,0-13.31,5.97-13.31,13.31s5.97,13.31,13.31,13.31,13.31-5.97,13.31-13.31-5.97-13.31-13.31-13.31Z"/>
  <path d="M76.53,112.93c-10.45,0-18.95-8.5-18.95-18.95s8.5-18.95,18.95-18.95,18.95,8.5,18.95,18.95-8.5,18.95-18.95,18.95ZM76.53,77.03c-9.34,0-16.95,7.6-16.95,16.95s7.6,16.95,16.95,16.95,16.95-7.6,16.95-16.95-7.6-16.95-16.95-16.95Z"/>
  <path d="M76.53,106.26c-6.77,0-12.28-5.51-12.28-12.28s5.51-12.28,12.28-12.28,12.29,5.51,12.29,12.28-5.51,12.28-12.29,12.28ZM76.53,83.69c-5.67,0-10.28,4.61-10.28,10.28s4.61,10.28,10.28,10.28,10.29-4.61,10.29-10.28-4.61-10.28-10.29-10.28Z"/>
  <path d="M21.8,107.62c-5.52,0-10.01-4.49-10.01-10.01s4.49-10.01,10.01-10.01,10.01,4.49,10.01,10.01-4.49,10.01-10.01,10.01ZM21.8,89.61c-4.42,0-8.01,3.59-8.01,8.01s3.59,8.01,8.01,8.01,8.01-3.59,8.01-8.01-3.59-8.01-8.01-8.01Z"/>
  <path d="M21.8,103.24c-3.1,0-5.63-2.52-5.63-5.63s2.52-5.63,5.63-5.63c1.32,0,1.32,2,0,2-2,0-3.63,1.63-3.63,3.63s1.63,3.63,3.63,3.63c1.32,0,1.32,2,0,2Z"/>
  <path d="M20.8,83.31v-11.78c0-1.32,2-1.32,2,0v11.78c0,1.32-2,1.32-2,0Z"/>
  <path d="M42.87,82.16h-12.33c-3.69,0-3.63-5.75,0-5.75h12.33c3.68,0,3.64,5.75,0,5.75ZM30.54,78.42c-.98,0-1.04,1.75,0,1.75,12.97,0,13.08.37,13.08-.89s-.04-.85-13.08-.85Z"/>
  <path d="M34.95,82.16h-4.41c-3.69,0-3.63-5.75,0-5.75h4.41c3.69,0,3.63,5.75,0,5.75ZM30.54,78.42c-.98,0-1.04,1.75,0,1.75,4.55,0,5.16.29,5.16-.89s-.91-.85-5.16-.85Z"/>
  <path d="M15.77,66.93H7.49c-.55,0-1-.45-1-1,0-3.45-.35-4.92,1-4.92h8.28c.55,0,1,.45,1,1,0,3.45.35,4.92-1,4.92ZM8.49,64.93h6.28v-1.92h-6.28v1.92Z"/>
  <path d="M15.77,74.49H7.49c-.55,0-1-.45-1-1,0-3.45-.35-4.92,1-4.92h8.28c.55,0,1,.45,1,1,0,3.45.35,4.92-1,4.92ZM8.49,72.49h6.28v-1.92h-6.28v1.92Z"/>
</svg>