<?xml version="1.0" encoding="UTF-8"?>
<svg id="Gauge_Meter" data-name="Gauge Meter" xmlns="http://www.w3.org/2000/svg" viewBox="0 0 128 128">
  <path d="M38.71,104.57H7.79c-.55,0-1-.45-1-1v-24.94c0-.55.45-1,1-1h30.92c1.32,0,1.32,2,0,2H8.79v22.94h29.92c1.32,0,1.32,2,0,2Z"/>
  <path d="M120.21,104.57h-30.92c-1.32,0-1.32-2,0-2h29.92v-22.94h-29.92c-1.32,0-1.32-2,0-2h30.92c.55,0,1,.45,1,1v24.94c0,.55-.45,1-1,1Z"/>
  <path d="M67.64,70.77c-.55,0-1-.45-1-1v-4.82c0-1.32,2-1.32,2,0,0,4.51.34,5.82-1,5.82Z"/>
  <path d="M60.36,70.77c-.55,0-1-.45-1-1v-4.82c0-1.32,2-1.32,2,0,0,4.51.34,5.82-1,5.82Z"/>
  <path d="M79.21,79.63h-11.57c-.55,0-1-.45-1-1,0-3.25-.33-4.72,1-4.72.55,0,1,.45,1,1v2.72h10.57c1.32,0,1.32,2,0,2Z"/>
  <path d="M60.36,79.63h-11.57c-1.32,0-1.32-2,0-2h10.57v-2.72c0-1.32,2-1.32,2,0,0,3.25.33,4.72-1,4.72Z"/>
  <path d="M79.21,104.57h-30.42c-1.32,0-1.32-2,0-2h30.42c1.32,0,1.32,2,0,2Z"/>
  <path d="M120.21,105.83c-.55,0-1-.45-1-1v-27.46c0-1.35,1.17-1,6.79-1,.55,0,1,.45,1,1v27.46c0,1.35-1.17,1-6.79,1ZM121.21,103.83h3.79v-25.46h-3.79v25.46Z"/>
  <g>
    <path d="M89.29,105.83h-10.07c-.55,0-1-.45-1-1v-27.46c0-.55.45-1,1-1h10.07c.55,0,1,.45,1,1v27.46c0,.55-.45,1-1,1ZM80.21,103.83h8.07v-25.46h-8.07v25.46Z"/>
    <path d="M48.79,105.83h-10.07c-.55,0-1-.45-1-1v-27.46c0-.55.45-1,1-1h10.07c.55,0,1,.45,1,1v27.46c0,.55-.45,1-1,1ZM39.71,103.83h8.07v-25.46h-8.07v25.46Z"/>
  </g>
  <path d="M2,105.83c-.55,0-1-.45-1-1v-27.46c0-1.35,1.17-1,6.79-1,.55,0,1,.45,1,1v27.46c0,1.35-1.17,1-6.79,1ZM3,103.83h3.79v-25.46h-3.79v25.46Z"/>
  <path d="M71.48,75.91h-14.96c-4.72,0-4.72-7.14,0-7.14h14.96c4.72,0,4.72,7.14,0,7.14ZM56.52,70.77c-2.08,0-2.08,3.14,0,3.14h14.96c2.08,0,2.08-3.14,0-3.14h-14.96Z"/>
  <path d="M64,66.27c-12.16,0-22.05-9.89-22.05-22.05s9.89-22.05,22.05-22.05,22.05,9.89,22.05,22.05-9.89,22.05-22.05,22.05ZM64,24.17c-11.06,0-20.05,8.99-20.05,20.05s9,20.05,20.05,20.05,20.05-9,20.05-20.05-9-20.05-20.05-20.05Z"/>
  <path d="M64,61.85c-9.72,0-17.64-7.91-17.64-17.64s7.91-17.63,17.64-17.63,17.64,7.91,17.64,17.63-7.91,17.64-17.64,17.64ZM64,28.58c-8.62,0-15.64,7.01-15.64,15.63s7.01,15.64,15.64,15.64,15.64-7.01,15.64-15.64-7.01-15.63-15.64-15.63Z"/>
  <path d="M64,48.06c-1.34,0-1-1.05-1-7.32,0-1.32,2-1.32,2,0v6.32c0,.55-.45,1-1,1Z"/>
  <path d="M60.43,49.63c0-4.73,7.14-4.73,7.14,0s-7.14,4.74-7.14,0ZM64,48.08c-2.12,0-2.12,3.1,0,3.1s2.14-3.1,0-3.1Z"/>
  <g>
    <path d="M64,34.22c-.55,0-1-.45-1-1v-2.83c0-1.32,2-1.32,2,0,0,2.28.33,3.83-1,3.83Z"/>
    <path d="M71.77,37.44c-.88,0-1.34-1.07-.71-1.71l2-2c.94-.94,2.35.48,1.41,1.41-1.88,1.88-2.12,2.29-2.71,2.29Z"/>
    <path d="M77.82,45.22h-2.83c-1.32,0-1.32-2,0-2h2.83c1.32,0,1.32,2,0,2Z"/>
    <path d="M73.78,54.99c-.56,0-.62-.21-2.71-2.29-.94-.94.48-2.35,1.41-1.41l2,2c.63.63.17,1.71-.71,1.71Z"/>
    <path d="M54.22,54.99c-.88,0-1.34-1.07-.71-1.71l2-2c.94-.94,2.35.48,1.41,1.41-1.88,1.88-2.12,2.29-2.71,2.29Z"/>
    <path d="M53.01,45.22h-2.83c-1.32,0-1.32-2,0-2h2.83c1.32,0,1.32,2,0,2Z"/>
    <path d="M56.23,37.44c-.55,0-.58-.17-2.71-2.29-.94-.94.48-2.35,1.41-1.41l2,2c.63.63.17,1.71-.71,1.71Z"/>
  </g>
</svg>