<?xml version="1.0" encoding="UTF-8"?>
<svg id="Laser_Cutting" data-name="Laser Cutting" xmlns="http://www.w3.org/2000/svg" viewBox="0 0 128 128">
  <path d="M126,18.18H2c-1.35,0-1-1.17-1-6.79,0-.55.45-1,1-1h124c1.35,0,1,1.17,1,6.79,0,.55-.45,1-1,1ZM3,16.18h122v-3.79H3v3.79Z"/>
  <path d="M108.86,23.96H19.14c-1.35,0-1-1.17-1-6.79,0-.55.45-1,1-1h89.71c.55,0,1,.45,1,1v5.79c0,.55-.45,1-1,1ZM20.14,21.96h87.71v-3.79H20.14v3.79Z"/>
  <path d="M76.11,47.54h-24.21c-.55,0-1-.45-1-1v-14.79c0-.55.45-1,1-1h24.21c.55,0,1,.45,1,1v14.79c0,.55-.45,1-1,1ZM52.89,45.54h22.21v-12.79h-22.21v12.79Z"/>
  <path d="M69.43,42.71c-.55,0-1-.45-1-1v-9.96c0-1.34.99-1,7.68-1,.55,0,1,.45,1,1v9.96c0,1.34-.99,1-7.68,1ZM70.43,40.71h4.68v-7.96h-4.68v7.96Z"/>
  <path d="M51.89,42.71c-.55,0-1-.45-1-1v-9.96c0-1.34.99-1,7.68-1,.55,0,1,.45,1,1v9.96c0,1.34-.99,1-7.68,1ZM52.89,40.71h4.68v-7.96h-4.68v7.96Z"/>
  <path d="M82.05,32.75h-36.11c-.55,0-1-.45-1-1v-8.79c0-.55.45-1,1-1h36.11c.55,0,1,.45,1,1v8.79c0,.55-.45,1-1,1ZM46.95,30.75h34.11v-6.79h-34.11v6.79Z"/>
  <path d="M67.77,60.14c-8.12,0-8.13.22-8.47-.63-5.3-13.37-5.32-12.91-4.9-13.54.44-.65.03-.44,18.36-.44.7,0,1.19.71.93,1.37-5.34,13.45-4.98,13.24-5.93,13.24ZM60.91,58.14h6.18l4.21-10.61h-14.59l4.21,10.61Z"/>
  <path d="M125.68,117.61H2c-.55,0-1-.45-1-1v-14.14c0-.55.45-1,1-1h123.68c.55,0,1,.45,1,1v14.14c0,.55-.45,1-1,1ZM3,115.61h121.68v-12.14H3v12.14Z"/>
  <path d="M63.02,111.75l.45-2.28c-2.34-3.97-2.2-2.34-.41-7.35.45-1.25,2.33-.57,1.88.67l-1.16,3.26c2.21,3.75,1.94,2.35,1.2,6.08-.26,1.3-2.22.91-1.96-.39Z"/>
  <path d="M66.01,103.46c-3.6,0-5.02.35-5.02-1v-43.32c0-.55.45-1,1-1,3.6,0,5.02-.35,5.02,1v43.32c0,.55-.45,1-1,1ZM62.99,101.46h2.02v-41.32h-2.02v41.32Z"/>
  <g>
    <path d="M66.01,103.46c-.86,0-1.32-1.02-.74-1.67l10.97-12.21c.88-.98,2.37.35,1.49,1.34-11.47,12.77-11.04,12.55-11.72,12.55Z"/>
    <path d="M66.01,103.46c-1.17,0-1.38-1.67-.25-1.97l23.19-6.11c1.29-.33,1.78,1.6.51,1.93-23.43,6.17-23.24,6.14-23.44,6.14Z"/>
    <path d="M95.3,95.75c-1.18,0-1.38-1.69-.24-1.97l7.23-1.77c1.29-.31,1.76,1.63.47,1.94-7.46,1.82-7.28,1.8-7.47,1.8Z"/>
    <path d="M71.49,86.43c-.75,0-1.24-.81-.88-1.48l5.49-10.12c.63-1.16,2.39-.21,1.76.95-5.8,10.69-5.51,10.65-6.37,10.65Z"/>
  </g>
  <g>
    <path d="M61.99,103.46c-.69,0-.27.2-11.72-12.55-.88-.98.6-2.32,1.49-1.34l10.97,12.21c.58.64.11,1.67-.74,1.67Z"/>
    <path d="M61.99,103.46c-.2,0-.01.03-23.44-6.14-1.28-.34-.77-2.27.51-1.93l23.19,6.11c1.13.3.91,1.97-.25,1.97Z"/>
    <path d="M32.7,95.75c-.2,0-.35-.06-7.47-1.8-1.29-.32-.81-2.26.47-1.94l7.23,1.77c1.14.28.94,1.97-.24,1.97Z"/>
    <path d="M56.51,86.43c-.83,0-.52.14-6.37-10.65-.63-1.16,1.13-2.12,1.76-.95l5.49,10.12c.36.67-.13,1.48-.88,1.48Z"/>
  </g>
</svg>