<?xml version="1.0" encoding="UTF-8"?>
<svg id="Laver" xmlns="http://www.w3.org/2000/svg" viewBox="0 0 128 128">
  <g>
    <path d="M9.67,97.05c-4.03-.96-7.1-3.91-8.23-7.9-2.09-7.39,3.53-14.36,10.85-14.36h103.42c13.19,0,15.67,19.14,2.62,22.26-1.28.31-1.75-1.64-.46-1.95,10.75-2.57,8.68-18.32-2.16-18.32H12.29c-10.96,0-12.76,15.79-2.16,18.32,1.27.3.84,2.26-.46,1.95Z"/>
    <path d="M115.71,93.36H12.29c-4.02,0-7.29-3.27-7.29-7.29s3.27-7.29,7.29-7.29h103.43c4.02,0,7.29,3.27,7.29,7.29s-3.27,7.29-7.29,7.29ZM12.29,80.79c-2.91,0-5.29,2.37-5.29,5.29s2.37,5.29,5.29,5.29h103.43c2.91,0,5.29-2.37,5.29-5.29s-2.37-5.29-5.29-5.29H12.29Z"/>
    <g>
      <path d="M16.59,91.09c-2.77,0-5.02-2.25-5.02-5.02s2.25-5.02,5.02-5.02,5.02,2.25,5.02,5.02-2.25,5.02-5.02,5.02ZM16.59,83.06c-3.99,0-3.99,6.04,0,6.04s3.99-6.04,0-6.04Z"/>
      <path d="M35.55,91.09c-2.77,0-5.02-2.25-5.02-5.02s2.25-5.02,5.02-5.02,5.02,2.25,5.02,5.02-2.25,5.02-5.02,5.02ZM35.55,83.06c-3.99,0-3.99,6.04,0,6.04s3.99-6.04,0-6.04Z"/>
      <path d="M54.52,91.09c-2.77,0-5.02-2.25-5.02-5.02s2.25-5.02,5.02-5.02,5.02,2.25,5.02,5.02-2.25,5.02-5.02,5.02ZM54.52,83.06c-3.99,0-3.99,6.04,0,6.04s3.99-6.04,0-6.04Z"/>
      <path d="M73.48,91.09c-2.77,0-5.02-2.25-5.02-5.02s2.25-5.02,5.02-5.02,5.02,2.25,5.02,5.02-2.25,5.02-5.02,5.02ZM73.48,83.06c-3.99,0-3.99,6.04,0,6.04s3.99-6.04,0-6.04Z"/>
      <path d="M92.45,91.09c-2.77,0-5.02-2.25-5.02-5.02s2.25-5.02,5.02-5.02,5.02,2.25,5.02,5.02-2.25,5.02-5.02,5.02ZM92.45,83.06c-3.99,0-3.99,6.04,0,6.04s3.99-6.04,0-6.04Z"/>
      <path d="M111.41,91.09c-2.77,0-5.02-2.25-5.02-5.02s2.25-5.02,5.02-5.02,5.02,2.25,5.02,5.02-2.25,5.02-5.02,5.02ZM111.41,83.06c-3.99,0-3.99,6.04,0,6.04s3.99-6.04,0-6.04Z"/>
    </g>
  </g>
  <g>
    <g>
      <path d="M52.32,76.47c-.38.42-1.04.43-1.45.02l-6.72-6.82c-.82-.84.1-1.54,2.03-4-.53-1.06-.99-2.17-1.35-3.33l-3.37-.47c-1.19-.17-.87-.35-.78-11.47,0-1.17,1.16-1.02,4.26-1.4.37-1.13.84-2.24,1.4-3.31l-2.06-2.71c-.73-.96-.4-.83,7.56-8.67.83-.82,1.53.09,4,2.02,1.07-.54,2.19-.99,3.34-1.34.39-2.88.26-4.24,1.46-4.24,10.97.08,11.31-.24,11.45.96l.41,3.38c1.15.38,2.26.86,3.31,1.41,2.51-1.91,3.21-2.79,4.03-1.96,7.4,7.52,8.2,7.8,7.42,8.78l-2.1,2.67c.54,1.07.99,2.19,1.35,3.34,3.13.43,4.25.3,4.24,1.46-.08,10.97.24,11.31-.96,11.46l-3.38.41c-.38,1.14-.85,2.25-1.41,3.32,1.91,2.52,2.79,3.22,1.96,4.03l-6.6,6.5c-.56.55-1.49.27-1.67-.47-.03.13-.09.26-.18.37-.81,1.04-1.9-.21-3-1.08-.74.37-3.24,1.46-3.88,1.46-12.22,0-11.99.02-12.22-.04-1.37-.41-2.68-.94-3.89-1.58-1.29.98-2.37,2.21-3.21,1.3ZM78.36,75c.18.14.3.34.35.54.1-.39-.1-.11,6.24-6.35-3.5-4.61-2.04-1.7-.25-7.74.27-.89,1.17-.75,3.99-1.09l.07-8.71c-5.76-.79-2.64.21-5.65-5.29-.45-.83.33-1.4,2.05-3.59l-6.12-6.21c-4.58,3.47-1.69,2.07-7.73.24-.83-.25-.7-.84-1.09-3.98l-8.71-.07c-.79,5.75.22,2.64-5.29,5.64-.83.45-1.37-.31-3.59-2.04l-6.21,6.12c3.5,4.61,2.03,1.72.25,7.73-.26.88-1.06.74-3.99,1.09l-.07,8.71c5.72.8,2.63-.23,5.64,5.29.45.83-.31,1.38-2.05,3.59,2.03,2.06,6.12,6.21,6.12,6.22.1-.11.12-.11,2.52-1.93.94-.71,1.14.42,5.01,1.61h11.64c5.33-1.6,2.96-2.84,6.86.21Z"/>
      <path d="M65.68,68.66c-7.07,0-12.82-5.76-12.82-12.83s5.75-12.82,12.82-12.82,12.82,5.75,12.82,12.82-5.75,12.83-12.82,12.83ZM65.68,45.01c-5.97,0-10.82,4.85-10.82,10.82s4.85,10.83,10.82,10.83,10.82-4.86,10.82-10.83-4.85-10.82-10.82-10.82Z"/>
      <path d="M65.68,64.29c-4.66,0-8.46-3.79-8.46-8.46s3.79-8.46,8.46-8.46,8.46,3.79,8.46,8.46-3.79,8.46-8.46,8.46ZM65.68,49.37c-3.56,0-6.46,2.9-6.46,6.46s2.9,6.46,6.46,6.46,6.46-2.9,6.46-6.46-2.9-6.46-6.46-6.46Z"/>
    </g>
    <g>
      <path d="M17.2,76.38c-.9.49-1.03,0-5.57-4.62-.81-.82.19-1.66,1.16-2.89-.28-.58-.53-1.19-.73-1.81-1.41-.2-2.85-.09-2.84-1.27.07-8.78-.64-7.62,2.92-8.05.21-.61.47-1.21.76-1.8-.86-1.14-1.96-2.08-1.11-2.91,6.16-6.06,4.89-5.87,7.75-3.64.59-.28,1.19-.53,1.82-.73.49-3.59-.57-2.86,8.09-2.79,1.16,0,1.04,1.32,1.23,2.87.62.22,1.23.47,1.8.77,2.86-2.17,1.53-2.51,7.7,3.75.81.82-.19,1.66-1.16,2.89.29.59.53,1.19.74,1.82,3.58.49,2.86-.65,2.8,8.09,0,1.16-1.3,1.04-2.86,1.23-.21.62-.47,1.22-.77,1.81,2.14,2.82,2.43,1.62-3.19,7.15-.37.36-.94.38-1.33.06-.74.61-1.37-.08-2.12-.67-2.43,1.19-1.96.89-10.26.89-.51,0-2.13-.71-2.68-.99-.78.59-1.38,1.28-2.13.87ZM34.38,74.71s0,0,.01.01l3.61-3.55c-.85-1.11-1.57-1.73-1.14-2.5,2.01-3.56.13-3.09,3.69-3.53l.04-5.06c-1.39-.19-2.34-.11-2.58-.96-1.09-3.94-2.11-2.27.12-5.1l-3.56-3.61c-1.11.84-1.74,1.58-2.5,1.14-3.55-2.02-3.08-.12-3.52-3.69l-5.06-.04c-.19,1.38-.11,2.34-.96,2.58-3.94,1.09-2.26,2.1-5.1-.12l-3.61,3.56c.89,1.18,1.57,1.74,1.14,2.5-2,3.55-.12,3.09-3.69,3.52l-.04,5.07c1.43.2,2.33.12,2.57.96,1.11,3.93,2.1,2.28-.12,5.1l3.56,3.61c2.81-2.13,1.35-1.2,4.94-.09h7.48c3.36-1.02,2.02-1.91,4.74.21Z"/>
      <path d="M25.91,70.61c-4.48,0-8.12-3.64-8.12-8.12s3.64-8.12,8.12-8.12,8.12,3.64,8.12,8.12-3.64,8.12-8.12,8.12ZM25.91,56.38c-3.37,0-6.12,2.74-6.12,6.12s2.74,6.12,6.12,6.12,6.12-2.75,6.12-6.12-2.74-6.12-6.12-6.12Z"/>
      <path d="M25.91,67.04c-6.1,0-6.1-9.09,0-9.09s6.1,9.09,0,9.09ZM25.91,59.95c-3.46,0-3.46,5.09,0,5.09s3.46-5.09,0-5.09Z"/>
    </g>
  </g>
  <path d="M123.63,117.04H4.37c-1.86,0-3.37-1.51-3.37-3.37v-15.22c0-1.86,1.51-3.37,3.37-3.37h119.26c1.86,0,3.37,1.51,3.37,3.37v15.22c0,1.86-1.51,3.37-3.37,3.37ZM4.37,97.08c-.76,0-1.37.61-1.37,1.37v15.22c0,.76.61,1.37,1.37,1.37h119.26c.76,0,1.37-.61,1.37-1.37v-15.22c0-.76-.61-1.37-1.37-1.37H4.37Z"/>
  <g>
    <path d="M104.34,66.79c-3.01,0-4.5.32-4.5-1V31.89c0-.55.45-1,1-1,3.01,0,4.5-.32,4.5,1v33.9c0,.55-.45,1-1,1ZM101.84,64.79h1.5v-31.9h-1.5v31.9Z"/>
    <path d="M112.73,76.79h-20.29c-1.34,0-1-.98-1-7.81,0-2.31,1.88-4.19,4.19-4.19h13.9c2.31,0,4.19,1.88,4.19,4.19,0,6.8.35,7.81-1,7.81ZM93.45,74.79h18.29v-5.81c0-1.21-.98-2.19-2.19-2.19h-13.9c-1.21,0-2.19.98-2.19,2.19v5.81Z"/>
    <path d="M103.6,32.89h-2.02c-2.3,0-4.17-1.87-4.17-4.17v-13.59c0-2.3,1.87-4.17,4.17-4.17h2.02c2.3,0,4.17,1.87,4.17,4.17v13.59c0,2.3-1.87,4.17-4.17,4.17ZM101.58,12.96c-1.2,0-2.17.97-2.17,2.17v13.59c0,1.2.97,2.17,2.17,2.17h2.02c1.2,0,2.17-.97,2.17-2.17v-13.59c0-1.2-.97-2.17-2.17-2.17h-2.02Z"/>
  </g>
  <g>
    <path d="M30.55,109.47H10.27c-.55,0-1-.45-1-1,0-4.5-.33-5.82,1-5.82h20.29c.55,0,1,.45,1,1,0,4.5.33,5.82-1,5.82ZM11.27,107.47h18.29v-2.82H11.27v2.82Z"/>
    <path d="M40.01,106.06c0-5.23,7.9-5.23,7.9,0s-7.9,5.24-7.9,0ZM43.96,104.13c-2.63,0-2.63,3.86,0,3.86s2.63-3.86,0-3.86Z"/>
  </g>
</svg>