<?xml version="1.0" encoding="UTF-8"?>
<svg id="Maintenance_Machine" data-name="Maintenance Machine" xmlns="http://www.w3.org/2000/svg" viewBox="0 0 128 128">
  <path d="M44.15,106.98H12.29c-6.23,0-11.29-5.06-11.29-11.29s5.06-11.28,11.29-11.28h31.86c1.32,0,1.32,2,0,2H12.29c-5.12,0-9.29,4.16-9.29,9.28s4.17,9.29,9.29,9.29h31.86c1.32,0,1.32,2,0,2Z"/>
  <path d="M44.15,102.98H12.29c-4.02,0-7.29-3.27-7.29-7.29s3.27-7.28,7.29-7.28h31.86c1.32,0,1.32,2,0,2H12.29c-2.92,0-5.29,2.37-5.29,5.28s2.37,5.29,5.29,5.29h31.86c1.32,0,1.32,2,0,2Z"/>
  <g>
    <path d="M16.59,100.71c-2.77,0-5.02-2.25-5.02-5.02s2.25-5.02,5.02-5.02,5.02,2.25,5.02,5.02-2.25,5.02-5.02,5.02ZM16.59,92.67c-3.99,0-3.99,6.04,0,6.04s3.99-6.04,0-6.04Z"/>
    <path d="M35.55,100.71c-2.77,0-5.02-2.25-5.02-5.02s2.25-5.02,5.02-5.02,5.02,2.25,5.02,5.02-2.25,5.02-5.02,5.02ZM35.55,92.67c-3.99,0-3.99,6.04,0,6.04s3.99-6.04,0-6.04Z"/>
  </g>
  <path d="M42.43,36.96h-22.91c-1.32,0-1.32-2,0-2h22.91c1.32,0,1.32,2,0,2Z"/>
  <path d="M42.43,42.14h-22.91c-1.32,0-1.32-2,0-2h22.91c1.32,0,1.32,2,0,2Z"/>
  <path d="M49.83,34.84c-.55,0-1-.45-1-1v-5.7h-3.19v5.63c0,1.32-2,1.32-2,0v-6.63c0-.55.45-1,1-1h5.19c.55,0,1,.45,1,1,0,6.72.34,7.7-1,7.7Z"/>
  <path d="M126,126.94H2c-.55,0-1-.45-1-1v-19.96c0-.55.45-1,1-1h124c.55,0,1,.45,1,1v19.96c0,.55-.45,1-1,1ZM3,124.94h122v-17.96H3v17.96Z"/>
  <path d="M28.37,20.84c-21.68,0-21.73.43-21.73-1V4.53c0-.55.45-1,1-1,21.68,0,21.73-.43,21.73,1,0,.55-.45,1-1,1H8.64v13.31h19.73c1.32,0,1.32,2,0,2Z"/>
  <path d="M120.36,20.84h-54.38c-1.32,0-1.32-2,0-2h53.38V5.53h-53.38c-1.32,0-1.32-2,0-2h54.38c.55,0,1,.45,1,1v15.31c0,.55-.45,1-1,1Z"/>
  <path d="M12.99,56.32c-4.04,0-4.55.21-4.89-.62-4.15-10.24-4.23-9.94-3.8-10.57,3.33-4.83,3.24-4.98,3.95-4.98,1.31,0,2.76-.26,2.76,1s-1.31,1-2.23,1l-2.53,3.67,3.45,8.51h2.29v-10.66c0-1.32,2-1.32,2,0v11.66c0,.55-.45,1-1,1Z"/>
  <path d="M20.52,56.32c-3.53,0-4.96.35-4.96-1v-11.66c0-1.32,2-1.32,2,0v10.66h2.29l3.45-8.51-2.54-3.67h-1.24c-1.32,0-1.32-2,0-2,1.61,0,2.18-.15,2.58.43,3.31,4.8,3.52,4.81,3.24,5.49-4.07,10.05-3.87,10.25-4.83,10.25Z"/>
  <path d="M65.98,23.31H28.37c-.55,0-1-.45-1-1V2.06c0-.55.45-1,1-1h37.61c.55,0,1,.45,1,1v20.25c0,.55-.45,1-1,1ZM29.37,21.31h35.61V3.06H29.37v18.25Z"/>
  <path d="M59.97,28.14h-25.59c-.55,0-1-.45-1-1,0-4.51-.33-5.83,1-5.83h25.59c.55,0,1,.45,1,1,0,4.51.33,5.83-1,5.83ZM35.38,26.14h23.59v-2.83h-23.59v2.83Z"/>
  <path d="M47.17,44.96c-3.53,0-6.41-2.88-6.41-6.41s2.88-6.41,6.41-6.41,6.41,2.88,6.41,6.41-2.88,6.41-6.41,6.41ZM47.17,34.14c-2.43,0-4.41,1.98-4.41,4.41s1.98,4.41,4.41,4.41,4.41-1.98,4.41-4.41-1.98-4.41-4.41-4.41Z"/>
  <path d="M14.77,44.96c-3.54,0-6.41-2.88-6.41-6.41s2.88-6.41,6.41-6.41,6.41,2.88,6.41,6.41-2.88,6.41-6.41,6.41ZM14.77,34.14c-2.43,0-4.41,1.98-4.41,4.41s1.98,4.41,4.41,4.41,4.41-1.98,4.41-4.41-1.98-4.41-4.41-4.41Z"/>
  <path d="M61.06,14.64h-27.64c-.55,0-1-.45-1-1v-4.29c0-.55.45-1,1-1h27.64c.55,0,1,.45,1,1v4.29c0,.55-.45,1-1,1ZM34.42,12.64h25.64v-2.29h-25.64v2.29Z"/>
  <path d="M126,23.31h-5.64c-.55,0-1-.45-1-1V2.06c0-.55.45-1,1-1h5.64c.55,0,1,.45,1,1v20.25c0,.55-.45,1-1,1ZM121.36,21.31h3.64V3.06h-3.64v18.25Z"/>
  <path d="M7.64,23.31H2c-.55,0-1-.45-1-1V2.06c0-.55.45-1,1-1h5.64c.55,0,1,.45,1,1v20.25c0,.55-.45,1-1,1ZM3,21.31h3.64V3.06h-3.64v18.25Z"/>
  <g>
    <g>
      <path d="M92.64,122.16c-1.26,0-.98-.75-1.5-8.3-.09-1.32,1.91-1.46,2-.14l.5,7.37c.04.58-.42,1.07-1,1.07Z"/>
      <path d="M77.51,122.16c-.58,0-1.04-.49-1-1.07l.5-7.37c.09-1.32,2.08-1.18,2,.14-.52,7.61-.25,8.3-1.5,8.3Z"/>
      <path d="M92.97,127h-15.79c-1.32,0-1.32-2,0-2h15.79c1.32,0,1.32,2,0,2Z"/>
      <path d="M103.07,127h-36c-1.34,0-1-1.58-1-3.88,0-1.64,1.33-2.97,2.97-2.97h32.07c1.63,0,2.96,1.33,2.96,2.97v2.88c0,.55-.45,1-1,1ZM68.07,125h34c0-1.31.28-2.84-.96-2.84h-32.07c-1.24,0-.97,1.46-.97,2.84Z"/>
    </g>
    <g>
      <path d="M122.26,114.79H47.87c-2.6,0-4.72-2.12-4.72-4.73v-51.01c0-2.61,2.12-4.73,4.72-4.73h38.52c1.32,0,1.32,2,0,2h-38.52c-1.5,0-2.72,1.22-2.72,2.73v51.01c0,1.51,1.22,2.73,2.72,2.73h74.39c1.51,0,2.74-1.22,2.74-2.73v-50.58c0-1.32,2-1.32,2,0v50.58c0,2.61-2.13,4.73-4.74,4.73Z"/>
      <path d="M122.25,65.77c-1.35,0-1-1.54-.99-4.41,0-1.32,2-1.32,2,0v3.41c0,.55-.46,1-1.01,1Z"/>
      <path d="M121.2,105.98l.05-38.74c0-1.32,2-1.32,2,0l-.05,38.74c0,1.32-2,1.32-2,0Z"/>
      <path d="M46.88,105.98l.07-45.82c0-1.16.94-2.1,2.1-2.1l37.37.03c1.32,0,1.32,2,0,2,0,0-27.37-.02-37.37-.03-.16,0-.1,0-.17,45.92,0,1.35-2,1.28-2,0Z"/>
      <path d="M122.26,114.79H47.88c-2.61,0-4.73-2.12-4.73-4.73v-4.08c0-.55.45-1,1-1h81.85c1.33,0,1,1.36,1,5.08,0,2.61-2.12,4.73-4.74,4.73ZM45.15,106.98v3.08c0,1.51,1.22,2.73,2.73,2.73h74.39c1.51,0,2.74-1.23,2.74-2.73v-3.08H45.15Z"/>
    </g>
  </g>
  <g>
    <path d="M101.05,75.29l-.37-2.67c-.89-.28-1.75-.63-2.57-1.04l-2.12,1.66c-.95.75-1.09.15-7.46-6.13-.84-.83.16-1.66,1.53-3.46-.42-.82-.79-1.67-1.08-2.55l-2.67-.32c-1.21-.15-.88-.68-.94-9.61,0-.5.37-.93.86-1l2.67-.37c.28-.89.63-1.75,1.04-2.57l-1.66-2.12c-.75-.96-.14-1.1,6.13-7.46.35-.36.92-.4,1.32-.1l2.15,1.63c.82-.42,1.67-.79,2.55-1.08l.33-2.67c.15-1.2.65-.87,9.61-.95.52,0,.93.38,1,.86l.37,2.67c.88.28,1.74.63,2.57,1.04,1.81-1.41,2.6-2.4,3.44-1.58,6.51,6.42,6.95,6.43,6.24,7.37l-1.63,2.15c.42.82.79,1.67,1.08,2.55,2.24.27,3.54.14,3.55,1.31.08,10.92.95,9.38-3.47,9.99-.28.89-.63,1.75-1.04,2.57,1.4,1.78,2.4,2.6,1.59,3.43-7.67,7.79-5.96,7.31-9.52,4.62-.82.42-1.67.79-2.55,1.08-.28,2.28-.13,3.55-1.31,3.56-9.09.07-9.47.37-9.63-.8ZM101.85,70.89c.87.24.76,1.07,1.05,3.26l6.87-.05c.57-4.67-.16-2.15,4.35-4.7.76-.43,1.2.15,3.06,1.56l4.82-4.9c-2.87-3.66-1.64-1.41-.24-6.4.24-.87,1.1-.76,3.26-1.06l-.05-6.87c-4.64-.56-2.15.16-4.7-4.35-.43-.76.15-1.2,1.56-3.06l-4.89-4.82c-3.68,2.88-1.4,1.62-6.4.24-.85-.23-.74-.96-1.06-3.27l-6.87.06c-.57,4.65.15,2.15-4.35,4.7-.79.45-1.32-.24-3.06-1.56l-4.82,4.89c2.87,3.66,1.64,1.41.24,6.4-.24.85-.96.74-3.26,1.05l.05,6.87c4.64.56,2.15-.16,4.7,4.35.43.76-.15,1.2-1.56,3.06l4.89,4.82c3.68-2.88,1.48-1.62,6.4-.24Z"/>
    <path d="M106.2,68.11c-7.05,0-12.79-5.74-12.79-12.79s5.74-12.79,12.79-12.79,12.79,5.74,12.79,12.79-5.74,12.79-12.79,12.79ZM106.2,44.53c-5.95,0-10.79,4.84-10.79,10.79s4.84,10.79,10.79,10.79,10.79-4.84,10.79-10.79-4.84-10.79-10.79-10.79Z"/>
    <path d="M106.2,64.28c-4.94,0-8.96-4.02-8.96-8.96s4.02-8.96,8.96-8.96,8.96,4.02,8.96,8.96-4.02,8.96-8.96,8.96ZM106.2,48.36c-3.84,0-6.96,3.12-6.96,6.96s3.12,6.96,6.96,6.96,6.96-3.12,6.96-6.96-3.12-6.96-6.96-6.96Z"/>
  </g>
  <g>
    <path d="M67.68,94.21c-1.11,0-1.04-1.23-1.2-2.41-.46-.16-.91-.34-1.34-.54-2.34,1.84-1.34,2.07-6.59-3.1-.8-.79.12-1.61.85-2.56-.21-.43-.4-.87-.56-1.33-2.97-.36-2.41.48-2.47-6.85,0-1.11,1.19-1.04,2.41-1.21.16-.46.34-.91.54-1.34-1.84-2.35-2.05-1.36,3.1-6.59.79-.8,1.61.12,2.56.85.43-.21.87-.4,1.33-.56.37-2.96-.43-2.41,6.85-2.47,1.13,0,1.05,1.22,1.21,2.41.46.15.9.33,1.34.54.93-.72,1.75-1.66,2.54-.88,5.26,5.18,4.99,4.18,3.19,6.54.21.43.4.87.56,1.32,1.17.14,2.42.06,2.43,1.17.06,7.26.61,6.47-2.36,6.89-.15.46-.33.9-.54,1.34.73.92,1.66,1.75.89,2.54-5.18,5.26-4.17,4.99-6.54,3.2-.43.21-.87.4-1.33.56-.36,2.94.36,2.47-6.86,2.47ZM67.65,90.07c.81.23.74.99.9,2.13l3.92-.03c.35-2.89.07-1.4,3-3.05.75-.42,1.29.22,2.15.87l2.75-2.79c-1.78-2.27-.94-1.03-.03-4.28.23-.83,1.07-.76,2.13-.9l-.03-3.92c-2.88-.35-1.4-.07-3.05-3-.41-.73.17-1.22.87-2.15l-2.79-2.75c-2.29,1.79-1.05.93-4.27.04-.81-.22-.75-.98-.9-2.13l-3.92.03c-.35,2.87-.08,1.4-3,3.05-.73.41-1.22-.17-2.15-.87l-2.75,2.79c1.78,2.27.94,1.04.03,4.28-.23.81-.99.74-2.13.9l.03,3.92c2.9.35,1.4.09,3.05,3,.41.73-.17,1.22-.87,2.15l2.79,2.75c2.28-1.79,1.25-.88,4.28-.03Z"/>
    <path d="M70.41,86.17c-3.31,0-6.01-2.69-6.01-6.01s2.69-6.01,6.01-6.01,6.01,2.69,6.01,6.01-2.7,6.01-6.01,6.01ZM70.41,76.16c-2.21,0-4.01,1.8-4.01,4.01s1.8,4.01,4.01,4.01,4.01-1.8,4.01-4.01-1.8-4.01-4.01-4.01Z"/>
  </g>
</svg>