<?xml version="1.0" encoding="UTF-8"?>
<svg id="Mass_Production" data-name="Mass Production" xmlns="http://www.w3.org/2000/svg" viewBox="0 0 128 128">
  <g>
    <g>
      <path d="M39.57,86.41H12.57c-.55,0-1-.45-1-1v-24.08c0-.55.45-1,1-1h27c.55,0,1,.45,1,1v24.08c0,.55-.45,1-1,1ZM13.57,84.41h25v-22.08H13.57v22.08Z"/>
      <path d="M77.5,86.41h-27c-.55,0-1-.45-1-1v-15.62c0-.55.45-1,1-1h27c.55,0,1,.45,1,1v15.62c0,.55-.45,1-1,1ZM51.5,84.41h25v-13.62h-25v13.62Z"/>
      <path d="M30.3,70.79h-8.46c-.55,0-1-.45-1-1v-8.46c0-.55.45-1,1-1h8.46c.55,0,1,.45,1,1v8.46c0,.55-.45,1-1,1ZM22.84,68.79h6.46v-6.46h-6.46v6.46Z"/>
      <g>
        <path d="M115.43,86.41h-27c-.55,0-1-.45-1-1v-24.08c0-.55.45-1,1-1h27c.55,0,1,.45,1,1v24.08c0,.55-.45,1-1,1ZM89.43,84.41h25v-22.08h-25v22.08Z"/>
        <path d="M106.16,70.79h-8.46c-.55,0-1-.45-1-1v-8.46c0-.55.45-1,1-1h8.46c.55,0,1,.45,1,1v8.46c0,.55-.45,1-1,1ZM98.7,68.79h6.46v-6.46h-6.46v6.46Z"/>
      </g>
      <path d="M82.52,70.79h-37.04c-.36,0-.69-.19-.87-.5-.41-.72-.25-.56,5.03-9.47.45-.76,0-.49,27.86-.49.79,0,.56-.02,5.88,8.95.39.67-.09,1.51-.86,1.51ZM47.24,68.79h33.53l-3.83-6.46h-25.86l-3.83,6.46Z"/>
    </g>
    <path d="M115.71,106.98H12.29c-6.22,0-11.29-5.06-11.29-11.29s5.06-11.29,11.29-11.29h103.43c6.22,0,11.29,5.06,11.29,11.29s-5.06,11.29-11.29,11.29ZM12.29,86.41c-5.12,0-9.29,4.17-9.29,9.29s4.17,9.29,9.29,9.29h103.43c5.12,0,9.29-4.17,9.29-9.29s-4.17-9.29-9.29-9.29H12.29Z"/>
    <path d="M115.71,102.98H12.29c-4.02,0-7.29-3.27-7.29-7.29s3.27-7.29,7.29-7.29h103.43c4.02,0,7.29,3.27,7.29,7.29s-3.27,7.29-7.29,7.29ZM12.29,90.41c-2.91,0-5.29,2.37-5.29,5.29s2.37,5.29,5.29,5.29h103.43c2.91,0,5.29-2.37,5.29-5.29s-2.37-5.29-5.29-5.29H12.29Z"/>
    <g>
      <path d="M16.59,100.71c-2.77,0-5.02-2.25-5.02-5.02s2.25-5.02,5.02-5.02,5.02,2.25,5.02,5.02-2.25,5.02-5.02,5.02ZM16.59,92.67c-3.99,0-3.99,6.04,0,6.04s3.99-6.04,0-6.04Z"/>
      <path d="M35.55,100.71c-2.77,0-5.02-2.25-5.02-5.02s2.25-5.02,5.02-5.02,5.02,2.25,5.02,5.02-2.25,5.02-5.02,5.02ZM35.55,92.67c-3.99,0-3.99,6.04,0,6.04s3.99-6.04,0-6.04Z"/>
      <path d="M54.52,100.71c-2.77,0-5.02-2.25-5.02-5.02s2.25-5.02,5.02-5.02,5.02,2.25,5.02,5.02-2.25,5.02-5.02,5.02ZM54.52,92.67c-3.99,0-3.99,6.04,0,6.04s3.99-6.04,0-6.04Z"/>
      <path d="M73.48,100.71c-2.77,0-5.02-2.25-5.02-5.02s2.25-5.02,5.02-5.02,5.02,2.25,5.02,5.02-2.25,5.02-5.02,5.02ZM73.48,92.67c-3.99,0-3.99,6.04,0,6.04s3.99-6.04,0-6.04Z"/>
      <path d="M92.45,100.71c-2.77,0-5.02-2.25-5.02-5.02s2.25-5.02,5.02-5.02,5.02,2.25,5.02,5.02-2.25,5.02-5.02,5.02ZM92.45,92.67c-3.99,0-3.99,6.04,0,6.04s3.99-6.04,0-6.04Z"/>
      <path d="M111.41,100.71c-2.77,0-5.02-2.25-5.02-5.02s2.25-5.02,5.02-5.02,5.02,2.25,5.02,5.02-2.25,5.02-5.02,5.02ZM111.41,92.67c-3.99,0-3.99,6.04,0,6.04s3.99-6.04,0-6.04Z"/>
    </g>
  </g>
  <path d="M91.65,36.96h-22.9c-1.32,0-1.32-2,0-2h22.9c1.32,0,1.32,2,0,2Z"/>
  <path d="M91.65,42.14h-22.9c-1.32,0-1.32-2,0-2h22.9c1.32,0,1.32,2,0,2Z"/>
  <path d="M99.06,34.84c-.55,0-1-.45-1-1v-5.7h-3.19v5.63c0,1.32-2,1.32-2,0v-6.63c0-.55.45-1,1-1h5.19c.55,0,1,.45,1,1,0,6.72.34,7.7-1,7.7Z"/>
  <path d="M126,126.94H2c-.55,0-1-.45-1-1v-19.96c0-.55.45-1,1-1h124c.55,0,1,.45,1,1v19.96c0,.55-.45,1-1,1ZM3,124.94h122v-17.96H3v17.96Z"/>
  <path d="M120.36,20.84c-4.89,0-6.15.34-6.15-1s1.36-1,5.15-1V5.53h-4.15c-1.32,0-1.32-2,0-2,4.89,0,6.15-.34,6.15,1v15.31c0,.55-.45,1-1,1Z"/>
  <path d="M77.6,20.84H7.64c-.55,0-1-.45-1-1V4.53c0-.55.45-1,1-1h69.96c1.32,0,1.32,2,0,2H8.64v13.31h68.96c1.32,0,1.32,2,0,2Z"/>
  <g>
    <path d="M62.21,56.32c-4.03,0-4.54.21-4.88-.62-4.1-10.11-4.23-9.94-3.8-10.57,3.33-4.83,3.24-4.98,3.95-4.98,1.32,0,2.76-.26,2.76,1s-1.31,1-2.23,1l-2.53,3.67,3.44,8.51h2.28v-10.66c0-1.32,2-1.32,2,0v11.66c0,.55-.45,1-1,1Z"/>
    <path d="M69.74,56.32c-3.51,0-4.95.35-4.95-1v-11.66c0-1.32,2-1.32,2,0v10.66h2.28l3.44-8.51-2.53-3.67h-1.23c-1.32,0-1.32-2,0-2,1.61,0,2.18-.15,2.58.43,3.32,4.83,3.5,4.82,3.23,5.49-4.07,10.05-3.87,10.25-4.83,10.25Z"/>
  </g>
  <path d="M115.21,23.31h-37.61c-.55,0-1-.45-1-1V2.06c0-.55.45-1,1-1h37.61c.55,0,1,.45,1,1v20.25c0,.55-.45,1-1,1ZM78.6,21.31h35.61V3.06h-35.61v18.25Z"/>
  <path d="M109.2,28.14h-25.59c-.55,0-1-.45-1-1,0-4.51-.33-5.83,1-5.83h25.59c.55,0,1,.45,1,1,0,4.51.33,5.83-1,5.83ZM84.61,26.14h23.59v-2.83h-23.59v2.83Z"/>
  <path d="M96.4,44.96c-3.53,0-6.41-2.88-6.41-6.41s2.88-6.41,6.41-6.41,6.41,2.88,6.41,6.41-2.88,6.41-6.41,6.41ZM96.4,34.14c-2.43,0-4.41,1.98-4.41,4.41s1.98,4.41,4.41,4.41,4.41-1.98,4.41-4.41-1.98-4.41-4.41-4.41Z"/>
  <path d="M64,44.96c-3.53,0-6.41-2.88-6.41-6.41s2.88-6.41,6.41-6.41,6.41,2.88,6.41,6.41-2.88,6.41-6.41,6.41ZM64,34.14c-2.43,0-4.41,1.98-4.41,4.41s1.98,4.41,4.41,4.41,4.41-1.98,4.41-4.41-1.98-4.41-4.41-4.41Z"/>
  <path d="M110.29,14.64h-27.64c-.55,0-1-.45-1-1v-4.29c0-.55.45-1,1-1h27.64c.55,0,1,.45,1,1v4.29c0,.55-.45,1-1,1ZM83.64,12.64h25.64v-2.29h-25.64v2.29Z"/>
  <path d="M126,23.31h-5.64c-.55,0-1-.45-1-1V2.06c0-.55.45-1,1-1h5.64c.55,0,1,.45,1,1v20.25c0,.55-.45,1-1,1ZM121.36,21.31h3.64V3.06h-3.64v18.25Z"/>
  <path d="M7.64,23.31H2c-.55,0-1-.45-1-1V2.06c0-.55.45-1,1-1h5.64c.55,0,1,.45,1,1v20.25c0,.55-.45,1-1,1ZM3,21.31h3.64V3.06h-3.64v18.25Z"/>
</svg>