<?xml version="1.0" encoding="UTF-8"?>
<svg id="Monitoring" xmlns="http://www.w3.org/2000/svg" viewBox="0 0 128 128">
  <g>
    <path d="M59.04,106.05c-1.27,0-.98-.63-1.58-9.6-.09-1.31,1.91-1.47,2-.13l.58,8.67c.04.58-.42,1.07-1,1.07Z"/>
    <path d="M41.24,106.05c-.58,0-1.04-.49-1-1.07l.58-8.67c.09-1.34,2.08-1.17,2,.13-.61,9.09-.33,9.6-1.58,9.6Z"/>
    <path d="M59.43,111.75h-18.58c-1.32,0-1.32-2,0-2h18.58c1.32,0,1.32,2,0,2Z"/>
    <path d="M68.14,111.75h-36c-.55,0-1-.45-1-1v-3.88c0-1.55,1.26-2.81,2.81-2.81h32.38c1.55,0,2.81,1.26,2.81,2.81v3.88c0,.55-.45,1-1,1ZM33.14,109.75h34v-2.88c0-1.26.02-.81-33.19-.81-1.14,0-.81,1.4-.81,3.69Z"/>
  </g>
  <path d="M108.57,67.97h-10.28c-1.32,0-1.32-2,0-2h10.28c4.96,0,9-4.04,9-9V3h-7v53.97c0,1.1-.9,2-2,2h-10.28c-1.32,0-1.32-2,0-2h10.28V2c0-.55.45-1,1-1h9c.55,0,1,.45,1,1v54.97c0,6.07-4.93,11-11,11Z"/>
  <g>
    <path d="M93.9,97.38H6.38c-2.97,0-5.38-2.42-5.38-5.39V31.99c0-2.97,2.42-5.39,5.38-5.39h87.51c2.97,0,5.39,2.42,5.39,5.39v60c0,2.97-2.42,5.39-5.39,5.39ZM6.38,28.6c-1.87,0-3.38,1.52-3.38,3.39v60c0,1.87,1.52,3.39,3.38,3.39h87.51c1.87,0,3.39-1.52,3.39-3.39V31.99c0-1.87-1.52-3.39-3.39-3.39H6.38Z"/>
    <path d="M92.87,81.67l.03-47.77c0-.48-.39-.87-.88-.87l-83.72-.04c-.48,0-.88.39-.88.87l-.03,47.81c0,1.32-2,1.32-2,0l.03-47.81c0-1.58,1.29-2.87,2.88-2.87l83.72.04c1.59,0,2.88,1.29,2.88,2.87l-.03,47.77c0,1.32-2,1.32-2,0Z"/>
    <path d="M93.9,97.38H6.38c-2.97,0-5.38-2.42-5.38-5.39v-10.32c0-.55.45-1,1-1h96.29c.55,0,1,.45,1,1v10.32c0,2.97-2.42,5.39-5.39,5.39ZM3,82.67v9.32c0,1.87,1.52,3.39,3.38,3.39h87.51c1.87,0,3.39-1.52,3.39-3.39v-9.32H3Z"/>
  </g>
  <path d="M126,126.69H2c-.55,0-1-.45-1-1v-14.94c0-.55.45-1,1-1h124c.55,0,1,.45,1,1v14.94c0,.55-.45,1-1,1ZM3,124.69h122v-12.94H3v12.94Z"/>
  <path d="M27.89,126.69c-22.52,0-22.51.43-22.51-1v-7.47c0-.55.45-1,1-1,22.52,0,22.51-.43,22.51,1v7.47c0,.55-.45,1-1,1ZM7.38,124.69h19.51v-5.47H7.38v5.47Z"/>
  <path d="M122.94,105.79h-21.24c-1.16,0-1-1.27-1-1.94,0-3.82,3.1-6.92,6.92-6.92h9.4c6.99,0,8.18,8.86,5.92,8.86ZM102.7,103.79h19.24c-.03-2.68-2.23-4.86-4.92-4.86h-9.4c-2.69,0-4.89,2.17-4.92,4.86Z"/>
  <path d="M98.49,121.92h-22.73c-.55,0-1-.45-1-1v-5.45c0-.55.45-1,1-1h22.73c.55,0,1,.45,1,1v5.45c0,.55-.45,1-1,1ZM76.76,119.92h20.73v-3.45h-20.73v3.45Z"/>
  <path d="M104.21,118.2c0-5.4,8.17-5.4,8.17,0s-8.17,5.42-8.17,0ZM108.29,116.14c-2.79,0-2.79,4.12,0,4.12s2.79-4.12,0-4.12Z"/>
  <path d="M126,111.75h-27.36c-1.33,0-1-1.35-1-5.14,0-1.56,1.27-2.82,2.82-2.82h23.71c1.56,0,2.82,1.27,2.82,2.82,0,3.74.35,5.14-1,5.14ZM99.64,109.75h25.36v-3.14c0-1.26-.08-.82-24.54-.82-1.15,0-.82,1.36-.82,3.96Z"/>
  <g>
    <path d="M49.26,82.62h-14.35c-1.32,0-1.32-2,0-2h13.26l-2.99-33.92c-.12-1.32,1.88-1.48,1.99-.18l3.09,35.01c.05.58-.4,1.09-1,1.09Z"/>
    <path d="M33.69,69.5c-.59,0-1.04-.5-1-1.08.96-12.38,1.13-14.61,1.69-21.92.1-1.32,2.1-1.17,1.99.15-1.75,22.86-1.37,22.84-2.69,22.84Z"/>
    <path d="M35.84,47.67c-1.21,0-2.19-.98-2.19-2.19,0-4.97-.04-4.09,12.16-4.09,1.21,0,2.19.98,2.19,2.19,0,5.16-.14,4.09-12.16,4.09ZM35.71,43.41c-.11.16-.08.99-.07,1.44.01.44-.06.82.2.82,9.44,0,10,.03,10.1-.01.14-.21.05-1.45.05-2.08,0-.31-10.19-.21-10.29-.17Z"/>
    <path d="M48.01,68.47c-14.9,0-14.53.15-14.97-.32-.4-.43-.33-.06.44-9.85.1-1.29.7-.92,13.74-.92,1.21,0,.96.4,1.8,10,.05.58-.41,1.09-1,1.09ZM34.85,66.47h12.07c-.21-2.41-.48-5.45-.62-7.09h-10.9c-.19,2.38-.4,5.23-.55,7.09Z"/>
  </g>
  <g>
    <path d="M34.91,82.67H15.55c-1.64,0-1.07.14,2.33-41.77.11-1.34,2.1-1.15,1.99.16-.17,2.12-2.47,30.21-3.24,39.61h17.18c-3.74-40.61-4.35-40.53-2.78-40.68.56-.05,1.04.35,1.09.9.04.4,3.78,40.53,3.78,40.77,0,.55-.45,1-1,1Z"/>
    <path d="M31.09,41.99h-12.08c-1.18,0-2.15-.96-2.15-2.15,0-5.29-.68-4.35,14.22-4.35,1.18,0,2.15.96,2.15,2.15,0,2.08.2,4.35-2.15,4.35ZM18.9,37.51c-.1.17-.07,1.04-.05,1.56.02.69-.04.92.16.92,4.03,0,8.36,1.36,12.19-.01.13-.22.04-1.61.04-2.34,0-.25-12.23-.17-12.33-.14Z"/>
    <path d="M33.09,63.01c-16.67,0-16.21.17-16.66-.32-.4-.43-.32-.12.41-8.98.1-1.26-.03-.92,15.49-.92,1.12,0,.95.21,1.77,9.13.05.59-.41,1.09-1,1.09ZM18.24,61.01h13.75c-.36-3.99-.27-3.02-.58-6.22h-12.66c-.17,2.09-.38,4.59-.51,6.22Z"/>
  </g>
  <path d="M84.93,46.98h-25.5c-1.34,0-1-1.2-1-6.29,0-.55.45-1,1-1h25.5c1.34,0,1,1.2,1,6.29,0,.55-.45,1-1,1ZM60.43,44.98h23.5v-3.29h-23.5v3.29Z"/>
  <g>
    <path d="M78.55,53h-19.12c-1.32,0-1.32-2,0-2h19.12c1.32,0,1.32,2,0,2Z"/>
    <path d="M86.55,57.86h-9.93c-1.32,0-1.32-2,0-2h9.93c1.32,0,1.32,2,0,2Z"/>
    <path d="M69.36,57.86h-9.93c-1.32,0-1.32-2,0-2h9.93c1.32,0,1.32,2,0,2Z"/>
    <path d="M76.62,62.71h-17.2c-1.32,0-1.32-2,0-2h17.2c1.32,0,1.32,2,0,2Z"/>
    <path d="M86.55,67.56h-27.12c-1.32,0-1.32-2,0-2h27.12c1.32,0,1.32,2,0,2Z"/>
    <path d="M86.55,72.41h-27.12c-1.32,0-1.32-2,0-2h27.12c1.32,0,1.32,2,0,2Z"/>
    <path d="M86.55,62.71c-3.36,0-4.82.35-4.82-1,0-.55.45-1,1-1h3.82c1.32,0,1.32,2,0,2Z"/>
  </g>
  <path d="M46.22,89.03c0-5.19,7.85-5.19,7.85,0s-7.85,5.2-7.85,0ZM50.14,87.13c-2.59,0-2.59,3.8,0,3.8s2.59-3.8,0-3.8Z"/>
</svg>