<?xml version="1.0" encoding="UTF-8"?>
<svg id="Oil_Thank" data-name="Oil Thank" xmlns="http://www.w3.org/2000/svg" viewBox="0 0 128 128">
  <path d="M112.22,98.97c-.55,0-1-.45-1-1,0-17.99.22-17.98-.39-17.98h-8.12c-1.32,0-1.32-2,0-2h8.12c1.32,0,2.39,1.07,2.39,2.39v16.59h4.77v-16.59c0-3.94-3.21-7.15-7.16-7.15h-8.12c-1.32,0-1.32-2,0-2h8.12c5.05,0,9.16,4.1,9.16,9.15v17.59c0,1.35-1,1-7.77,1Z"/>
  <path d="M121.7,105.09h-12.49c-.55,0-1-.45-1-1v-6.12c0-.55.45-1,1-1h12.49c.55,0,1,.45,1,1v6.12c0,.55-.45,1-1,1ZM110.21,103.09h10.49v-4.12h-10.49v4.12Z"/>
  <path d="M101.71,104.09V30.81c0-6.54-5.32-11.86-11.85-11.86H31.14c-6.53,0-11.85,5.32-11.85,11.86v73.28c0,1.32-2,1.32-2,0V30.81c0-7.64,6.21-13.86,13.85-13.86h58.72c7.64,0,13.85,6.22,13.85,13.86v73.28c0,1.32-2,1.32-2,0Z"/>
  <path d="M126,121.6H2c-.55,0-1-.45-1-1v-16.51c0-.55.45-1,1-1h124c.55,0,1,.45,1,1v16.51c0,.55-.45,1-1,1ZM3,119.6h122v-14.51H3v14.51Z"/>
  <path d="M102.71,34.81H18.29c-1.32,0-1.32-2,0-2h84.43c1.32,0,1.32,2,0,2Z"/>
  <path d="M46.14,105.09h-18.86c-.55,0-1-.45-1-1V33.81c0-.55.45-1,1-1h18.86c.55,0,1,.45,1,1v70.29c0,.55-.45,1-1,1ZM28.29,103.09h16.86V34.81h-16.86v68.29Z"/>
  <path d="M41.43,105.09h-9.43c-.55,0-1-.45-1-1V33.81c0-.55.45-1,1-1h9.43c.55,0,1,.45,1,1v70.29c0,.55-.45,1-1,1ZM33,103.09h7.43V34.81h-7.43v68.29Z"/>
  <g>
    <path d="M41.43,39.95h-9.43c-1.32,0-1.32-2,0-2h9.43c1.32,0,1.32,2,0,2Z"/>
    <path d="M41.43,45.95h-9.43c-1.32,0-1.32-2,0-2h9.43c1.32,0,1.32,2,0,2Z"/>
    <path d="M41.43,51.95h-9.43c-1.32,0-1.32-2,0-2h9.43c1.32,0,1.32,2,0,2Z"/>
    <path d="M41.43,57.95h-9.43c-1.32,0-1.32-2,0-2h9.43c1.32,0,1.32,2,0,2Z"/>
    <path d="M41.43,63.95h-9.43c-1.32,0-1.32-2,0-2h9.43c1.32,0,1.32,2,0,2Z"/>
    <path d="M41.43,69.95h-9.43c-1.32,0-1.32-2,0-2h9.43c1.32,0,1.32,2,0,2Z"/>
    <path d="M41.43,75.95h-9.43c-1.32,0-1.32-2,0-2h9.43c1.32,0,1.32,2,0,2Z"/>
    <path d="M41.43,81.95h-9.43c-1.32,0-1.32-2,0-2h9.43c1.32,0,1.32,2,0,2Z"/>
    <path d="M41.43,87.95h-9.43c-1.32,0-1.32-2,0-2h9.43c1.32,0,1.32,2,0,2Z"/>
    <path d="M41.43,93.95h-9.43c-1.32,0-1.32-2,0-2h9.43c1.32,0,1.32,2,0,2Z"/>
    <path d="M41.43,99.95h-9.43c-1.32,0-1.32-2,0-2h9.43c1.32,0,1.32,2,0,2Z"/>
  </g>
  <path d="M89.43,18.95H31.57c-1.34,0-1-1.3-1-5.52,0-1.47,1.19-2.66,2.66-2.66h54.54c1.47,0,2.66,1.19,2.66,2.66,0,4.16.35,5.52-1,5.52ZM32.57,16.95h55.86v-3.52c0-1.14-.07-.66-55.2-.66-.89,0-.66.82-.66,4.18Z"/>
  <path d="M96.07,100.81h-19.93c-.55,0-1-.45-1-1,0-6.86-.34-7.86,1-7.86h19.93c.55,0,1,.45,1,1,0,6.86.34,7.86-1,7.86ZM77.14,98.81h17.93v-4.86h-17.93v4.86Z"/>
  <path d="M18.29,105.09H2c-.55,0-1-.45-1-1v-19.93c0-2.91,2.37-5.29,5.29-5.29h12c.55,0,1,.45,1,1v24.21c0,.55-.45,1-1,1ZM3,103.09h14.29v-22.21H6.29c-1.81,0-3.29,1.47-3.29,3.29v18.93Z"/>
  <path d="M76.14,77.88c-9.65,0-17.5-7.85-17.5-17.5s7.85-17.5,17.5-17.5,17.5,7.85,17.5,17.5-7.85,17.5-17.5,17.5ZM76.14,44.88c-8.55,0-15.5,6.95-15.5,15.5s6.95,15.5,15.5,15.5,15.5-6.95,15.5-15.5-6.95-15.5-15.5-15.5Z"/>
  <path d="M67.91,63.25c-.9-4.75,2.02-11.64,7.82-14.33,2.1-.97,10.11,6.67,8.66,14.33-1.69,8.92-14.78,8.92-16.47,0ZM76.14,50.94c-7.8,4.07-9.14,17.01,0,17.01,2.45,0,5.56-1.33,6.27-5.07h0c.72-3.81-1.67-9.53-6.27-11.94Z"/>
  <g>
    <path d="M34.54,12.77c-1.35,0-1-1.38-1-5.38,0-1.32,2-1.32,2,0,0,4.03.32,5.38-1,5.38Z"/>
    <path d="M86.46,12.77c-1.35,0-1-1.38-1-5.38,0-1.32,2-1.32,2,0,0,4.03.32,5.38-1,5.38Z"/>
  </g>
  <path d="M89.43,8.4H31.57c-1.32,0-1.32-2,0-2h57.86c1.32,0,1.32,2,0,2Z"/>
</svg>