<?xml version="1.0" encoding="UTF-8"?>
<svg id="Pipeline" xmlns="http://www.w3.org/2000/svg" viewBox="0 0 128 128">
  <path d="M68.29,76.52h-18.64c-4.3,0-4.3-6.5,0-6.5h18.64c4.3,0,4.3,6.5,0,6.5ZM49.65,72.02c-1.65,0-1.65,2.5,0,2.5h18.64c1.65,0,1.65-2.5,0-2.5h-18.64Z"/>
  <path d="M57.97,76.8v-7.07c0-1.32,2-1.32,2,0v7.07c0,1.32-2,1.32-2,0Z"/>
  <path d="M44.08,82.95h-4.42c-6.9,0-12.52-5.62-12.52-12.52v-8.45c0-1.32,2-1.32,2,0v8.45c0,5.8,4.72,10.52,10.52,10.52h4.42c1.32,0,1.32,2,0,2Z"/>
  <path d="M44.08,94.95h-4.42c-13.52,0-24.52-11-24.52-24.52v-8.45c0-1.32,2-1.32,2,0v8.45c0,12.42,10.1,22.52,22.52,22.52h4.42c1.32,0,1.32,2,0,2Z"/>
  <path d="M90.39,82.95h-16.52c-1.32,0-1.32-2,0-2h16.52c1.32,0,1.32,2,0,2Z"/>
  <path d="M90.39,94.95h-16.52c-1.32,0-1.32-2,0-2h16.52c1.32,0,1.32,2,0,2Z"/>
  <path d="M121.11,82.95h-25.87c-1.32,0-1.32-2,0-2h25.87c1.32,0,1.32,2,0,2Z"/>
  <path d="M121.11,94.95h-25.87c-1.32,0-1.32-2,0-2h25.87c1.32,0,1.32,2,0,2Z"/>
  <path d="M27.14,57.13v-9.26c0-.55.45-1,1-1h20.19c1.32,0,1.32,2,0,2h-19.19v8.26c0,1.32-2,1.32-2,0Z"/>
  <path d="M15.14,57.13v-8.26H6.89c-1.32,0-1.32-2,0-2h9.25c.55,0,1,.45,1,1v9.26c0,1.32-2,1.32-2,0Z"/>
  <path d="M48.33,36.87H6.89c-1.32,0-1.32-2,0-2h41.44c1.32,0,1.32,2,0,2Z"/>
  <path d="M72.25,48.87h-19.08c-1.32,0-1.32-2,0-2h19.08c1.32,0,1.32,2,0,2Z"/>
  <path d="M121.11,48.87h-19.07c-1.32,0-1.32-2,0-2h19.07c1.32,0,1.32,2,0,2Z"/>
  <path d="M72.25,36.87h-19.08c-1.32,0-1.32-2,0-2h19.08c1.32,0,1.32,2,0,2Z"/>
  <path d="M121.11,36.87h-19.07c-1.32,0-1.32-2,0-2h19.07c1.32,0,1.32,2,0,2Z"/>
  <path d="M27.71,63.02h-11.14c-4.58,0-4.58-6.93,0-6.93h11.14c4.58,0,4.58,6.93,0,6.93ZM16.57,58.09c-1.94,0-1.94,2.93,0,2.93h11.14c1.94,0,1.94-2.93,0-2.93h-11.14Z"/>
  <path d="M120.07,93.52v-11.14c0-4.58,6.93-4.58,6.93,0v11.14c0,4.58-6.93,4.58-6.93,0ZM122.07,82.38v11.14c0,1.94,2.93,1.94,2.93,0v-11.14c0-1.94-2.93-1.94-2.93,0Z"/>
  <path d="M120.07,47.45v-11.14c0-4.58,6.93-4.58,6.93,0v11.14c0,4.59-6.93,4.59-6.93,0ZM122.07,36.3v11.14c0,1.94,2.93,1.94,2.93,0v-11.14c0-1.94-2.93-1.94-2.93,0Z"/>
  <path d="M47.29,47.45v-11.14c0-4.58,6.93-4.58,6.93,0v11.14c0,4.59-6.93,4.59-6.93,0ZM49.29,36.3v11.14c0,1.94,2.93,1.94,2.93,0v-11.14c0-1.94-2.93-1.94-2.93,0Z"/>
  <path d="M1,47.45v-11.14c0-4.58,6.93-4.58,6.93,0v11.14c0,4.59-6.93,4.59-6.93,0ZM3,36.3v11.14c0,1.94,2.93,1.94,2.93,0v-11.14c0-1.94-2.93-1.94-2.93,0Z"/>
  <path d="M89.35,93.52v-11.14c0-4.58,6.93-4.58,6.93,0v11.14c0,4.58-6.93,4.58-6.93,0ZM91.35,82.38v11.14c0,1.94,2.93,1.94,2.93,0v-11.14c0-1.94-2.93-1.94-2.93,0Z"/>
  <path d="M99.96,50.91h-7.11c-1.32,0-1.32-2,0-2h7.11c.6,0,1.08-.48,1.08-1.07v-11.93c0-.59-.48-1.07-1.08-1.07h-7.11c-1.32,0-1.32-2,0-2h7.11c1.7,0,3.08,1.38,3.08,3.07v11.93c0,1.69-1.38,3.07-3.08,3.07Z"/>
  <path d="M81.45,50.91h-7.13c-1.69,0-3.07-1.38-3.07-3.07v-11.93c0-1.69,1.38-3.07,3.07-3.07h7.13c1.32,0,1.32,2,0,2h-7.13c-.59,0-1.07.48-1.07,1.07v11.93c0,.59.48,1.07,1.07,1.07h7.13c1.32,0,1.32,2,0,2Z"/>
  <path d="M71.79,96.98h-25.64c-1.69,0-3.07-1.38-3.07-3.07v-11.93c0-1.69,1.38-3.07,3.07-3.07h25.64c1.69,0,3.07,1.38,3.07,3.07v11.93c0,1.69-1.38,3.07-3.07,3.07ZM46.15,80.91c-.59,0-1.07.48-1.07,1.07v11.93c0,.59.48,1.07,1.07,1.07h25.64c.59,0,1.07-.48,1.07-1.07v-11.93c0-.59-.48-1.07-1.07-1.07h-25.64Z"/>
  <path d="M87.14,52.73c-5.99,0-10.86-4.87-10.86-10.86s4.87-10.86,10.86-10.86,10.86,4.87,10.86,10.86-4.87,10.86-10.86,10.86ZM87.14,33.02c-4.88,0-8.86,3.97-8.86,8.86s3.97,8.86,8.86,8.86,8.86-3.97,8.86-8.86-3.97-8.86-8.86-8.86Z"/>
  <path d="M87.14,47.95c-3.35,0-6.07-2.72-6.07-6.07s2.72-6.07,6.07-6.07,6.07,2.72,6.07,6.07-2.72,6.07-6.07,6.07ZM87.14,37.8c-2.25,0-4.07,1.83-4.07,4.07s1.83,4.07,4.07,4.07,4.07-1.83,4.07-4.07-1.83-4.07-4.07-4.07Z"/>
  <path d="M87.14,37.8c-.55,0-1-.45-1-1v-4.79c0-1.32,2-1.32,2,0,0,4.49.32,5.79-1,5.79Z"/>
  <path d="M91.03,45.28c-1.14-.66-.14-2.39,1-1.73,3.87,2.24,5.17,2.61,4.5,3.77-.7,1.2-1.79.12-5.51-2.04Z"/>
  <path d="M78.59,47.77c-1.02,0-1.39-1.36-.5-1.87,3.89-2.23,4.86-3.15,5.52-2,.27.48.11,1.09-.37,1.36-4.44,2.54-4.27,2.51-4.65,2.51Z"/>
  <path d="M62.27,80.91h-6.59c-.55,0-1-.45-1-1,0-4.04-.32-5.39,1-5.39h6.59c.55,0,1,.45,1,1,0,4.04.32,5.39-1,5.39ZM56.68,78.91h4.59v-2.39h-4.59v2.39Z"/>
</svg>