<?xml version="1.0" encoding="UTF-8"?>
<svg id="Polution" xmlns="http://www.w3.org/2000/svg" viewBox="0 0 128 128">
  <g>
    <path d="M1.96,123.12c-.58,0-1.04-.49-1-1.08.05-.71,6.41-85.57,6.9-92.1.1-1.32,2.09-1.17,1.99.15C2.85,122.97,3.5,123.12,1.96,123.12Z"/>
    <path d="M29.56,116.93c-1.48,0-.86.05-7.43-86.83-.1-1.32,1.89-1.45,1.99-.15.71,9.35,6.28,83.81,6.43,85.91.04.58-.41,1.07-1,1.07Z"/>
    <path d="M25.89,67.75H6.11c-1.48,0-1.02-.71.29-18.19.1-1.32.28-.92,18.21-.92,1.31,0,.94.18,2.28,18.04.04.58-.42,1.08-1,1.08ZM7.18,65.75h17.63l-1.13-15.12h-15.36l-1.13,15.12Z"/>
    <path d="M29.56,116.93H2.43c-1.5,0-.99-1.15.02-14.8,1.05-14.29.83-14.59,2.04-14.59,24.05,0,23.91-.4,24.02.92,2.3,29.27,2.45,28.47,1.06,28.47ZM3.5,114.93h24.98c-.6-8.01-1.63-21.73-1.91-25.39H5.4c-.31,3.8-1.49,19.92-1.9,25.39Z"/>
    <g>
      <path d="M47.73,59.27c-.58,0-1.04-.5-1-1.07l1.34-17.95c.1-1.33,2.09-1.16,1.99.15-1.4,18.7-1.01,18.88-2.34,18.88Z"/>
      <path d="M62.8,59.27c-1.31,0-.93-.07-2.34-18.88-.1-1.31,1.9-1.48,1.99-.15l1.34,17.95c.04.58-.42,1.07-1,1.07Z"/>
    </g>
    <path d="M15.32,23.32c-3.64,0-4.86-4.17-2.67-6.38-.54-2.16.56-4.38,2.6-5.27.38-1.29,1.37-2.31,2.65-2.71,1.44-4.39,7.19-5.52,10.18-2.04,2.22-1,4.82-.77,6.83.58,2.24-2.09,5.96-1.39,7.24,1.48.82.2,1.59.54,2.28,1,2.79-2.63,7.66-.72,7.66,3.35,0,2.6-2.21,4.73-4.84,4.54-1.71,5.87-9.75,6.78-12.79,1.59-1.62.92-3.55,1.17-5.37.66-2.69,2.63-7.03,2.06-9.05-.85-.29.25-.61.47-.96.64-.13,2.1-1.82,3.4-3.76,3.4ZM23.58,6.88c-1.76,0-3.47,1.14-3.9,3.13-.09.41-.43.72-.84.78-.91.12-1.62.84-1.73,1.75-.15,1.18-1.57.55-2.35,2.21-.82,1.74.8,2.57-.39,3.35-1.13.74-1.04,2.44.03,3,1.12.59,2.89.04,2.67-1.73-.16-1.36,1.41-.72,2.27-2.37.4-.78,1.55-.7,1.83.13,1.02,2.95,4.87,3.63,6.84,1.21.27-.34.74-.46,1.14-.3,1.71.66,3.65.35,5.06-.83.53-.44,1.33-.23,1.58.41,1.84,4.82,8.94,4.08,9.7-1.05.09-.6.7-.99,1.29-.81,1.75.54,3.31-.79,3.31-2.43,0-2.52-3.28-3.52-4.69-1.42-.34.5-1.05.6-1.5.18-1.83-1.67-3.11-.81-3.45-1.97-.61-2.11-3.37-2.5-4.57-.71-.34.51-1.05.6-1.5.18-1.69-1.54-4.12-1.76-6.05-.56-1.6,1-1.35-2.18-4.73-2.18Z"/>
    <path d="M52.12,30.37c-3.08,0-4.16-3.49-2.37-5.41-.4-1.79.52-3.58,2.16-4.34.33-1.03,1.13-1.85,2.15-2.21,1.25-3.59,5.93-4.49,8.44-1.73,1.79-.77,3.82-.6,5.46.46,1.89-1.63,4.91-1.05,6.01,1.28.6.15,1.17.4,1.69.73,2.4-2.09,6.41-.46,6.41,2.95,0,2.12-1.75,3.95-3.97,3.87-1.49,4.71-7.96,5.48-10.56,1.34-1.29.68-2.8.86-4.22.49-2.24,2.1-5.71,1.62-7.41-.62-.17.14-.36.26-.56.36-.16,1.75-1.6,2.82-3.23,2.82ZM58.81,17.06c-1.34,0-2.64.87-2.97,2.38-.25,1.18-1.88.42-2.08,2.04-.14,1.13-1.31.55-1.92,1.85-.61,1.29.7,2.07-.38,2.78-.79.52-.73,1.71,0,2.1.82.43,2.04.02,1.89-1.21-.15-1.26,1.21-.78,1.85-2.03.42-.81,1.55-.67,1.83.13.78,2.25,3.72,2.76,5.21.92.93-1.14,2.57,1.12,5.04-.94.51-.43,1.33-.24,1.58.41,1.42,3.72,6.9,3.15,7.48-.81.09-.6.69-.99,1.29-.81,1.29.41,2.44-.59,2.44-1.78,0-1.85-2.41-2.58-3.44-1.04-.31.47-1.01.63-1.5.18-1.45-1.32-2.53-.59-2.84-1.68-.45-1.54-2.47-1.85-3.36-.52-.33.5-1.04.61-1.5.18-1.3-1.19-3.18-1.36-4.67-.43-1.47.9-1.29-1.74-3.93-1.74Z"/>
    <path d="M24.39,31.02H7.6c-.55,0-1-.45-1-1v-4.43c0-.55.45-1,1-1h16.78c.55,0,1,.45,1,1v4.43c0,.55-.45,1-1,1ZM8.6,29.02h14.78v-2.43h-14.78v2.43Z"/>
    <path d="M85.04,41.37c-.58,0-1.04-.5-1-1.08l.78-10.35c.1-1.33,2.09-1.16,1.99.15-.81,10.76-.51,11.28-1.78,11.28Z"/>
    <path d="M100.86,41.37c-1.27,0-.96-.39-1.78-11.28-.1-1.33,1.9-1.45,1.99-.15l.78,10.35c.04.58-.41,1.08-1,1.08Z"/>
    <path d="M90.27,23.32c-3.64,0-4.86-4.18-2.67-6.38-.55-2.18.58-4.39,2.6-5.27.38-1.29,1.37-2.31,2.65-2.71,1.44-4.4,7.2-5.51,10.18-2.04,2.24-1.02,4.81-.8,6.83.58,2.25-2.09,5.96-1.38,7.24,1.49.82.2,1.59.54,2.28,1,2.8-2.63,7.66-.72,7.66,3.35,0,2.61-2.21,4.73-4.84,4.54-1.71,5.87-9.75,6.78-12.79,1.59-1.62.92-3.55,1.17-5.37.66-2.67,2.6-7,2.09-9.05-.85-.29.25-.61.47-.96.64-.13,2.1-1.82,3.4-3.76,3.4ZM98.54,6.88c-1.76,0-3.47,1.14-3.9,3.13-.09.41-.43.72-.84.78-.91.12-1.62.84-1.73,1.75-.15,1.18-1.57.55-2.35,2.21-.82,1.73.8,2.57-.39,3.35-1.12.73-1.04,2.44.03,3,1.12.59,2.89.04,2.67-1.73-.16-1.36,1.41-.72,2.26-2.37.42-.81,1.56-.67,1.83.13,1.02,2.95,4.87,3.64,6.84,1.21.28-.34.74-.45,1.14-.3,1.71.67,3.65.35,5.06-.83.53-.44,1.33-.23,1.58.41,1.84,4.82,8.94,4.08,9.7-1.05.09-.61.71-.99,1.29-.81,1.76.55,3.32-.8,3.32-2.43,0-2.52-3.28-3.52-4.69-1.42-.34.5-1.04.6-1.5.18-1.83-1.67-3.11-.81-3.45-1.97-.61-2.1-3.36-2.51-4.57-.71-.31.46-1.01.63-1.5.18-1.69-1.54-4.12-1.76-6.06-.56-1.56.97-1.38-2.18-4.73-2.18Z"/>
    <path d="M101.34,31.02h-16.78c-.55,0-1-.45-1-1v-4.43c0-.55.45-1,1-1h16.78c.55,0,1,.45,1,1v4.43c0,.55-.45,1-1,1ZM85.56,29.02h14.78v-2.43h-14.78v2.43Z"/>
    <path d="M63.08,41.32h-15.62c-.55,0-1-.45-1-1v-4.43c0-.55.45-1,1-1h15.62c.55,0,1,.45,1,1v4.43c0,.55-.45,1-1,1ZM48.46,39.32h13.62v-2.43h-13.62v2.43Z"/>
  </g>
  <path d="M126,123.12H1.96c-1.34,0-1-1.06-1-7.19,0-.55.45-1,1-1h124.04c1.34,0,1,1.06,1,7.19,0,.55-.45,1-1,1ZM2.96,121.12h122.04v-4.19H2.96v4.19Z"/>
  <g>
    <path d="M72.92,100.31c6.69-21.96,6.79-32.38,7.68-53.7.06-1.31,2.05-1.24,2,.09-.87,20.9-.99,31.95-7.76,54.2-.39,1.26-2.3.68-1.91-.58Z"/>
    <path d="M68.86,116.93c-1.32,0-1.32-2,0-2h55.35c-9.6-29.4-10.85-33.34-12.35-68.23-.06-1.32,1.94-1.41,2-.09,1.5,34.77,2.53,37.92,12.38,68.08.26.81.54,1.3.16,1.82-.47.64,0,.41-57.54.41Z"/>
    <path d="M111.7,47.89h-28.94c-5.39,0-5.3-8.51,0-8.51h28.94c5.4,0,5.3,8.51,0,8.51ZM82.76,41.38c-2.62,0-2.77,4.51,0,4.51h28.94c2.62,0,2.77-4.51,0-4.51h-28.94Z"/>
    <path d="M114.29,72.09h-34.11c-.59,0-1.06-.52-.99-1.11,1.39-12.26.23-13.71,1.91-13.71h32.27c1.68,0,.53,1.44,1.92,13.71.07.6-.4,1.11-.99,1.11ZM81.29,70.09h31.88c-.44-4.11-.61-7.21-.77-10.82h-30.35c-.14,3.27-.3,6.5-.76,10.82Z"/>
    <path d="M120.37,100.9c-47.77,0-47.83.59-47.23-1.3,1.81-5.68,3.3-11.6,4.41-17.59.24-1.27,0-.82,38.38-.82,1.86,0,.35,2.63,5.39,18.41.21.64-.28,1.3-.95,1.3ZM75.46,98.9h43.55c-1.57-5.1-2.88-10.38-3.9-15.71h-35.74c-1.02,5.34-2.33,10.61-3.9,15.71Z"/>
  </g>
  <g>
    <path d="M78.81,116.93c-45.26,0-44.81.23-45.28-.41-.4-.55-.21-.7,1-4.37,6.3-19.19,7.61-23.18,8.73-49.06.06-1.3,2.06-1.25,2,.09-1.18,27.06-2.55,30.44-9.54,51.76h41.71c-7.33-22.44-8.4-25.68-9.53-51.77-.06-1.31,1.94-1.43,2-.09,1.14,26.26,2.21,29.1,9.86,52.54.21.65-.27,1.31-.95,1.31Z"/>
    <path d="M67.81,64.37h-22.47c-4.67,0-4.54-7.11,0-7.11h22.47c4.67,0,4.54,7.11,0,7.11ZM45.34,59.27c-1.9,0-2.01,3.11,0,3.11h22.47c1.9,0,2.01-3.11,0-3.11h-22.47Z"/>
    <path d="M69.95,81.78h-26.74c-.29,0-.56-.12-.75-.33-.58-.65.01-.14.46-10.76.02-.54.46-.96,1-.96h25.29c1.58,0,.62,1.2,1.72,10.94.07.6-.4,1.11-.99,1.11ZM44.33,79.78h24.51c-.32-3.03-.45-5.38-.57-8.05h-23.38c-.11,2.44-.23,4.87-.56,8.05Z"/>
    <path d="M74.72,104.37h-36.27c-2.31,0,.14-2.38,2.49-15.07.24-1.27.04-.82,30.3-.82,1.72,0,.46,2.13,4.43,14.58.21.64-.28,1.3-.95,1.3ZM39.8,102.37h33.55c-1.18-3.86-2.17-7.85-2.95-11.88h-27.66c-.78,4.03-1.77,8.02-2.95,11.88Z"/>
  </g>
</svg>