<?xml version="1.0" encoding="UTF-8"?>
<svg id="Press_Machine" data-name="Press Machine" xmlns="http://www.w3.org/2000/svg" viewBox="0 0 128 128">
  <path d="M118.62,102.21H9.38c-.55,0-1-.45-1-1v-10.21c0-.55.45-1,1-1h109.25c.55,0,1,.45,1,1v10.21c0,.55-.45,1-1,1ZM10.38,100.21h107.25v-8.21H10.38v8.21Z"/>
  <g>
    <g>
      <path d="M58.78,102.21c-8.76,0-8.49.12-8.9-.29-13.68-13.68-13.89-11.92-1.3-11.92.61,0,.2-.21,10.92,10.5.63.63.18,1.71-.71,1.71ZM50.99,100.21h5.37l-8.21-8.21h-5.37l8.21,8.21Z"/>
      <path d="M35.72,102.21c-8.76,0-8.49.12-8.9-.29-13.68-13.68-13.89-11.92-1.3-11.92.61,0,.2-.21,10.92,10.5.63.63.18,1.71-.71,1.71ZM27.94,100.21h5.37l-8.21-8.21h-5.37l8.21,8.21Z"/>
    </g>
    <g>
      <path d="M77.42,102.21c-12.61,0-12.29,1.68,1.3-11.92.41-.41.12-.29,8.9-.29.89,0,1.34,1.08.71,1.71-10.68,10.68-10.3,10.5-10.92,10.5ZM71.64,100.21h5.37l8.21-8.21h-5.37l-8.21,8.21Z"/>
      <path d="M100.48,102.21c-12.61,0-12.29,1.68,1.3-11.92.41-.41.12-.29,8.9-.29.89,0,1.34,1.08.71,1.71-10.66,10.66-10.28,10.5-10.92,10.5ZM94.69,100.21h5.37l8.21-8.21h-5.37l-8.21,8.21Z"/>
    </g>
  </g>
  <path d="M118.62,127H9.38c-.55,0-1-.45-1-1v-24.79c0-.55.45-1,1-1h109.25c.55,0,1,.45,1,1v24.79c0,.55-.45,1-1,1ZM10.38,125h107.25v-22.79H10.38v22.79Z"/>
  <path d="M90.7,127h-53.4c-.55,0-1-.45-1-1v-12.39c0-.55.45-1,1-1h53.4c.55,0,1,.45,1,1v12.39c0,.55-.45,1-1,1ZM38.3,125h51.4v-10.39h-51.4v10.39Z"/>
  <g>
    <path d="M118.62,60.36H9.38c-.55,0-1-.45-1-1v-10.21c0-.55.45-1,1-1h109.25c.55,0,1,.45,1,1v10.21c0,.55-.45,1-1,1ZM10.38,58.36h107.25v-8.21H10.38v8.21Z"/>
    <g>
      <path d="M87.63,60.36c-8.76,0-8.49.12-8.9-.29-13.68-13.68-13.89-11.92-1.3-11.92.61,0,.2-.21,10.92,10.5.63.63.18,1.71-.71,1.71ZM79.85,58.36h5.37l-8.21-8.21h-5.37l8.21,8.21Z"/>
      <path d="M110.69,60.36c-8.76,0-8.49.12-8.9-.29-13.68-13.68-13.89-11.92-1.3-11.92.61,0,.2-.21,10.92,10.5.63.63.18,1.71-.71,1.71ZM102.9,58.36h5.37l-8.21-8.21h-5.37l8.21,8.21Z"/>
    </g>
    <g>
      <path d="M48.57,60.36c-12.61,0-12.29,1.68,1.3-11.92.41-.41.12-.29,8.9-.29.89,0,1.34,1.08.71,1.71-10.68,10.68-10.3,10.5-10.92,10.5ZM42.78,58.36h5.37l8.21-8.21h-5.37l-8.21,8.21Z"/>
      <path d="M25.51,60.36c-12.61,0-12.29,1.68,1.3-11.92.41-.41.12-.29,8.9-.29.89,0,1.34,1.08.71,1.71-10.68,10.68-10.3,10.5-10.92,10.5ZM19.73,58.36h5.37l8.21-8.21h-5.37l-8.21,8.21Z"/>
    </g>
  </g>
  <g>
    <path d="M108.01,45.46c-5.39,0-6.58.34-6.58-1v-16.69c0-.55.45-1,1-1,5.39,0,6.58-.34,6.58,1v16.69c0,.55-.45,1-1,1ZM103.43,43.46h3.58v-14.69h-3.58v14.69Z"/>
    <path d="M110.7,50.15h-10.96c-.55,0-1-.45-1-1,0-4.39-.32-5.69,1-5.69h10.96c.55,0,1,.45,1,1,0,4.39.32,5.69-1,5.69ZM100.74,48.15h8.96v-2.69h-8.96v2.69Z"/>
  </g>
  <g>
    <path d="M25.57,45.46c-5.39,0-6.58.34-6.58-1v-16.69c0-.55.45-1,1-1,5.39,0,6.58-.34,6.58,1v16.69c0,.55-.45,1-1,1ZM20.99,43.46h3.58v-14.69h-3.58v14.69Z"/>
    <path d="M28.26,50.15h-10.96c-.55,0-1-.45-1-1,0-4.39-.32-5.69,1-5.69h10.96c.55,0,1,.45,1,1,0,4.39.32,5.69-1,5.69ZM18.3,48.15h8.96v-2.69h-8.96v2.69Z"/>
  </g>
  <path d="M118.62,23.2H9.38c-.55,0-1-.45-1-1V2c0-.55.45-1,1-1h109.25c.55,0,1,.45,1,1v20.2c0,.55-.45,1-1,1ZM10.38,21.2h107.25V3H10.38v18.2Z"/>
  <path d="M30.44,28.78h-15.32c-1.89,0-3.42-1.53-3.42-3.42v-3.16c0-.55.45-1,1-1h20.16c.55,0,1,.45,1,1v3.16c0,1.89-1.53,3.42-3.42,3.42ZM13.69,23.2v2.16c0,.78.64,1.42,1.42,1.42h15.32c.78,0,1.42-.64,1.42-1.42v-2.16H13.69Z"/>
  <path d="M112.89,28.78h-15.32c-1.89,0-3.42-1.53-3.42-3.42v-3.16c0-.55.45-1,1-1h20.16c.55,0,1,.45,1,1v3.16c0,1.89-1.53,3.42-3.42,3.42ZM96.14,23.2v2.16c0,.78.64,1.42,1.42,1.42h15.32c.78,0,1.42-.64,1.42-1.42v-2.16h-18.16Z"/>
  <path d="M82.36,65.96h-36.72c-1.74,0-3.15-1.41-3.15-3.15v-3.43c0-.55.45-1,1-1h41.02c.55,0,1,.45,1,1v3.43c0,1.74-1.41,3.15-3.15,3.15ZM44.49,60.38v2.43c0,.63.52,1.15,1.15,1.15h36.72c1.47,0,1.15-1.69,1.15-3.58h-39.02Z"/>
  <path d="M77.85,71.54h-27.7c-2.07,0-3.75-1.68-3.75-3.75v-2.83c0-.55.45-1,1-1h33.2c.55,0,1,.45,1,1v2.83c0,2.07-1.68,3.75-3.75,3.75ZM48.4,65.96v1.83c0,.96.79,1.75,1.75,1.75h27.7c.96,0,1.75-.79,1.75-1.75v-1.83h-31.2Z"/>
  <path d="M78.51,92.03h-29.02c-.55,0-1-.45-1-1v-20.49c0-.55.45-1,1-1h29.02c.55,0,1,.45,1,1v20.49c0,.55-.45,1-1,1ZM50.49,90.03h27.02v-18.49h-27.02v18.49Z"/>
  <path d="M9.38,17.18c-.55,0-1-.45-1-1V7.82c0-1.34,1.12-1,6.91-1,.55,0,1,.45,1,1v8.36c0,1.34-1.12,1-6.91,1ZM10.38,15.18h3.91v-6.36h-3.91v6.36Z"/>
  <path d="M112.35,17.18c-.55,0-1-.45-1-1V7.82c0-1.34,1.12-1,6.91-1,.55,0,1,.45,1,1v8.36c0,1.34-1.12,1-6.91,1ZM113.35,15.18h3.91v-6.36h-3.91v6.36Z"/>
</svg>