<?xml version="1.0" encoding="UTF-8"?>
<svg id="Product_Import" data-name="Product Import" xmlns="http://www.w3.org/2000/svg" viewBox="0 0 128 128">
  <g>
    <path d="M109.71,81.75c5.31-11.65,5.52-25.11.58-36.91-.51-1.22,1.34-1.99,1.84-.77,5.16,12.31,4.94,26.35-.6,38.51-.55,1.2-2.37.37-1.82-.83Z"/>
    <path d="M38.02,100.67c-1.04-.81.19-2.39,1.23-1.58,14.3,11.17,33.92,12.9,49.97,4.4,1.17-.62,2.1,1.15.94,1.77-16.74,8.87-37.21,7.07-52.13-4.6Z"/>
    <path d="M26.6,87.93C3.55,50.72,38.94,2.04,83.57,17.13h0c4.85,1.72,9.19,4.26,10.5,5.21,2.36,1.33,5.74,4.43,7.7,6.27.97.9-.4,2.36-1.37,1.46-6.67-6.25-14.01-11.09-24.99-12.98C37.29,9.75,7.18,52.78,28.3,86.87c.7,1.13-1.01,2.16-1.7,1.05Z"/>
    <path d="M42.78,44.1c-1.04,0-7.83-4.94-12.5-10.67-.84-1.02.71-2.29,1.55-1.27,7.78,9.52,13.02,9.5,11.81,11.46-.19.3-.52.47-.85.47Z"/>
    <path d="M79.18,49.74c-1.17,0-1.38-1.68-.24-1.97,9.76-2.45,13.97-6.58,14.95-6.58,1.04,0,1.39,1.39.48,1.88-7,4.69-14.55,6.67-15.19,6.67Z"/>
    <path d="M88.95,47.4c-1.97-12.45-9.28-30.97-21.32-30.97-8.32,0-15.96,9.4-19.93,24.53-.34,1.28-2.27.77-1.93-.51,10.03-38.17,38.89-32.94,45.17,6.63.21,1.31-1.77,1.62-1.98.31Z"/>
    <path d="M45.71,81.12c-.47,0-.88-.33-.98-.8-1.5-7.44-2.02-15.57-1.52-23.53.08-1.3,2.08-1.2,2,.13-1.2,18.96,3.35,24.21.5,24.21Z"/>
    <path d="M67.63,110.83c-6.88,0-13.23-5.33-17.88-15.01-.57-1.19,1.23-2.06,1.8-.87,4.24,8.82,10.1,13.87,16.08,13.87,14.02,0,21.12-23.72,22.29-38.68.1-1.31,2.1-1.17,1.99.16-1.28,16.29-8.81,40.52-24.29,40.52Z"/>
    <path d="M114.84,63.63h-16.41c-1.32,0-1.32-2,0-2h16.41c1.32,0,1.32,2,0,2Z"/>
    <path d="M52.07,63.63h-31.64c-1.32,0-1.32-2,0-2h31.64c1.32,0,1.32,2,0,2Z"/>
    <path d="M74.05,63.63h-10.91c-1.32,0-1.32-2,0-2h10.91c1.32,0,1.32,2,0,2Z"/>
    <path d="M92.46,83.16c-.82,0-3.47-2.5-10.43-4.77-1.32-.38-.65-2.31.59-1.91,3.6,1.17,7.38,2.93,10.38,4.84.84.53.46,1.84-.54,1.84Z"/>
    <path d="M66.63,67.46v-10.87c0-1.32,2-1.32,2,0v10.87c0,1.32-2,1.32-2,0Z"/>
    <path d="M66.63,45.47V15.43c0-1.32,2-1.32,2,0v30.04c0,1.32-2,1.32-2,0Z"/>
    <path d="M66.63,109.84v-22.74c0-1.32,2-1.32,2,0v22.74c0,1.32-2,1.32-2,0Z"/>
    <path d="M1.79,103.07c-.71-.19-.98-1.05-.51-1.61,13.03-15.41,12.56-15.22,13.38-15.11.71.09.73.48,2.05,3.26,63.99-17.34,81.92-56.85,82.66-58.53,5.84-13.35-4.79-20.38-5.25-20.67-1.11-.71-.05-2.38,1.06-1.69,10.16,6.29,14.93,8.4,18.24,14.55,2.09,3.88,3.87,10.14.47,17.91-4.82,11.01-25.48,48-89.86,63.96.97,2.06,1.54,2.74.98,3.42-.63.76-.14.56-23.22-5.5ZM3.83,101.54l18.6,4.88-.72-1.52c-.27-.57.05-1.25.67-1.4,64.42-15.59,84.94-52.25,89.69-63.11,2.47-5.65,2.34-11.09-.4-16.16-2.31-4.28-5.26-6.32-11.27-9.98,2.47,3.91,4.21,9.85.8,17.64-6.86,15.67-32.43,45.92-84.78,59.87-1.09.3-1.38-1.01-2.13-2.59l-10.46,12.37Z"/>
    <g>
      <path d="M125.96,119.43h-36.27c-.55,0-1-.45-1-1v-36.27c0-.55.45-1,1-1h36.27c.55,0,1,.45,1,1v36.27c0,.55-.45,1-1,1ZM90.69,117.43h34.27v-34.27h-34.27v34.27Z"/>
      <path d="M113.51,94.53h-11.37c-.55,0-1-.45-1-1v-11.37c0-.55.45-1,1-1h11.37c.55,0,1,.45,1,1v11.37c0,.55-.45,1-1,1ZM103.14,92.53h9.37v-9.37h-9.37v9.37Z"/>
    </g>
  </g>
  <g>
    <path d="M66.83,68c-9.39,0-9.03.08-9.41-.19l-13.89-10.22h-17.49c-2.61,0-4-3.08-2.28-5.04,4.39-5,6.18-8.08,10.73-8.08h36.65l4.88-4.67c.4-.39.18-.28,7.99-.28.77,0,1.25.84.86,1.51l-8.47,14.44c-1.55,2.64-2.49,2.17-16.2,2.13l7.4,8.76c.55.65.09,1.65-.76,1.65ZM58.34,66h6.33l-7.4-8.76c-.55-.65-.09-1.65.76-1.65,15.52,0,15.72.41,16.63-1.13l7.58-12.94h-5.15c-5.31,5.09-5.02,4.95-5.57,4.95h-37.05c-3.54,0-4.86,2.43-9.23,7.4h0c-.59.67-.11,1.72.78,1.72h17.82c.51,0,.12-.16,14.48,10.41ZM24.51,53.21h0,0Z"/>
    <path d="M53.24,52.45c-.85-1.01.67-2.3,1.53-1.29,3.98,4.72,4.95,5.33,3.92,6.2-1.05.88-1.69-.45-5.45-4.91Z"/>
    <path d="M54,46.47c-15.97,0-15.81.31-16.1-.73-.29-1.03-.33-.65,13.82-9.23.35-.21.01-.14,10.24-.14.88,0,1.33,1.07.71,1.7-8.47,8.62-8.08,8.4-8.68,8.4ZM42.45,44.47h11.14l6-6.1h-7.06l-10.07,6.1Z"/>
  </g>
</svg>