<?xml version="1.0" encoding="UTF-8"?>
<svg id="Product_Export" data-name="Product Export" xmlns="http://www.w3.org/2000/svg" viewBox="0 0 128 128">
  <path d="M103.87,77.67c3.56-9.09,4.12-19.29,1.59-28.72-.34-1.28,1.59-1.8,1.93-.52,2.65,9.84,2.06,20.49-1.65,29.97-.48,1.23-2.34.5-1.86-.73Z"/>
  <path d="M30.01,97.97c-1.02-.85.26-2.38,1.28-1.54,16.53,13.76,40.85,14.18,57.83.99,1.05-.81,2.27.77,1.23,1.58-17.72,13.76-43.09,13.32-60.33-1.03Z"/>
  <path d="M18.05,83.15c-8.91-17.08-6.79-37.78,5.4-52.72,20.75-25.4,59.15-22.52,76.47,2.3.76,1.09-.88,2.23-1.64,1.14-16.6-23.81-53.41-26.49-73.28-2.18-11.68,14.32-13.72,34.16-5.18,50.54.61,1.17-1.17,2.09-1.77.92Z"/>
  <path d="M40.28,44.74c-1.12,0-10.21-4.94-16.82-13.05-.84-1.03.71-2.29,1.55-1.26,9.74,11.93,17.31,11.36,16.18,13.74-.17.36-.53.57-.9.57Z"/>
  <path d="M77.87,46.26c-1.1,0-1.39-1.53-.36-1.93,7.43-2.88,14.04-7.69,19.12-13.9.84-1.02,2.39.24,1.55,1.27-8.16,9.98-19.26,14.57-20.3,14.57Z"/>
  <path d="M40.34,76.93c.64-.33,2.75-1.24,4.8-1.95,1.31-.46,1.97,1.51.62,1.9-1.56.54-3.08,1.16-4.51,1.83-1.26.64-2.1-1.21-.91-1.78Z"/>
  <path d="M89.73,84.27c-1.04,0-3.85-3.54-12.27-6.82-1.24-.48-.5-2.35.73-1.86,4.38,1.7,8.47,4.02,12.16,6.89.75.58.33,1.79-.61,1.79Z"/>
  <path d="M38.92,79.51c-.47,0-.88-.33-.98-.8-1.53-7.55-2.05-15.82-1.52-23.91.09-1.3,2.08-1.2,2,.13-1.27,19.17,3.38,24.58.5,24.58Z"/>
  <path d="M82.79,50.14c-2.4-20.42-11.24-34.99-21.49-35.44-12.35-.69-19.45,18.8-21.48,29.23-.25,1.3-2.22.92-1.96-.38C46.61-1.38,79.43,4.44,84.77,49.9c.15,1.31-1.83,1.55-1.99.23Z"/>
  <path d="M60.82,109.1c-6.76,0-13.04-5.18-17.69-14.58-.59-1.19,1.21-2.07,1.79-.89,13.1,26.5,33.95,11.16,37.86-21.9.16-1.32,2.14-1.08,1.99.23-1.52,12.84-8.48,37.13-23.95,37.13Z"/>
  <path d="M108.02,61.9h-12.4c-1.32,0-1.32-2,0-2h12.4c1.32,0,1.32,2,0,2Z"/>
  <path d="M44.86,61.9H13.61c-1.32,0-1.32-2,0-2h31.25c1.32,0,1.32,2,0,2Z"/>
  <path d="M70.98,61.9h-15.05c-1.32,0-1.32-2,0-2h15.05c1.32,0,1.32,2,0,2Z"/>
  <path d="M59.82,38.7V13.69c0-1.32,2-1.32,2,0v25.01c0,1.32-2,1.32-2,0Z"/>
  <path d="M59.82,67.87v-10.57c0-1.32,2-1.32,2,0v10.57c0,1.32-2,1.32-2,0Z"/>
  <path d="M60.82,109.1c-1.43,0-1-.03-1-21.97,0-1.32,2-1.32,2,0,0,21.96.42,21.97-1,21.97Z"/>
  <path d="M19.17,83.7c-9.93,0-16.68-6.63-18.15-13.8-.25-1.26,1.68-1.79,1.99-.24.32,1.26,3.61,12.73,17.48,12,19.96-1.1,43.36-15.53,57.32-27.56,1-.86,2.31.65,1.3,1.52-15.24,13.13-40.68,28.08-59.94,28.08Z"/>
  <path d="M23.49,98.86c-15.13,0-19.5-14.01-19.54-14.16l-2.9-14.64c-.26-1.29,1.7-1.7,1.96-.39l2.88,14.55c.14.46,4.22,13.38,18.85,12.61,11.85-.65,53.39-7.02,90.57-61.84.17-.25.44-.41.74-.43.64-.06.9.4,1.98,1.51l1.95-19.12-15.25,5.45c1.32,1.35,2.33,2,1.68,2.9-8.47,11.89-17.59,21.6-22.83,26.29-.41.37-1.04.33-1.41-.08-1.79-2,5.23-3.21,22.12-26.7-4.24-4.35-4.99-2.61,16.5-10.29.69-.25,1.41.31,1.33,1.04-2.67,26.2-1.62,25.91-5.86,21.56-30.25,44.07-68.7,61.74-92.78,61.74Z"/>
  <g>
    <path d="M126,115.31h-36.27c-.55,0-1-.45-1-1v-36.27c0-.55.45-1,1-1h36.27c.55,0,1,.45,1,1v36.27c0,.55-.45,1-1,1ZM90.73,113.31h34.27v-34.27h-34.27v34.27Z"/>
    <path d="M113.55,90.41h-11.37c-.55,0-1-.45-1-1v-11.37c0-.55.45-1,1-1h11.37c.55,0,1,.45,1,1v11.37c0,.55-.45,1-1,1ZM103.18,88.41h9.37v-9.37h-9.37v9.37Z"/>
  </g>
  <g>
    <path d="M49.99,66.27c-13.01,0-12.37,1.66-2.18-10.41-13.73.04-14.65.51-16.2-2.13-8.89-15.17-8.89-14.72-8.47-15.44.4-.69.29-.5,8.16-.5.57,0,.41,0,5.57,4.95h36.65c4.69,0,6.63,3.42,10.73,8.08h0c1.72,1.96.33,5.04-2.28,5.04h-17.49l-13.89,10.21c-.17.13-.38.19-.59.19ZM43.33,64.27h6.33l13.89-10.21c.41-.3,0-.19,18.41-.19.89,0,1.36-1.05.78-1.72-4.32-4.92-5.69-7.4-9.23-7.4h-37.05c-.57,0-.41,0-5.57-4.95h-5.15l7.58,12.94c.68,1.15.73,1.25,9,1.18,8.04-.07,8.19-.22,8.54.54.38.82.26.59-7.54,9.83Z"/>
    <path d="M49.96,55.86c-.85,0-1.31-1-.76-1.64l4.04-4.79c.85-1.01,2.38.28,1.53,1.29-4.41,5.22-4.17,5.14-4.81,5.14Z"/>
    <path d="M69.13,44.74c-15.8,0-15.4.16-15.85-.3-11.16-11.35-11.68-9.8,2.48-9.8.44,0,.08-.12,13.89,8.25.86.52.49,1.86-.52,1.86ZM54.42,42.74h11.14l-10.07-6.1h-7.06l6,6.1Z"/>
  </g>
</svg>