<?xml version="1.0" encoding="UTF-8"?>
<svg id="Pulley" xmlns="http://www.w3.org/2000/svg" viewBox="0 0 128 128">
  <path d="M126,18.53H2c-1.35,0-1-1.17-1-6.79,0-.55.45-1,1-1h124c1.35,0,1,1.17,1,6.79,0,.55-.45,1-1,1ZM3,16.53h122v-3.79H3v3.79Z"/>
  <g>
    <g>
      <g>
        <path d="M98.22,67.05v-17.4c0-1.32,2-1.32,2,0v17.4c0,1.32-2,1.32-2,0Z"/>
        <path d="M102.22,67.05v-25.59c0-1.32,2-1.32,2,0v25.59c0,1.32-2,1.32-2,0Z"/>
        <path d="M98.22,94.12v-7.83c0-1.32,2-1.32,2,0v7.83c0,1.32-2,1.32-2,0Z"/>
        <path d="M102.22,94.12v-7.83c0-1.32,2-1.32,2,0v7.83c0,1.32-2,1.32-2,0Z"/>
      </g>
      <path d="M104.38,27.1h-23.14c-1.73,0-3.14-1.41-3.14-3.14v-6.43c0-.55.45-1,1-1h27.43c.55,0,1,.45,1,1v6.43c0,1.73-1.41,3.14-3.14,3.14ZM80.09,18.53v5.43c0,.63.51,1.14,1.14,1.14h23.14c.63,0,1.14-.51,1.14-1.14v-5.43h-25.43Z"/>
      <g>
        <path d="M44.15,65.08c-1,0-1.38-1.32-.53-1.85l38.28-23.61c1.13-.7,2.18,1.01,1.05,1.7-38.73,23.88-38.36,23.76-38.8,23.76Z"/>
        <path d="M50.07,56.73c-1,0-1.38-1.32-.53-1.85,8.51-5.25,38.81-23.93,38.88-23.96,1.22-.47,1.97,1.3.79,1.84-38.98,24.06-38.68,23.97-39.14,23.97Z"/>
      </g>
      <path d="M92.8,52.87c-12.76,0-15.83-17.91-3.79-22.17,1.25-.44,1.91,1.44.67,1.89-9.92,3.51-7.39,18.29,3.13,18.29s13.07-14.78,3.14-18.29c-1.25-.44-.58-2.33.67-1.89,12.06,4.26,8.98,22.17-3.8,22.17Z"/>
      <g>
        <path d="M19.66,48.87c-1.43,0-1,.04-1-22.77,0-1.32,2-1.32,2,0,0,22.81.43,22.77-1,22.77Z"/>
        <path d="M22.66,40.43v-14.33c0-1.32,2-1.32,2,0v14.33c0,1.32-2,1.32-2,0Z"/>
      </g>
      <g>
        <path d="M96.27,18.53h-6.93c-1.32,0-1.32-2,0-2h6.93c1.32,0,1.32,2,0,2Z"/>
        <path d="M88.34,41.33v-15.23c0-1.32,2-1.32,2,0v15.23c0,3.25,4.93,3.25,4.93,0v-15.23c0-1.32,2-1.32,2,0v15.23c0,5.9-8.93,5.9-8.93,0Z"/>
      </g>
      <path d="M35,68.03c-9.22,0-16.71-7.5-16.71-16.71s7.5-16.71,16.71-16.71,16.71,7.5,16.71,16.71-7.5,16.71-16.71,16.71ZM35,36.6c-8.11,0-14.71,6.6-14.71,14.71s6.6,14.71,14.71,14.71,14.71-6.6,14.71-14.71-6.6-14.71-14.71-14.71Z"/>
      <path d="M35,62.72c-6.29,0-11.41-5.12-11.41-11.41s5.12-11.41,11.41-11.41,11.41,5.12,11.41,11.41-5.12,11.41-11.41,11.41ZM35,41.9c-5.19,0-9.41,4.22-9.41,9.41s4.22,9.41,9.41,9.41,9.41-4.22,9.41-9.41-4.22-9.41-9.41-9.41Z"/>
      <path d="M41.64,27.1h-23.14c-1.73,0-3.14-1.41-3.14-3.14v-6.43c0-.55.45-1,1-1h27.43c.55,0,1,.45,1,1v6.43c0,1.73-1.41,3.14-3.14,3.14ZM17.35,18.53v5.43c0,.63.51,1.14,1.14,1.14h23.14c.63,0,1.14-.51,1.14-1.14v-5.43h-25.43Z"/>
    </g>
    <path d="M35,56.38c-2.8,0-5.07-2.28-5.07-5.07s2.28-5.07,5.07-5.07,5.07,2.28,5.07,5.07-2.28,5.07-5.07,5.07ZM35,48.24c-4.06,0-4.06,6.14,0,6.14s4.06-6.14,0-6.14Z"/>
    <path d="M103.02,87.31h-3.62c-1.47,0-2.67-1.2-2.67-2.67v-15.95c0-1.47,1.2-2.67,2.67-2.67h3.62c1.47,0,2.67,1.2,2.67,2.67v15.95c0,1.47-1.2,2.67-2.67,2.67ZM99.41,68.03c-.96,0-.67-.02-.67,16.62,0,.96,1.05.67,4.28.67.95,0,.67.01.67-16.62,0-.96-1.09-.67-4.28-.67Z"/>
    <path d="M101.22,117.26c-9.31,0-12.58-10.5-9.64-10.5,3.25,0,4.06-.23,6.38,1.95.92.87,1.65,1.55,3.27,1.55,2.94,0,4.74-1.85,4.38-4.99-.09-.79-.3-2.63-3.39-3.14-2.6-.42-4.49-2.66-4.49-5.33,0-1.73-.33-3.69,1.37-3.69,5.4,0,5.63-.44,5.63,2.4,12.19,3.3,9.88,21.74-3.5,21.74ZM92.65,108.76c1.4,8.72,16.88,9.19,18-1.83.4-3.99-1.64-8.52-7.13-9.64-.98-.2-.8-1.18-.8-2.19-.59,0-1.48,0-3.02.01,0,.41.02.91.02,1.69,0,1.68,1.18,3.09,2.81,3.35,7.47,1.22,6.72,12.1-1.31,12.1-2.41,0-3.65-1.16-4.64-2.09-1.62-1.52-1.95-1.41-3.93-1.41Z"/>
  </g>
</svg>