<?xml version="1.0" encoding="UTF-8"?>
<svg id="Quality_Control" data-name="Quality Control" xmlns="http://www.w3.org/2000/svg" viewBox="0 0 128 128">
  <g>
    <path d="M39.57,35.05H12.57c-.55,0-1-.45-1-1V9.96c0-.55.45-1,1-1,22.47,0,22.45-.43,22.45,1,0,.55-.45,1-1,1H13.57v22.09h25V13.84c0-1.32,2-1.32,2,0v20.21c0,.55-.45,1-1,1Z"/>
    <path d="M77.5,35.05h-27c-.55,0-1-.45-1-1V9.96c0-.55.45-1,1-1,22.47,0,22.45-.43,22.45,1,0,.55-.45,1-1,1h-20.45v22.09h25V13.84c0-1.32,2-1.32,2,0v20.21c0,.55-.45,1-1,1Z"/>
    <path d="M115.43,35.05h-27c-.55,0-1-.45-1-1V9.96c0-.55.45-1,1-1,22.47,0,22.45-.43,22.45,1,0,.55-.45,1-1,1h-20.45v22.09h25V13.84c0-1.32,2-1.32,2,0v20.21c0,.55-.45,1-1,1Z"/>
    <path d="M30.3,19.43h-8.46c-.55,0-1-.45-1-1v-8.46c0-.55.45-1,1-1h8.46c.55,0,1,.45,1,1v8.46c0,.55-.45,1-1,1ZM22.84,17.43h6.46v-6.46h-6.46v6.46Z"/>
    <path d="M68.23,19.43h-8.46c-.55,0-1-.45-1-1v-8.46c0-.55.45-1,1-1h8.46c.55,0,1,.45,1,1v8.46c0,.55-.45,1-1,1ZM60.77,17.43h6.46v-6.46h-6.46v6.46Z"/>
    <path d="M106.16,19.43h-8.46c-.55,0-1-.45-1-1v-8.46c0-.55.45-1,1-1h8.46c.55,0,1,.45,1,1v8.46c0,.55-.45,1-1,1ZM98.7,17.43h6.46v-6.46h-6.46v6.46Z"/>
  </g>
  <path d="M126,127H2c-.55,0-1-.45-1-1,0-3.67-.35-5.09,1-5.09h124c.55,0,1,.45,1,1,0,3.67.35,5.09-1,5.09ZM3,125h122v-2.09H3v2.09Z"/>
  <path d="M115.71,55.62H12.29c-6.22,0-11.29-5.06-11.29-11.29s5.06-11.29,11.29-11.29h103.43c6.22,0,11.29,5.06,11.29,11.29s-5.06,11.29-11.29,11.29ZM12.29,35.05c-5.12,0-9.29,4.17-9.29,9.29s4.17,9.29,9.29,9.29h103.43c5.12,0,9.29-4.17,9.29-9.29s-4.17-9.29-9.29-9.29H12.29Z"/>
  <path d="M115.71,51.62H12.29c-4.02,0-7.29-3.27-7.29-7.29s3.27-7.29,7.29-7.29h103.43c4.02,0,7.29,3.27,7.29,7.29s-3.27,7.29-7.29,7.29ZM12.29,39.05c-2.91,0-5.29,2.37-5.29,5.29s2.37,5.29,5.29,5.29h103.43c2.91,0,5.29-2.37,5.29-5.29s-2.37-5.29-5.29-5.29H12.29Z"/>
  <g>
    <path d="M16.59,49.35c-2.77,0-5.02-2.25-5.02-5.02s2.25-5.02,5.02-5.02,5.02,2.25,5.02,5.02-2.25,5.02-5.02,5.02ZM16.59,41.32c-3.99,0-3.99,6.04,0,6.04s3.99-6.04,0-6.04Z"/>
    <path d="M35.55,49.35c-2.77,0-5.02-2.25-5.02-5.02s2.25-5.02,5.02-5.02,5.02,2.25,5.02,5.02-2.25,5.02-5.02,5.02ZM35.55,41.32c-3.99,0-3.99,6.04,0,6.04s3.99-6.04,0-6.04Z"/>
    <path d="M54.52,49.35c-2.77,0-5.02-2.25-5.02-5.02s2.25-5.02,5.02-5.02,5.02,2.25,5.02,5.02-2.25,5.02-5.02,5.02ZM54.52,41.32c-3.99,0-3.99,6.04,0,6.04s3.99-6.04,0-6.04Z"/>
    <path d="M73.48,49.35c-2.77,0-5.02-2.25-5.02-5.02s2.25-5.02,5.02-5.02,5.02,2.25,5.02,5.02-2.25,5.02-5.02,5.02ZM73.48,41.32c-3.99,0-3.99,6.04,0,6.04s3.99-6.04,0-6.04Z"/>
    <path d="M92.45,49.35c-2.77,0-5.02-2.25-5.02-5.02s2.25-5.02,5.02-5.02,5.02,2.25,5.02,5.02-2.25,5.02-5.02,5.02ZM92.45,41.32c-3.99,0-3.99,6.04,0,6.04s3.99-6.04,0-6.04Z"/>
    <path d="M111.41,49.35c-2.77,0-5.02-2.25-5.02-5.02s2.25-5.02,5.02-5.02,5.02,2.25,5.02,5.02-2.25,5.02-5.02,5.02ZM111.41,41.32c-3.99,0-3.99,6.04,0,6.04s3.99-6.04,0-6.04Z"/>
  </g>
  <g>
    <g>
      <path d="M70.68,122.91h-13.36c-1.32,0-1.32-2,0-2h13.36c1.32,0,1.32,2,0,2Z"/>
      <path d="M70.4,118.81c-1.26,0-1-.92-1.42-7.16-.09-1.32,1.91-1.46,2-.13.4,5.96.87,7.3-.58,7.3Z"/>
      <path d="M57.6,118.81c-.58,0-1.04-.49-1-1.07l.42-6.23c.09-1.33,2.08-1.18,2,.13-.4,5.94-.14,7.16-1.42,7.16Z"/>
      <path d="M82,122.91h-36c-1.31,0-1-1.58-1-2.96,0-1.73,1.41-3.14,3.14-3.14h31.73c1.73,0,3.14,1.41,3.14,3.14,0,1.36.3,2.96-1,2.96ZM47,120.91h34c0-.81.17-2.09-1.14-2.09h-31.73c-1.27,0-1.14,1.32-1.14,2.09Z"/>
    </g>
    <g>
      <path d="M95.46,112.58h-62.92c-2.29,0-4.15-1.87-4.15-4.16v-43.14c0-2.29,1.86-4.16,4.15-4.16h62.92c2.29,0,4.16,1.87,4.16,4.16v43.14c0,2.29-1.87,4.16-4.16,4.16ZM32.53,63.12c-1.19,0-2.15.97-2.15,2.16v43.14c0,1.19.97,2.16,2.15,2.16h62.92c1.19,0,2.16-.97,2.16-2.16v-43.14c0-1.19-.97-2.16-2.16-2.16h-62.92Z"/>
      <path d="M93.82,101v-34.05l-59.61-.03-.03,34.08c0,1.32-2,1.32-2,0v-34.05c0-1.12.91-2.03,2.03-2.03h59.58c1.12,0,2.03.91,2.03,2.03v34.05c0,1.32-2,1.32-2,0Z"/>
      <path d="M95.46,112.58h-62.92c-2.29,0-4.15-1.87-4.15-4.16v-7.42c0-.55.45-1,1-1h69.23c.55,0,1,.45,1,1v7.42c0,2.29-1.87,4.16-4.16,4.16ZM30.38,102v6.42c0,1.19.97,2.16,2.15,2.16h62.92c1.19,0,2.16-.97,2.16-2.16v-6.42H30.38Z"/>
    </g>
  </g>
  <path d="M77.5,14.84c-3.82,0-6.92-3.1-6.92-6.92s3.1-6.92,6.92-6.92,6.92,3.1,6.92,6.92-3.1,6.92-6.92,6.92ZM77.5,3c-2.71,0-4.92,2.21-4.92,4.92s2.21,4.92,4.92,4.92,4.92-2.21,4.92-4.92-2.21-4.92-4.92-4.92Z"/>
  <g>
    <path d="M39.57,14.84c-3.82,0-6.92-3.1-6.92-6.92s3.1-6.92,6.92-6.92,6.92,3.1,6.92,6.92-3.1,6.92-6.92,6.92ZM39.57,3c-2.71,0-4.92,2.21-4.92,4.92s2.21,4.92,4.92,4.92,4.92-2.21,4.92-4.92-2.21-4.92-4.92-4.92Z"/>
    <path d="M36.38,8.49c-.96-.92.43-2.36,1.38-1.44l1.15,1.1,2.33-2.86c.84-1.02,2.39.24,1.55,1.26-4.18,5.13-3.2,5.01-6.41,1.94Z"/>
  </g>
  <g>
    <path d="M42.99,90.8c-3.82,0-6.92-3.1-6.92-6.92s3.1-6.92,6.92-6.92,6.92,3.1,6.92,6.92-3.1,6.92-6.92,6.92ZM42.99,78.96c-2.71,0-4.92,2.21-4.92,4.92s2.21,4.92,4.92,4.92,4.92-2.21,4.92-4.92-2.21-4.92-4.92-4.92Z"/>
    <path d="M39.79,84.45c-.96-.92.43-2.36,1.38-1.44l1.15,1.1,2.33-2.86c.84-1.03,2.39.24,1.55,1.26-4.18,5.13-3.2,5.01-6.41,1.94Z"/>
  </g>
  <g>
    <path d="M64,90.8c-3.82,0-6.92-3.1-6.92-6.92s3.1-6.92,6.92-6.92,6.92,3.1,6.92,6.92-3.1,6.92-6.92,6.92ZM64,78.96c-2.71,0-4.92,2.21-4.92,4.92s2.21,4.92,4.92,4.92,4.92-2.21,4.92-4.92-2.21-4.92-4.92-4.92Z"/>
    <path d="M60.8,84.45c-.96-.92.43-2.36,1.38-1.44l1.15,1.1,2.33-2.86c.84-1.03,2.39.24,1.55,1.26-4.18,5.13-3.2,5.01-6.41,1.94Z"/>
  </g>
  <path d="M74.34,8.49c-.96-.92.43-2.36,1.38-1.44l1.15,1.1,2.33-2.86c.84-1.03,2.39.24,1.55,1.26-4.18,5.13-3.2,5.01-6.41,1.94Z"/>
  <g>
    <path d="M115.43,14.84c-3.82,0-6.92-3.1-6.92-6.92s3.1-6.92,6.92-6.92,6.92,3.1,6.92,6.92-3.1,6.92-6.92,6.92ZM115.43,3c-2.71,0-4.92,2.21-4.92,4.92s2.21,4.92,4.92,4.92,4.92-2.21,4.92-4.92-2.21-4.92-4.92-4.92Z"/>
    <g>
      <path d="M113.12,11.23c-.88,0-1.34-1.07-.71-1.71,4.59-4.58,5.08-5.57,6.03-4.62.39.39.39,1.02,0,1.41-5.08,5.08-4.76,4.91-5.32,4.91Z"/>
      <path d="M112.41,6.32c-.94-.94.48-2.35,1.41-1.41,4.59,4.58,5.57,5.08,4.62,6.03s-1.71-.3-6.03-4.62Z"/>
    </g>
  </g>
  <g>
    <path d="M84.82,90.8c-3.82,0-6.92-3.1-6.92-6.92s3.1-6.92,6.92-6.92,6.92,3.1,6.92,6.92-3.1,6.92-6.92,6.92ZM84.82,78.96c-2.71,0-4.92,2.21-4.92,4.92s2.21,4.92,4.92,4.92,4.92-2.21,4.92-4.92-2.21-4.92-4.92-4.92Z"/>
    <g>
      <path d="M82.51,87.19c-.88,0-1.34-1.07-.71-1.71,4.59-4.58,5.08-5.57,6.03-4.62.39.39.39,1.02,0,1.41-5.08,5.08-4.76,4.91-5.32,4.91Z"/>
      <path d="M81.8,82.28c-.94-.94.48-2.35,1.41-1.41,4.59,4.58,5.57,5.08,4.62,6.03s-1.71-.3-6.03-4.62Z"/>
    </g>
  </g>
</svg>