<?xml version="1.0" encoding="UTF-8"?>
<svg id="Radioactive" xmlns="http://www.w3.org/2000/svg" viewBox="0 0 128 128">
  <path d="M92.47,117.33c-86.54,0-86.07.24-86.54-.41-.4-.55-.26-.54,1.34-5.43,12.79-39.03,15.45-47.15,17.57-96.57.06-1.34,2.05-1.23,2,.09-2.19,50.95-4.92,58.18-18.72,100.33h84.35c1.32,0,1.32,2,0,2Z"/>
  <path d="M78.21,68.08c-.46,0-.88-.33-.98-.8-3.83-18.51-4.08-34.44-4.86-52.28-.06-1.29,1.94-1.46,2-.09,2.48,56.7,6.91,53.16,3.84,53.16Z"/>
  <path d="M126,123.84H2c-1.35,0-1-1.06-1-7.51,0-.55.45-1,1-1h124c1.35,0,1,1.06,1,7.51,0,.55-.45,1-1,1ZM3,121.84h122v-4.51H3v4.51Z"/>
  <path d="M75.38,49.56h-12.55c-1.32,0-1.32-2,0-2h11.43c-.74-6.86-1-11.85-1.23-17.38H26.19c-.24,5.48-.45,10.28-1.23,17.38h11.43c1.32,0,1.32,2,0,2-12.07,0-13.72.47-13.54-1.11,2.09-18.45.5-20.27,2.38-20.27h48.76c1.88,0,.32,1.84,2.38,20.27.07.59-.4,1.11-.99,1.11Z"/>
  <path d="M58.6,93.1c-44.75,0-44.29.23-44.76-.41-.89-1.22,2.53-5.93,6.52-27.54.21-1.16.45-.82,14.46-.82,1.32,0,1.32,2,0,2h-12.65c-1.59,8.41-3.66,16.74-6.17,24.77h42.58c1.32,0,1.32,2,0,2Z"/>
  <path d="M78.21,68.08c-.98,0-1.02-.99-1.17-1.75h-12.65c-1.32,0-1.32-2,0-2,14.61,0,14.22-.49,14.52,1.13.2,1.08.74,2.62-.7,2.62Z"/>
  <g>
    <g>
      <g>
        <path d="M56.75,111.94v-16.83c0-3.66,2.9-6.64,6.46-6.64h2.67c1.32,0,1.32,2,0,2h-2.67c-2.46,0-4.46,2.08-4.46,4.64v16.83c0,1.32-2,1.32-2,0Z"/>
        <path d="M61.28,111.94c0-19.91-1.38-18.79,4.6-18.79,1.32,0,1.32,2,0,2h-2.53c-.22,1.27-.07,6.18-.07,16.79,0,1.32-2,1.32-2,0Z"/>
        <path d="M62.28,117.17h-4.53c-1.32,0-1.32-2,0-2h4.53c1.32,0,1.32,2,0,2Z"/>
      </g>
      <path d="M64.3,117.17h-8.36c-.55,0-1-.45-1-1,0-3.83-.35-5.23,1-5.23h8.36c.55,0,1,.45,1,1,0,3.83.35,5.23-1,5.23ZM56.93,115.17h6.36v-2.23h-6.36v2.23Z"/>
      <g>
        <path d="M118.65,111.94c0-10.77.15-15.52-.07-16.79h-2.52c-1.32,0-1.32-2,0-2,2.9,0,3.39-.12,3.95.45.96.96.64,2.28.64,18.34,0,1.32-2,1.32-2,0Z"/>
        <path d="M123.19,111.94v-16.83c0-2.56-2.01-4.64-4.47-4.64h-2.66c-1.32,0-1.32-2,0-2h2.66c3.57,0,6.47,2.98,6.47,6.64v16.83c0,1.32-2,1.32-2,0Z"/>
        <path d="M124.19,117.17h-4.54c-1.32,0-1.32-2,0-2h4.54c1.32,0,1.32,2,0,2Z"/>
      </g>
      <path d="M126,117.17h-8.36c-.55,0-1-.45-1-1,0-3.83-.35-5.23,1-5.23h8.36c.55,0,1,.45,1,1,0,3.83.35,5.23-1,5.23ZM118.64,115.17h6.36v-2.23h-6.36v2.23Z"/>
    </g>
    <path d="M111.58,111.37h-41.22c-.55,0-1-.45-1-1v-28c0-10.93,8.89-19.81,19.81-19.81h3.59c10.93,0,19.81,8.89,19.81,19.81v28c0,.55-.45,1-1,1ZM71.36,109.37h39.22v-27c0-9.82-7.99-17.81-17.81-17.81h-3.59c-9.82,0-17.81,7.99-17.81,17.81v27Z"/>
    <path d="M114.28,117.33h-46.62c-1.34,0-1-1.11-1-6.96,0-.55.45-1,1-1h46.62c1.34,0,1,1.11,1,6.96,0,.55-.45,1-1,1ZM68.66,115.33h44.62v-3.96h-44.62v3.96Z"/>
    <g>
      <path d="M79.37,106.7c-3.57,0-5,.35-5-1v-27.89c0-.55.45-1,1-1,3.57,0,5-.35,5,1v27.89c0,.55-.45,1-1,1ZM76.37,104.7h2v-25.89h-2v25.89Z"/>
      <path d="M88.44,106.7c-3.57,0-5,.35-5-1v-27.89c0-.55.45-1,1-1,3.57,0,5-.35,5,1v27.89c0,.55-.45,1-1,1ZM85.44,104.7h2v-25.89h-2v25.89Z"/>
      <path d="M97.5,106.7c-3.57,0-5,.35-5-1v-27.89c0-.55.45-1,1-1,3.57,0,5-.35,5,1v27.89c0,.55-.45,1-1,1ZM94.5,104.7h2v-25.89h-2v25.89Z"/>
      <path d="M106.56,106.7c-3.57,0-5,.35-5-1v-27.89c0-.55.45-1,1-1,3.57,0,5-.35,5,1v27.89c0,.55-.45,1-1,1ZM103.56,104.7h2v-25.89h-2v25.89Z"/>
    </g>
    <g>
      <path d="M116.06,99.35c-4.13,0-5.48.35-5.48-1v-14.03c0-.55.45-1,1-1,4.13,0,5.48-.35,5.48,1v14.03c0,.55-.45,1-1,1ZM112.58,97.35h2.48v-12.03h-2.48v12.03Z"/>
      <path d="M70.36,99.35c-4.13,0-5.48.35-5.48-1v-14.03c0-.55.45-1,1-1,4.13,0,5.48-.35,5.48,1v14.03c0,.55-.45,1-1,1ZM66.88,97.35h2.48v-12.03h-2.48v12.03Z"/>
    </g>
  </g>
  <g>
    <path d="M49.61,75.64c-9.59,0-17.39-7.8-17.39-17.39s7.8-17.39,17.39-17.39,17.39,7.8,17.39,17.39-7.8,17.39-17.39,17.39ZM49.61,42.85c-8.49,0-15.39,6.91-15.39,15.39s6.91,15.39,15.39,15.39,15.39-6.91,15.39-15.39-6.91-15.39-15.39-15.39Z"/>
    <path d="M45.67,58.25c0-5.22,7.89-5.22,7.89,0s-7.89,5.23-7.89,0ZM49.61,56.32c-2.62,0-2.62,3.84,0,3.84s2.62-3.84,0-3.84Z"/>
    <g>
      <path d="M41.4,49.3c-.32-.44-.23-1.05.19-1.38,7.49-5.82,17.8-.79,16.22,1.38-3.17,4.34-3.97,6.11-5.1,5.17-1.8-1.5-4.42-1.5-6.22,0-1.08.9-1.68-.49-5.1-5.17ZM43.61,48.94l2.47,3.38c2.17-1.29,4.88-1.29,7.04,0l2.48-3.39c-3.64-2.36-8.34-2.35-11.99,0Z"/>
      <path d="M50.76,64.22c-.23-.53.03-1.14.58-1.34,2.2-.8,3.52-3.06,3.14-5.37-.24-1.45,1.63-1.23,7.04-1.79.54-.04,1.02.33,1.09.86.79,5.93-2.53,11.62-8.08,13.84-1.28.52-1.56-1.14-3.77-6.21ZM52.98,64.32l1.68,3.85c3.88-1.96,6.24-6.02,6.04-10.36l-4.17.43c.02,2.52-1.34,4.86-3.55,6.08Z"/>
      <path d="M36.64,56.4c.2-1.37,1.58-.8,7.26-.12.57.07.97.6.87,1.17-.42,2.3.87,4.58,3.05,5.42,1.38.53.23,2.06-2,6.98-1.15,2.54-10.55-4.14-9.18-13.45ZM38.52,57.65c-.26,4.33,2.05,8.42,5.89,10.44l1.73-3.82c-2.19-1.25-3.52-3.61-3.46-6.13l-4.17-.49Z"/>
    </g>
  </g>
  <path d="M72.91,16H26.3c-2.27,0-4.12-1.85-4.12-4.11v-3.61c0-2.27,1.85-4.11,4.12-4.11h46.61c2.27,0,4.11,1.85,4.11,4.11v3.61c0,2.27-1.85,4.11-4.11,4.11ZM26.3,6.16c-1.17,0-2.12.95-2.12,2.11v3.61c0,1.17.95,2.11,2.12,2.11h46.61c1.17,0,2.11-.95,2.11-2.11v-3.61c0-1.17-.95-2.11-2.11-2.11H26.3Z"/>
</svg>