<?xml version="1.0" encoding="UTF-8"?>
<svg id="Robotic_Arm" data-name="Robotic Arm" xmlns="http://www.w3.org/2000/svg" viewBox="0 0 128 128">
  <g>
    <g>
      <g>
        <path d="M30.6,68.89c-7.81,0-7.88.22-8.22-.62-7.5-18.52-7.54-18.02-7.08-18.69,6.13-8.91,5.85-8.81,6.59-8.81h8.71c.55,0,1,.45,1,1v26.12c0,.55-.45,1-1,1ZM23.98,66.89h5.62v-24.12h-7.18l-5.17,7.5,6.73,16.62Z"/>
        <g>
          <path d="M30.6,50.09c-3.88,0-5.28.35-5.28-1,0-.55.45-1,1-1h4.28c1.32,0,1.32,2,0,2Z"/>
          <path d="M30.6,54.99c-3.88,0-5.28.35-5.28-1,0-.55.45-1,1-1h4.28c1.32,0,1.32,2,0,2Z"/>
          <path d="M30.6,59.89c-3.88,0-5.28.35-5.28-1,0-.55.45-1,1-1h4.28c1.32,0,1.32,2,0,2Z"/>
        </g>
      </g>
      <g>
        <path d="M44.47,68.89h-7.29c-.55,0-1-.45-1-1v-26.12c0-.55.45-1,1-1,9.19,0,9.11-.18,9.53.43,6.16,8.96,6.15,8.63,5.87,9.32-7.54,18.61-7.14,18.37-8.11,18.37ZM38.18,66.89h5.62l6.73-16.62-5.17-7.5h-7.18v24.12Z"/>
        <g>
          <path d="M41.46,50.09c-3.88,0-5.28.35-5.28-1,0-.55.45-1,1-1h4.28c1.32,0,1.32,2,0,2Z"/>
          <path d="M41.46,54.99c-3.88,0-5.28.35-5.28-1,0-.55.45-1,1-1h4.28c1.32,0,1.32,2,0,2Z"/>
          <path d="M41.46,59.89c-3.88,0-5.28.35-5.28-1,0-.55.45-1,1-1h4.28c1.32,0,1.32,2,0,2Z"/>
        </g>
      </g>
    </g>
    <path d="M37.97,35.79h-8.16c-.55,0-1-.45-1-1v-8.16c0-.55.45-1,1-1h8.16c.55,0,1,.45,1,1v8.16c0,.55-.45,1-1,1ZM30.81,33.79h6.16v-6.16h-6.16v6.16Z"/>
    <path d="M95.22,85.25c-.73,0-1.22-.77-.9-1.43l19.69-40.84c.57-1.19,2.38-.32,1.8.87-20.08,41.65-19.61,41.41-20.59,41.41Z"/>
    <path d="M78.84,73.52c-.8,0-1.27-.9-.83-1.55l19.26-34.97c.64-1.16,2.39-.19,1.75.96-19.73,35.81-19.26,35.56-20.18,35.56Z"/>
    <path d="M74.49,78.4c.94-.94,2.36.47,1.42,1.4-.94.94-2.36-.47-1.42-1.4Z"/>
    <path d="M26.33,27.63c-2.27,0-4.13-1.85-4.14-4.12v-8.74c-.02-3.99,2.5-7.59,6.27-8.95,10.35-3.75,8.7-4.16,11.59,2.19.23.5,0,1.1-.5,1.32-1.17.54-1.47-.73-3.03-4.24-.74.07-3.23,1.1-7.39,2.61-2.98,1.07-4.97,3.91-4.96,7.07v8.74c.02,1.17.98,2.13,2.15,2.13,17.15,0,17.16.38,18.03-.98.83-1.29.22-1.86-2.26-7.3-.55-1.2,1.27-2.03,1.82-.83,2.23,4.9,3.69,6.76,2.12,9.21-1.62,2.53-2.53,1.9-19.71,1.9Z"/>
    <path d="M97.91,37.88c-.12,0-44.23-16.91-53.57-20.5-5.7,2.85-8.16,4.88-11.37,2.9-1.54-.95-2.46-2.61-2.46-4.44,0-2.93.85-3.5,9.01-8.95,7.11-4.75,8.43-6.43,11.42-5.44l56.15,18.5c1.26.41.63,2.31-.62,1.9L50.31,3.35c-1.79-.59-2.02.09-9.68,5.21-7.89,5.27-8.12,5.48-8.12,7.28,0,1.14.55,2.14,1.51,2.74,2.05,1.27,3.24.1,9.82-3.18.61-.31.13-.3,54.42,20.55,1.03.4.75,1.93-.36,1.93Z"/>
    <path d="M109.26,45.81c-7.21,0-13.08-5.87-13.08-13.08s5.87-13.08,13.08-13.08,13.08,5.87,13.08,13.08-5.87,13.08-13.08,13.08ZM109.26,21.64c-6.11,0-11.08,4.97-11.08,11.08s4.97,11.08,11.08,11.08,11.08-4.97,11.08-11.08-4.97-11.08-11.08-11.08Z"/>
    <path d="M109.26,39.11c-3.52,0-6.39-2.87-6.39-6.39s2.87-6.39,6.39-6.39,6.39,2.87,6.39,6.39-2.87,6.39-6.39,6.39ZM109.26,28.34c-2.42,0-4.39,1.97-4.39,4.39s1.97,4.39,4.39,4.39,4.39-1.97,4.39-4.39-1.97-4.39-4.39-4.39Z"/>
    <path d="M94.22,90.85v-10.53c0-4.98-4.06-9.04-9.04-9.04s-9.05,4.06-9.05,9.04v10.53c0,1.32-2,1.32-2,0v-10.53c0-6.09,4.96-11.04,11.05-11.04s11.04,4.95,11.04,11.04v10.53c0,1.32-2,1.32-2,0Z"/>
    <path d="M95.22,106.38h-20.09c-1.32,0-1.32-2,0-2h20.09c1.32,0,1.32,2,0,2Z"/>
    <path d="M85.18,86.02c-3.09,0-5.61-2.52-5.61-5.61s2.52-5.61,5.61-5.61,5.61,2.52,5.61,5.61-2.52,5.61-5.61,5.61ZM85.18,76.79c-1.99,0-3.61,1.62-3.61,3.61s1.62,3.61,3.61,3.61,3.61-1.62,3.61-3.61-1.62-3.61-3.61-3.61Z"/>
    <path d="M117.24,106.38H52.6c-.55,0-1-.45-1-1,0-7.68-.05-7.42.12-7.75,4.21-7.64,4.06-7.78,4.88-7.78,57.48,0,57.07-.29,57.51.52,4.23,7.69,4.12,7.38,4.12,7.75v7.27c0,.55-.45,1-1,1ZM53.6,104.38h62.64v-6.01l-3.59-6.52h-55.46l-3.59,6.52v6.01Z"/>
    <path d="M126,122.54H43.83c-.55,0-1-.45-1-1v-16.15c0-.55.45-1,1-1h82.17c.55,0,1,.45,1,1v16.15c0,.55-.45,1-1,1ZM44.83,120.54h80.17v-14.15H44.83v14.15Z"/>
    <path d="M44.5,42.76h-21.17c-.55,0-1-.45-1-1,0-4.96-.09-4.78.27-5.16,2.48-2.67,2.47-2.8,3.04-2.8,17.28,0,16.82-.18,17.28.32,2.21,2.37,2.58,2.59,2.58,3.16,0,4.12.35,5.48-1,5.48ZM24.33,40.76h19.17v-3.09l-1.75-1.88h-15.68l-1.75,1.88v3.09Z"/>
  </g>
  <g>
    <path d="M74.88,101h-11.94c-1.33,0-1-1.36-1-5.07,0-.55.45-1,1-1h11.94c1.33,0,1,1.36,1,5.07,0,.55-.45,1-1,1ZM63.93,99h9.94v-2.07h-9.94v2.07Z"/>
    <path d="M106.9,101h-11.94c-1.33,0-1-1.36-1-5.07,0-.55.45-1,1-1h11.94c1.33,0,1,1.36,1,5.07,0,.55-.45,1-1,1ZM95.96,99h9.94v-2.07h-9.94v2.07Z"/>
  </g>
  <path d="M126,127H2c-.55,0-1-.45-1-1,0-4.12-.32-5.46,1-5.46h124c.55,0,1,.45,1,1,0,4.12.32,5.46-1,5.46ZM3,125h122v-2.46H3v2.46Z"/>
</svg>