<?xml version="1.0" encoding="UTF-8"?>
<svg id="Setting_Gear_Wrench" data-name="Setting Gear Wrench" xmlns="http://www.w3.org/2000/svg" viewBox="0 0 128 128">
  <g>
    <path d="M93.13,54.97c-1.17,0-1.02-1.08-1.5-4.55-1.29-.4-2.52-.9-3.68-1.49l-2.93,2.3c-.95.74-.75.48-9.37-8-.89-.87.25-1.78,2.16-4.29-.62-1.17-1.14-2.39-1.55-3.66l-3.7-.45c-1.19-.14-.87-.2-.96-12.28,0-1.25,1.47-1.08,4.55-1.5.4-1.29.9-2.52,1.49-3.68l-2.3-2.93c-.74-.95-.48-.76,8-9.37.88-.89,1.75.24,4.29,2.16,1.17-.62,2.39-1.14,3.65-1.55l.46-3.7c.15-1.19.19-.87,12.28-.97,1.24,0,1.07,1.39,1.5,4.56,1.27.39,2.5.89,3.68,1.48,2.75-2.15,3.42-3.04,4.25-2.22,8.25,8.12,8.88,8.27,8.14,9.25l-2.25,2.97c.62,1.17,1.14,2.39,1.55,3.65,3.47.42,4.57.26,4.58,1.43.09,11.55.44,12.12-.78,12.29l-3.69.51c-.39,1.28-.89,2.51-1.49,3.68,2.14,2.73,3.04,3.41,2.22,4.24-8.11,8.23-8.26,8.89-9.25,8.15l-2.97-2.25c-1.17.62-2.39,1.14-3.65,1.55-.42,3.48-.27,4.57-1.43,4.58-3.77.03-7.54.09-11.31.09ZM92.8,48.68c.84.23.72.78,1.2,4.29l9.54-.07c.76-6.25-.35-2.84,5.58-6.19.76-.43,1.06.05,3.88,2.19l6.69-6.8c-3.84-4.9-2.27-1.76-.43-8.32.24-.84.79-.72,4.29-1.2l-.07-9.54c-6.22-.76-2.84.35-6.19-5.57-.43-.76.04-1.06,2.19-3.88l-6.8-6.7c-4.95,3.87-1.76,2.25-8.32.43-.84-.23-.72-.77-1.2-4.29l-9.54.08c-.77,6.23.35,2.84-5.58,6.19-.76.43-1.05-.04-3.88-2.19l-6.7,6.8c3.85,4.91,2.27,1.76.43,8.33-.23.84-.78.71-4.29,1.19l.07,9.54c6.24.76,2.83-.35,6.19,5.58.43.76-.04,1.06-2.19,3.88l6.79,6.69c4.91-3.85,1.8-2.26,8.33-.43Z"/>
    <path d="M98.58,39.77c-6.5,0-11.79-5.29-11.79-11.79s5.29-11.79,11.79-11.79,11.79,5.29,11.79,11.79-5.29,11.79-11.79,11.79ZM98.58,18.2c-5.4,0-9.79,4.39-9.79,9.79s4.39,9.79,9.79,9.79,9.79-4.39,9.79-9.79-4.39-9.79-9.79-9.79Z"/>
    <path d="M98.58,35.79c-4.3,0-7.81-3.5-7.81-7.81s3.5-7.81,7.81-7.81,7.81,3.5,7.81,7.81-3.5,7.81-7.81,7.81ZM98.58,22.18c-3.2,0-5.81,2.6-5.81,5.81s2.6,5.81,5.81,5.81,5.81-2.6,5.81-5.81-2.6-5.81-5.81-5.81Z"/>
  </g>
  <g>
    <g>
      <path d="M39.11,124.27c-1.19,0-.97-.69-1.94-7.75-2.46-.73-4.85-1.7-7.14-2.89l-5.46,4.28c-1.01.79-.6.63-15.3-13.84-.84-.83-.21-1.17,4.1-6.85-1.25-2.3-2.26-4.68-3.02-7.09l-6.88-.84c-1.27-.16-.87-.02-1.03-20.6,0-1.19.68-.97,7.75-1.94.73-2.46,1.69-4.85,2.88-7.14l-4.27-5.47c-.77-.99-.65-.58,13.83-15.31.83-.84,1.15-.22,6.85,4.11,2.26-1.24,4.64-2.25,7.09-3.02l.84-6.88c.15-1.27.02-.87,20.6-1.03,1.26,0,1.02,1,1.95,7.75,2.48.73,4.87,1.7,7.13,2.88,5.68-4.44,5.95-5.02,6.79-4.2,14.66,14.44,14.83,14.09,14.08,15.09l-4.19,5.54c1.24,2.29,2.25,4.67,3.01,7.09,7.1.86,7.75.64,7.76,1.82.16,20.6.53,20.46-.71,20.63l-6.88.94c-.72,2.46-1.69,4.85-2.88,7.13,4.45,5.68,5.04,5.95,4.21,6.79-2.12,2.15-2.93,3.42-3.87,2.5-.96-.95.44-1.87,1.83-3.28-4.3-5.48-4.67-5.59-4.24-6.38,5.68-10.4-.4-8.05,10.69-9.56l-.14-17.87c-6.89-.83-7.24-.65-7.5-1.51-3.36-11.37-5.94-5.44.78-14.34l-12.73-12.54c-5.47,4.28-5.59,4.66-6.38,4.23-10.41-5.66-8.04.37-9.57-10.69l-17.86.14c-.84,6.89-.66,7.24-1.52,7.5-11.38,3.34-5.4,6-14.33-.79l-12.53,12.74c4.25,5.45,4.65,5.59,4.22,6.38-5.64,10.43.32,8.07-10.69,9.58l.14,17.86c6.89.84,7.24.66,7.5,1.52,3.34,11.36,6.01,5.38-.78,14.33l12.73,12.54c5.51-4.32,5.58-4.66,6.37-4.23,10.43,5.65,8.06-.32,9.58,10.7l17.86-.14c.84-6.91.66-7.25,1.53-7.51,11.36-3.3,5.32-6.04,14.32.79l1.34-1.36c.93-.94,2.35.46,1.43,1.4-3.21,3.26-1.66,3.31-8.81-2.11-2.31,1.25-4.69,2.26-7.09,3.01-.88,7.23-.66,7.76-1.83,7.77-6.54.05-13.09.15-19.63.15Z"/>
      <path d="M48.59,102.37c-21.45,0-32.44-26.09-17.16-41.37,9.47-9.48,24.81-9.48,34.27,0,7.84,7.84,9.37,19.96,3.71,29.49-.68,1.14-2.39.12-1.72-1.02,5.19-8.74,3.79-19.86-3.41-27.05-8.69-8.7-22.75-8.69-31.45,0-8.67,8.67-8.67,22.77,0,31.44,7.2,7.19,18.32,8.59,27.06,3.42,1.14-.67,2.16,1.05,1.02,1.72-3.84,2.27-8.1,3.38-12.34,3.38Z"/>
    </g>
    <path d="M89.42,127c-2.41,0-4.69-1.05-6.28-2.77l-29.4-31.87c-.9-.97.57-2.33,1.47-1.36l29.4,31.87c2.55,2.76,6.68,2.78,9.09.38,2.5-2.51,2.25-6.65-.38-9.09l-31.86-29.38c-.97-.9.38-2.37,1.36-1.47l31.86,29.38c5.57,5.18,2.18,14.3-5.25,14.3Z"/>
    <path d="M32.98,75.56c.29-1.76,2.45-2.46,3.71-1.2l8.77,8.77,6.39-1.72,1.72-6.39-8.77-8.77c-1.26-1.26-.56-3.42,1.19-3.71,15.49-2.54,24.8,16.7,13.19,27.27-10.82,9.85-28.66.73-26.21-14.25ZM34.96,75.89c-2.13,13.06,13.45,21.04,22.88,12.45h0c10.15-9.24,1.99-26.03-11.52-23.82-.56.09.02.45,9.07,9.5.56.56.41.41-1.76,8.47-.21.79-.4.62-8.21,2.72-.8.21-.35.36-10.14-9.43-.11-.11-.3-.05-.33.11Z"/>
  </g>
</svg>