<?xml version="1.0" encoding="UTF-8"?>
<svg id="Shipping_Cargo" data-name="Shipping Cargo" xmlns="http://www.w3.org/2000/svg" viewBox="0 0 128 128">
  <path d="M50.61,65.39v-8.32h-16.79c-1.32,0-1.32-2,0-2h17.79c.55,0,1,.45,1,1v9.32c0,1.32-2,1.32-2,0Z"/>
  <path d="M68.39,65.39v-8.32h-16.79c-1.32,0-1.32-2,0-2h17.79c.55,0,1,.45,1,1v9.32c0,1.32-2,1.32-2,0Z"/>
  <path d="M113.69,43.38h-27.04c-.55,0-1-.45-1-1v-13.71c0-.55.45-1,1-1h27.04c.55,0,1,.45,1,1v13.71c0,.55-.45,1-1,1ZM87.65,41.38h25.04v-11.71h-25.04v11.71Z"/>
  <path d="M98.82,66.53h-20.45c-.55,0-1-.45-1-1v-18.94c0-.55.45-1,1-1h35.32c.55,0,1,.45,1,1v9.48c0,1.32-2,1.32-2,0v-8.48h-33.32v16.94h19.45c1.32,0,1.32,2,0,2Z"/>
  <path d="M113.92,86.61c-.71,0-1.19-.72-.93-1.38l11.38-28.17h-21.18v5.08c0,2.42-1.96,4.38-4.38,4.38h-52.02c-2.36,0-4.52-1.39-5.5-3.54l-2.68-5.92H3.79c8.84,17.02,10.41,21.56,17.7,26.73,1.08.77-.08,2.4-1.16,1.63-8.03-5.7-9.58-10.72-19.08-28.9-.35-.67.14-1.46.89-1.46h37.13c.88,0,.75.23,3.85,7.09.66,1.44,2.1,2.37,3.68,2.37h52.02c1.31,0,2.38-1.07,2.38-2.38,0-5.93-.35-7.08,1-7.08,23.48,0,25.35-.5,24.59,1.38-12.29,30.41-11.82,30.17-12.87,30.17Z"/>
  <path d="M113.69,29.67h-30.15c-1.34,0-1-1.36-1-5.21,0-.55.45-1,1-1h30.15c1.34,0,1,1.36,1,5.21,0,.55-.45,1-1,1ZM84.54,27.67h28.15v-2.21h-28.15v2.21Z"/>
  <path d="M99.17,17.97V1.27c0-1.32,2-1.32,2,0v16.71c0,1.32-2,1.32-2,0Z"/>
  <path d="M105.89,25.46h-11.45c-1.34,0-1-1.04-1-7.49,0-.55.45-1,1-1h11.45c1.34,0,1,1.04,1,7.49,0,.55-.45,1-1,1ZM95.44,23.46h9.45v-4.49h-9.45v4.49Z"/>
  <path d="M113.69,47.59h-37.01c-1.34,0-1-1.36-1-5.21,0-.55.45-1,1-1h37.01c1.34,0,1,1.36,1,5.21,0,.55-.45,1-1,1ZM77.68,45.59h35.01v-2.21h-35.01v2.21Z"/>
  <path d="M24.93,57.07H7.14c-.55,0-1-.45-1-1v-9.32c0-.55.45-1,1-1h17.79c.55,0,1,.45,1,1v9.32c0,.55-.45,1-1,1ZM8.14,55.07h15.79v-7.32h-15.79v7.32Z"/>
  <path d="M33.82,47.75h-17.79c-.55,0-1-.45-1-1v-9.32c0-.55.45-1,1-1h17.79c.55,0,1,.45,1,1v9.32c0,.55-.45,1-1,1ZM17.04,45.75h15.79v-7.32h-15.79v7.32Z"/>
  <path d="M51.61,47.75h-17.79c-.55,0-1-.45-1-1v-9.32c0-.55.45-1,1-1h17.79c.55,0,1,.45,1,1v9.32c0,.55-.45,1-1,1ZM34.82,45.75h15.79v-7.32h-15.79v7.32Z"/>
  <path d="M42.71,57.07h-17.79c-.55,0-1-.45-1-1v-9.32c0-.55.45-1,1-1h17.79c.55,0,1,.45,1,1v9.32c0,.55-.45,1-1,1ZM25.93,55.07h15.79v-7.32h-15.79v7.32Z"/>
  <path d="M60.5,57.07h-17.79c-.55,0-1-.45-1-1v-9.32c0-.55.45-1,1-1h17.79c.55,0,1,.45,1,1v9.32c0,.55-.45,1-1,1ZM43.71,55.07h15.79v-7.32h-15.79v7.32Z"/>
  <path d="M54.58,78.56h-5.95c-4.19,0-4.19-6.34,0-6.34h5.95c4.2,0,4.2,6.34,0,6.34ZM48.63,74.22c-1.54,0-1.54,2.34,0,2.34,6.37,0,6.41.12,6.81-.34.53-.61.37-2-.87-2h-5.95Z"/>
  <path d="M70.49,78.56h-5.95c-4.2,0-4.2-6.34,0-6.34h5.95c4.19,0,4.19,6.34,0,6.34ZM64.54,74.22c-1.54,0-1.54,2.34,0,2.34,6.37,0,6.41.12,6.81-.34.54-.6.37-2-.86-2h-5.95Z"/>
  <path d="M86.4,78.56h-5.95c-4.19,0-4.19-6.34,0-6.34h5.95c4.2,0,4.2,6.34,0,6.34ZM80.46,74.22c-1.54,0-1.54,2.34,0,2.34,6.37,0,6.41.12,6.81-.34.53-.61.37-2-.87-2h-5.95Z"/>
  <path d="M102.31,78.56h-5.95c-4.2,0-4.2-6.34,0-6.34h5.95c4.19,0,4.19,6.34,0,6.34ZM96.37,74.22c-1.54,0-1.54,2.34,0,2.34,6.37,0,6.41.12,6.81-.34.54-.6.37-2-.86-2h-5.95Z"/>
  <path d="M31.36,69.17H8.47c-1.32,0-1.32-2,0-2h22.89c1.32,0,1.32,2,0,2Z"/>
  <path d="M88.57,52.41h-10.21c-1.32,0-1.32-2,0-2h10.21c1.32,0,1.32,2,0,2Z"/>
  <path d="M96.9,34.17h-10.21c-1.32,0-1.32-2,0-2h10.21c1.32,0,1.32,2,0,2Z"/>
  <path d="M126,127H2.14c-.55,0-1-.45-1-1,0-42.67-.2-42.2.36-42.67.51-.42.91-.2,3.54.33,13.5,2.71,11.68-1.55,22.54.39,11.11,1.98,10.29-1.86,20.64,0,10.91,1.96,10.34-1.84,20.63,0,11.03,1.96,10.36-1.84,20.65,0,11.32,2.03,10.01-2.09,22.01.24,9.05,1.75,15.48-3.15,15.48-.18v41.9c0,.55-.45,1-1,1ZM3.14,125h121.86v-39.68c-5.19,1.05-8.78,1.91-13.86.92-11.4-2.2-10.36,1.84-21.98-.23-9.46-1.69-9.61,1.96-20.64,0-9.51-1.69-9.67,1.97-20.63,0-9.4-1.69-9.62,1.96-20.64,0-11.12-1.98-7.14,2.67-24.09-.7v39.68Z"/>
  <path d="M77.87,99.2c-1.3.25-1.68-1.71-.38-1.96,10.22-1.98,11.54,1.48,19.17,0,10.3-1.99,11.48,1.49,19.17,0l5.55-1.08c1.29-.26,1.69,1.71.38,1.96l-5.55,1.08c-8.26,1.6-9.23-1.93-19.17,0-8.36,1.62-9.1-1.95-19.17,0Z"/>
  <path d="M40.78,98.99c-10.79,1.92-9.86-1.83-20.39.21-5.13.99-8.6-.03-14-1.07-1.3-.25-.92-2.22.38-1.96,5.28,1.03,8.52,1.99,13.24,1.07,11.09-2.15,9.93,1.65,20.42-.22,10.05-1.8,8.6,2.02,19.41-.07,1.3-.26,1.68,1.71.38,1.96-11.22,2.18-9.91-1.61-19.44.08Z"/>
  <path d="M77.87,113.13c-8.28,1.6-9.2-1.93-19.16,0-1.31.25-1.67-1.71-.38-1.96,10.23-1.98,11.49,1.48,19.16,0,10.22-1.98,11.54,1.48,19.17,0,10.27-1.99,11.5,1.49,19.17,0l5.55-1.08c1.29-.26,1.69,1.71.38,1.96l-5.55,1.08c-8.21,1.59-9.27-1.92-19.17,0-8.35,1.62-9.13-1.95-19.17,0Z"/>
  <path d="M6.38,112.05c-1.3-.25-.92-2.22.38-1.96,5.3,1.03,8.53,1.99,13.24,1.07,11.44-2.22,9.7,1.83,20.67-.29,1.29-.26,1.69,1.71.38,1.96-11.44,2.22-9.71-1.83-20.67.29-5.12.99-8.56-.02-14-1.07Z"/>
</svg>