<?xml version="1.0" encoding="UTF-8"?>
<svg id="Valves" xmlns="http://www.w3.org/2000/svg" viewBox="0 0 128 128">
  <path d="M120.21,89.63h-30.92c-1.32,0-1.32-2,0-2h29.92v-27.88h-29.92c-1.32,0-1.32-2,0-2h30.92c.55,0,1,.45,1,1v29.88c0,.55-.45,1-1,1Z"/>
  <path d="M38.71,89.63H7.79c-.55,0-1-.45-1-1v-29.88c0-.55.45-1,1-1h30.92c1.32,0,1.32,2,0,2H8.79v27.88h29.92c1.32,0,1.32,2,0,2Z"/>
  <path d="M70.61,53.22v-5.19c0-.58-.48-1.06-1.06-1.06h-11.1c-.58,0-1.06.48-1.06,1.06v5.19c0,1.32-2,1.32-2,0v-5.19c0-1.69,1.37-3.06,3.06-3.06h11.1c1.69,0,3.06,1.37,3.06,3.06v5.19c0,1.32-2,1.32-2,0Z"/>
  <path d="M120.21,92.15c-.55,0-1-.45-1-1v-34.93c0-1.35,1.17-1,6.79-1,.55,0,1,.45,1,1v34.93c0,1.35-1.17,1-6.79,1ZM121.21,90.15h3.79v-32.93h-3.79v32.93Z"/>
  <g>
    <path d="M89.29,92.15h-10.08c-.55,0-1-.45-1-1,0-1.34-.27-2.8,1-2.8,1.1,0,1,1.11,1,1.8h8.08v-32.93h-8.08v.81c0,1.32-2,1.32-2,0s-.27-2.81,1-2.81h10.08c.55,0,1,.45,1,1v34.93c0,.55-.45,1-1,1Z"/>
    <path d="M48.79,92.15h-10.08c-.55,0-1-.45-1-1v-34.93c0-.55.45-1,1-1h10.08c.55,0,1,.45,1,1,0,1.34.27,2.81-1,2.81-1.1,0-1-1.11-1-1.81h-8.08v32.93h8.08v-.8c0-1.32,2-1.32,2,0s.27,2.8-1,2.8Z"/>
  </g>
  <path d="M2,92.15c-.55,0-1-.45-1-1v-34.93c0-1.35,1.17-1,6.79-1,.55,0,1,.45,1,1v34.93c0,1.35-1.17,1-6.79,1ZM3,90.15h3.79v-32.93h-3.79v32.93Z"/>
  <g>
    <path d="M64,96.53c-12.59,0-22.84-10.25-22.84-22.84s10.25-22.84,22.84-22.84,22.84,10.25,22.84,22.84-10.25,22.84-22.84,22.84ZM64,52.85c-11.49,0-20.84,9.35-20.84,20.84s9.35,20.84,20.84,20.84,20.84-9.35,20.84-20.84-9.35-20.84-20.84-20.84Z"/>
    <path d="M64,88.32c-8.07,0-14.63-6.56-14.63-14.63s6.56-14.63,14.63-14.63,14.63,6.56,14.63,14.63-6.56,14.63-14.63,14.63ZM64,61.05c-6.97,0-12.63,5.67-12.63,12.63s5.67,12.63,12.63,12.63,12.63-5.67,12.63-12.63-5.67-12.63-12.63-12.63Z"/>
  </g>
  <path d="M64,58.17c-1.34,0-1-1.56-1-3.89,0-1.32,2-1.32,2,0v2.89c0,.55-.45,1-1,1Z"/>
  <path d="M74.97,61.3l2.05-2.05c.39-.39,1.02-.39,1.41,0,.95.95-.4,1.81-2.05,3.46-.93.93-2.35-.48-1.41-1.41Z"/>
  <path d="M83.41,74.69h-2.89c-.55,0-1-.45-1-1,0-1.34,1.56-1,3.89-1,1.32,0,1.32,2,0,2Z"/>
  <path d="M77.73,88.41c-.59,0-.71-.3-2.75-2.34-.94-.94.48-2.35,1.41-1.41l2.05,2.05c.63.63.17,1.71-.71,1.71Z"/>
  <path d="M64,94.1c-1.34,0-1-1.56-1-3.89,0-1.32,2-1.32,2,0v2.89c0,.55-.45,1-1,1Z"/>
  <path d="M49.57,86.71l2.05-2.05c.39-.39,1.02-.39,1.41,0,.95.95-.4,1.81-2.05,3.46-.93.93-2.35-.48-1.41-1.41Z"/>
  <path d="M47.48,74.69h-2.89c-.55,0-1-.45-1-1,0-1.34,1.56-1,3.89-1,1.32,0,1.32,2,0,2Z"/>
  <path d="M52.32,63.01c-.59,0-.71-.3-2.75-2.34-.94-.94.48-2.35,1.41-1.41l2.05,2.05c.63.63.17,1.71-.71,1.71Z"/>
  <path d="M64,79.9c-3.43,0-6.21-2.79-6.21-6.21s2.79-6.21,6.21-6.21,6.21,2.79,6.21,6.21-2.79,6.21-6.21,6.21ZM64,69.47c-2.32,0-4.21,1.89-4.21,4.21s1.89,4.21,4.21,4.21,4.21-1.89,4.21-4.21-1.89-4.21-4.21-4.21Z"/>
  <path d="M67.64,46.97h-7.29c-.55,0-1-.45-1-1v-8.36c0-.55.45-1,1-1h7.29c.55,0,1,.45,1,1v8.36c0,.55-.45,1-1,1ZM61.36,44.97h5.29v-6.36h-5.29v6.36Z"/>
  <path d="M80.61,38.62h-33.21c-4.73,0-4.73-7.14,0-7.14h33.21c4.72,0,4.72,7.14,0,7.14ZM47.39,33.47c-2.08,0-2.08,3.14,0,3.14h33.21c2.08,0,2.08-3.14,0-3.14h-33.21Z"/>
</svg>