<?xml version="1.0" encoding="UTF-8"?>
<svg id="Waste" xmlns="http://www.w3.org/2000/svg" viewBox="0 0 128 128">
  <g>
    <path d="M83.03,44.3c-.93,0-.55.22-6.62-13.46-.86-1.93-2.78-3.19-4.91-3.19h-11.67c-1.32,0-1.32-2,0-2h11.67c2.91,0,5.56,1.72,6.73,4.37l5.7,12.86c.29.66-.2,1.41-.91,1.41Z"/>
    <path d="M82.49,52.12c-.97,0-.55.24-9.42-19.79-.6-1.37-.73-1.02-13.23-1.02-1.32,0-1.32-2,0-2h11.67c1.47,0,2.8.87,3.39,2.21l8.51,19.19c.29.66-.2,1.41-.91,1.41Z"/>
  </g>
  <path d="M104.29,77.88l-4.4-63.46h-13.85c-.01.2-2.71,39.2-3.37,48.55-.09,1.3-2.09,1.19-2-.14,3.53-50.46,2.94-50.41,4.43-50.41,16.29,0,16.63-.39,16.72.93l4.47,64.39c.09,1.32-1.9,1.46-2,.14Z"/>
  <path d="M33.84,34.12v-14.14c0-1.32,2-1.32,2,0v14.14c0,1.32-2,1.32-2,0Z"/>
  <path d="M58.84,43.79v-23.81c0-1.32,2-1.32,2,0v23.81c0,1.32-2,1.32-2,0Z"/>
  <path d="M58.84,16.47V6.42h-23v10.05c0,1.32-2,1.32-2,0V5.42c0-.55.45-1,1-1h25c.55,0,1,.45,1,1v11.05c0,1.32-2,1.32-2,0Z"/>
  <path d="M109.08,87.96c-.55,0-1-.45-1-1v-7.03c0-1.14-.05-.78-21.83-.78-1.32,0-1.32-2,0-2h21.05c1.53,0,2.78,1.25,2.78,2.78,0,7.07.35,8.03-1,8.03Z"/>
  <path d="M22.31,76.03V31.57c0-1.62,1.63-2.74,3.14-2.15,47.36,18.31,46.95,17.54,46.95,19.65v13.83c0,1.32-2,1.32-2,0v-13.77c-1.25-.94-10.77-4.34-45.67-17.84-.61-.23-.42-3.83-.42,44.75,0,1.32-2,1.32-2,0Z"/>
  <path d="M23.31,87.96c-1.35,0-1-1.17-1-6.71,0-1.32,2-1.32,2,0v5.71c0,.55-.45,1-1,1Z"/>
  <path d="M85.25,86.96v-20.52c0-1.4-1.13-2.54-2.53-2.54h-50.67c-1.4,0-2.54,1.14-2.54,2.54v20.52c0,1.32-2,1.32-2,0v-20.52c0-2.5,2.04-4.54,4.54-4.54h50.67c2.5,0,4.53,2.04,4.53,4.54v20.52c0,1.32-2,1.32-2,0Z"/>
  <path d="M23.31,87.96c-1.35,0-1-1.17-1-6.71,0-2.36,2.73-1.94,5.2-1.92v-2.38h-3.3c-2.37,0-4.29,1.93-4.29,4.3v5.71c0,.55-.45,1-1,1-1.35,0-1-1.17-1-6.71,0-3.47,2.82-6.3,6.29-6.3,6.26,0,5.3-.99,5.3,5.39,0,1.77-2.99.66-5.2,1.02,0,5.43.34,6.6-1,6.6Z"/>
  <path d="M79.74,76.95h-44.72c-.55,0-1-.45-1-1,0-5.37-.34-6.57,1-6.57h44.72c.55,0,1,.45,1,1,0,5.37.34,6.57-1,6.57ZM36.03,74.95h42.72v-3.57h-42.72v3.57Z"/>
  <path d="M66.43,86.96v-4.75h-18.09v4.75c0,1.32-2,1.32-2,0v-5.75c0-.55.45-1,1-1h20.09c.55,0,1,.45,1,1v5.75c0,1.32-2,1.32-2,0Z"/>
  <path d="M103.37,51.14h-20.81c-1.48,0-1.02-.7.17-18.02.09-1.33.16-.93,19.46-.93,1.32,0,.95.22,2.17,17.88.04.58-.42,1.07-1,1.07ZM83.63,49.14h18.67l-1.03-14.95h-16.6l-1.03,14.95Z"/>
  <path d="M62.29,6.42h-29.89c-.55,0-1-.45-1-1V1.92c0-.55.45-1,1-1h29.89c.55,0,1,.45,1,1v3.5c0,.55-.45,1-1,1ZM33.4,4.42h27.89v-1.5h-27.89v1.5Z"/>
  <path d="M62.29,20.98h-29.89c-.55,0-1-.45-1-1v-3.5c0-.55.45-1,1-1h29.89c.55,0,1,.45,1,1v3.5c0,.55-.45,1-1,1ZM33.4,18.98h27.89v-1.5h-27.89v1.5Z"/>
  <path d="M37.81,55.96c-6.8,0-7.81.35-7.81-1,0-6.8-.35-7.81,1-7.81,6.8,0,7.81-.35,7.81,1,0,6.8.35,7.81-1,7.81ZM32,53.96h4.81v-4.81h-4.81v4.81Z"/>
  <path d="M49.3,55.96c-6.8,0-7.81.35-7.81-1,0-6.8-.35-7.81,1-7.81,6.8,0,7.81-.35,7.81,1,0,6.8.35,7.81-1,7.81ZM43.49,53.96h4.81v-4.81h-4.81v4.81Z"/>
  <path d="M60.8,55.96c-6.8,0-7.81.35-7.81-1,0-6.8-.35-7.81,1-7.81,6.8,0,7.81-.35,7.81,1,0,6.8.35,7.81-1,7.81ZM54.98,53.96h4.81v-4.81h-4.81v4.81Z"/>
  <path d="M126,127H2c-.55,0-1-.45-1-1v-39.04c0-.55.45-1,1-1h124c.55,0,1,.45,1,1v39.04c0,.55-.45,1-1,1ZM3,125h122v-37.04H3v37.04Z"/>
  <g>
    <path d="M40.67,114.79c8.5-8.03,2.86-22.42-8.9-22.42s-17.39,14.43-8.9,22.41c.96.91-.41,2.36-1.37,1.46-9.81-9.23-3.28-25.87,10.28-25.87s20.08,16.61,10.28,25.88c-.95.9-2.34-.54-1.37-1.45Z"/>
    <path d="M39.87,109c2.6-5.66-1.46-12.53-8.1-12.53s-10.7,6.86-8.09,12.53c.55,1.2-1.27,2.04-1.82.83-3.25-7.07,1.94-15.37,9.91-15.37s13.16,8.31,9.92,15.37c-.55,1.2-2.37.37-1.82-.83Z"/>
  </g>
  <g>
    <path d="M86.64,116.52c-1.45,0-7.97-7.49-4.3-16.73,5-12.56,22.77-12.59,27.77.02,2.32,5.86.94,12.15-3.6,16.43-.96.91-2.33-.55-1.37-1.46,3.94-3.7,5.13-9.15,3.12-14.23-4.34-10.93-19.73-10.89-24.05-.02-2.02,5.07-.82,10.54,3.12,14.26.66.62.21,1.73-.69,1.73Z"/>
    <path d="M86.31,109.84c-1.54-3.35-1.25-7.22.76-10.36,4.28-6.67,14.03-6.68,18.31,0,2.01,3.14,2.3,7.02.76,10.36-.55,1.2-2.37.37-1.82-.83,1.25-2.72,1.02-5.88-.63-8.45-3.5-5.46-11.44-5.45-14.94,0-1.64,2.57-1.88,5.72-.63,8.45.55,1.2-1.27,2.03-1.82.83Z"/>
  </g>
  <path d="M40.36,121.26v-10.15c0-.96-.79-1.75-1.75-1.75h-13.67c-.97,0-1.76.79-1.76,1.75v8.78c0,1.32-2,1.32-2,0v-8.78c0-2.07,1.69-3.75,3.76-3.75h13.67c2.07,0,3.75,1.68,3.75,3.75v10.15c0,1.32-2,1.32-2,0Z"/>
  <path d="M85.64,121.26v-10.15c0-2.07,1.68-3.75,3.75-3.75h13.67c2.07,0,3.76,1.68,3.76,3.75v8.78c0,1.32-2,1.32-2,0v-8.78c0-.96-.79-1.75-1.76-1.75h-13.67c-.96,0-1.75.79-1.75,1.75v10.15c0,1.32-2,1.32-2,0Z"/>
  <path d="M126,127H2c-.55,0-1-.45-1-1,0-6.63-.34-7.64,1-7.64,6.33,0,6.47,2,12.4,2s6.03-2,12.4-2,6.47,2,12.4,2,6.07-2,12.4-2,6.47,2,12.39,2,6.03-2,12.4-2,6.47,2,12.4,2,6.03-2,12.4-2,6.47,2,12.41,2,6.04-2,12.41-2c1.34,0,1,.99,1,7.64,0,.55-.45,1-1,1ZM3,125h122v-4.62c-5.02.2-5.36,1.98-11.41,1.98s-6.47-2-12.41-2-6.03,2-12.4,2-6.47-2-12.4-2-6.07,2-12.4,2-6.47-2-12.39-2-6.03,2-12.4,2-6.47-2-12.4-2-6.03,2-12.4,2c-6.03,0-6.41-1.78-11.4-1.98v4.62Z"/>
</svg>