<?xml version="1.0" encoding="UTF-8"?>
<svg id="Windmill_Generator" data-name="Windmill Generator" xmlns="http://www.w3.org/2000/svg" viewBox="0 0 128 128">
  <g>
    <path d="M31.53,117c-.53,0-.97-.42-1-.95l-2.26-49.45c-.06-1.32,1.94-1.42,2-.09,2.43,53.26,2.77,50.5,1.26,50.5Z"/>
    <path d="M21.67,115.95c.46-10.12,2.06-35.21,2.06-45.19,0-1.32,2-1.32,2,0,0,10.06-1.6,35.24-2.06,45.29-.06,1.32-2.06,1.23-2-.09Z"/>
    <g>
      <path d="M29.66,60.96c-.62,0-1.1-.57-.98-1.18.3-1.65-.46-4.74-.27-7.21.23-3.05,3.25-12.22,2.87-14.43-3.21,1.5-8.78,10.76-8.37,15.03.25,2.46,1.6,4.56,2.7,5.89.84,1.02-.7,2.29-1.54,1.27-1.27-1.54-2.85-4-3.14-6.97-.58-6.07,8.35-19.72,11.64-16.92,1.34,1.14.75,4.08-.89,10.52-1.42,5.55-1.44,5.72-1.09,9.22.25,2.43.53,4.78-.9,4.78Z"/>
      <path d="M47.47,80.28c-2.82,0-9.69-7.95-12.58-9.85-2.18-1.44-5.77-2.23-7.17-3.92-.85-1.02.69-2.3,1.54-1.28.94,1.13,4.52,2.07,6.73,3.52,2.43,1.6,9.16,8.76,11.24,9.47.24-3.62-5.09-12.85-9.12-14.59-2.5-1.08-5.27-.78-7.15-.33-1.3.29-1.74-1.64-.46-1.95,2.18-.51,5.4-.85,8.41.45,6.12,2.64,13.86,18.48,8.57,18.48Z"/>
      <path d="M3.01,74.31c.24-3.01,11.03-5.74,14.43-7.84,1.81-1.12,3.81-3.44,5.58-4.41,1.16-.64,2.12,1.12.96,1.75-1.39.76-3.57,3.17-5.5,4.35-2.6,1.61-11.79,4.56-13.35,6.17,3.11,1.72,13.87.77,17.07-2.08.61-.54,1.16-1.19,1.63-1.94.12-.26,1.15-1.65,1.72-4.42.26-1.3,2.22-.9,1.96.4-.57,2.81-1.86,5.59-3.98,7.46-4.57,4.06-20.86,4.84-20.53.55Z"/>
    </g>
    <path d="M33.72,120.76c-14.02,0-13.58.16-14.01-.36-.4-.48-.19-.86,0-2.17.61-4.17,1.66-3.23,12.16-3.23,2.4,0,2.44,2.46,2.83,4.58.12.61-.36,1.18-.98,1.18ZM21.66,118.76h10.88c-.25-1.61-.38-1.76-.67-1.76-10.52,0-9.84-.79-10.21,1.76Z"/>
    <path d="M27.1,67.13c-6.18,0-6.18-9.2,0-9.2s6.18,9.2,0,9.2ZM27.1,59.92c-3.53,0-3.53,5.2,0,5.2s3.53-5.2,0-5.2Z"/>
  </g>
  <path d="M126,126.74H2c-1.33,0-1-1.08-1-6.98,0-.55.45-1,1-1h124c1.33,0,1,1.08,1,6.98,0,.55-.45,1-1,1ZM3,124.74h122v-3.98H3v3.98Z"/>
  <path d="M123,103.11c0-69.09.44-65.11-.98-64.57l-30.81,11.91c-1.23.48-1.96-1.39-.72-1.87l30.81-11.91c1.78-.68,3.7.63,3.7,2.53v63.9c0,1.32-2,1.32-2,0Z"/>
  <path d="M68.45,59.18c-1.1,0-1.39-1.53-.36-1.93l14.37-5.55c1.24-.47,1.95,1.39.72,1.87-14.7,5.68-14.44,5.62-14.73,5.62Z"/>
  <g>
    <path d="M125,119.51c0-12.47.56-13.79-1.64-15.63-2.79-2.34-7.19.12-7.19-2.09,0-1.21,1.32-1,2.27-1.01,2.57-.03,4.27-.05,6.2,1.56,3.07,2.56,2.36,4.85,2.36,17.17,0,1.32-2,1.32-2,0Z"/>
    <path d="M120.36,119.51v-12.12c-2.61.04-4.19.41-4.19-.95,0-.55.45-1,1-1h3.23c1.08,0,1.96.87,1.96,1.95v12.12c0,1.32-2,1.32-2,0Z"/>
  </g>
  <g>
    <path d="M59.07,80.31l1.46-31.93c.06-1.31,2.06-1.23,2,.09l-1.46,31.93c-.06,1.32-2.06,1.23-2-.09Z"/>
    <path d="M68.45,80.41l-1.7-37.71c-.06-1.32,1.94-1.42,2-.09l1.7,37.71c.06,1.32-1.94,1.41-2,.09Z"/>
    <g>
      <path d="M68.27,34.61c-.63,0-1.09-.57-.99-1.17.42-2.37-.62-6.54-.36-9.9.32-4.16,4.97-18.38,3.8-20.26-3.74.64-12.72,14.48-12.08,21.1.64,6.52,5.31,8.26,3.65,9.65-.42.35-1.05.3-1.41-.13-1.71-2.05-3.84-5.33-4.23-9.33-.82-8.5,11.38-26.25,15.34-22.86,2.89,2.47-2.66,16.61-3.08,21.99-.31,4.08,1.65,10.92-.65,10.92Z"/>
      <path d="M92.67,61.09c-3.69,0-13.04-10.81-17.04-13.44-2.99-1.95-7.78-3.04-9.72-5.25-.87-.99.63-2.31,1.5-1.32,1.5,1.71,6.28,2.92,9.32,4.9,3.61,2.37,13.7,13.28,15.9,13.12,1.25-3.55-6.49-18.11-12.64-20.76-3.76-1.62-7.9-1-10.04-.48-1.28.31-1.76-1.63-.47-1.94,2.38-.58,7.01-1.27,11.3.58,8.28,3.58,18.34,24.59,11.88,24.59Z"/>
      <path d="M32.14,53.3c.3-3.8,14.99-7.62,19.59-10.45,2.52-1.55,5.27-4.72,7.63-6.02,1.16-.64,2.12,1.11.96,1.75-1.97,1.09-4.93,4.37-7.55,5.98-3.55,2.19-17.78,6.81-18.62,8.85,2.69,2.65,19.19,1.76,24.16-2.65.87-.77,1.63-1.67,2.32-2.76.01-.03.03-.06.05-.08,2.76-4.46,1.73-7.23,3.52-6.84.54.11.89.64.77,1.18-.36,1.72-1.09,4.25-2.54,6.63-4.65,9.87-30.71,9.7-30.29,4.43Z"/>
    </g>
    <path d="M64.77,43.11c-3.29,0-5.97-2.68-5.97-5.97s2.68-5.97,5.97-5.97,5.97,2.68,5.97,5.97-2.68,5.97-5.97,5.97ZM64.77,33.17c-2.19,0-3.97,1.78-3.97,3.97s1.78,3.97,3.97,3.97,3.97-1.78,3.97-3.97-1.78-3.97-3.97-3.97Z"/>
  </g>
  <path d="M116.17,119.51v-35.62c0-1.4-1.14-2.54-2.54-2.54H44.87c-1.4,0-2.54,1.14-2.54,2.54v35.62c0,1.32-2,1.32-2,0v-35.62c0-2.5,2.03-4.54,4.54-4.54h68.76c2.5,0,4.54,2.03,4.54,4.54v35.62c0,1.32-2,1.32-2,0Z"/>
  <path d="M108.61,98.5h-58.73c-.55,0-1-.45-1-1v-7.32c0-.55.45-1,1-1h58.73c.55,0,1,.45,1,1v7.32c0,.55-.45,1-1,1ZM50.89,96.5h56.73v-5.32h-56.73v5.32Z"/>
  <path d="M91.44,119.51v-14.11h-24.38v14.11c0,1.32-2,1.32-2,0v-15.11c0-.55.45-1,1-1h26.38c.55,0,1,.45,1,1v15.11c0,1.32-2,1.32-2,0Z"/>
</svg>