<?xml version="1.0" encoding="UTF-8"?>
<svg id="Worker" xmlns="http://www.w3.org/2000/svg" viewBox="0 0 128 128">
  <path d="M79.19,68.89c-.42,0-1.04-.13-5.75-.31-1.34-.05-1.23-2.07.08-2,2.72.1,3.28.14,5.74.31,1.28.09,1.21,2-.07,2Z"/>
  <path d="M48.84,68.78l-.15-.99.03-1c1.64-.09,2.73-.15,5.76-.24,1.29-.07,1.4,1.96.05,2-3,.08-4.08.14-5.7.23Z"/>
  <path d="M109.94,126.97c-92.63,0-92.16.2-92.63-.34-.46-.53-.33-.08,6.2-48.69.65-4.77,5.34-8.43,12.55-9.79,1.3-.25,1.67,1.72.37,1.96-2.37.45-10.16,2.35-10.94,8.09l-6.29,46.77h89.59l-6.29-46.77c-.76-5.88-5.97-6.6-10.94-7.63-1.3-.27-.89-2.23.41-1.96,2.13.44,3.15.65,5.44,1.26,3.79,1.02,6.57,4.19,7.07,8.07l6.44,47.9c.08.6-.39,1.13-.99,1.13Z"/>
  <path d="M65.31,77.46h-2.62c-5.06,0-9.18-4.11-9.18-9.17,0-5.68-.34-6.85,1-6.85.55,0,1,.45,1,1v5.85c0,3.95,3.22,7.17,7.18,7.17h2.62c3.95,0,7.17-3.22,7.17-7.17v-5.85c0-1.32,2-1.32,2,0v5.85c0,5.06-4.11,9.17-9.17,9.17Z"/>
  <path d="M64,65.83c-10.51,0-18.53-7.48-20.01-15.35-.94-3.51-.7-5.19-.7-16.99,0-1.32,2-1.32,2,0,0,11.66-.23,13.28.65,16.53,4.88,18.41,31.21,18.44,36.13,0,.85-3.15.64-4.75.64-16.53,0-1.32,2-1.32,2,0,0,12.07.23,13.6-.71,17.05-2.48,9.3-10.34,15.29-20,15.29Z"/>
  <path d="M86.48,46.5h-2.79c-.55,0-1-.45-1-1v-12c0-.55.45-1,1-1h3.7c1.79,0,3.25,1.46,3.25,3.25v6.59c0,2.3-1.87,4.16-4.16,4.16ZM84.69,44.5h1.79c1.19,0,2.16-.97,2.16-2.16v-6.59c0-.69-.56-1.25-1.25-1.25h-2.7v10Z"/>
  <path d="M44.3,46.5h-2.79c-2.3,0-4.16-1.87-4.16-4.16v-7.11c0-1.5,1.22-2.73,2.73-2.73,3.83,0,5.22-.35,5.22,1v12c0,.55-.45,1-1,1ZM40.07,34.49c-1.01,0-.73.63-.73,7.84,0,1.19.97,2.16,2.16,2.16h1.79v-10h-3.22Z"/>
  <path d="M86.48,29.06c-.55,0-1-.45-1-1v-6.14c0-7.69-5.55-15.87-15.83-15.87-1.32,0-1.32-2,0-2,11.58,0,17.83,9.21,17.83,17.87,0,6.11.33,7.14-1,7.14Z"/>
  <path d="M41.52,29.02c-.55,0-1-.45-1-1v-6.1c0-9.85,7.69-17.87,17.15-17.87,1.32,0,1.32,2,0,2-8.35,0-15.15,7.12-15.15,15.87,0,5.95.34,7.1-1,7.1Z"/>
  <path d="M66.05,24.59c.25-18.41,3.61-19.14,2.38-20.89-.62-.89-.78-.66-8.26-.66-1.07,0-1.83,1.04-1.47,2.04,1.09,3.06,2.42,8.93,2.56,19.52.02,1.32-1.98,1.35-2,.03-.14-10.32-1.41-15.96-2.44-18.87-.85-2.33.93-4.72,3.35-4.72,6.83,0,8.5-.47,9.89,1.51,2.15,3.05-1.75,2.89-2.01,22.07-.02,1.32-2.02,1.3-2-.03Z"/>
  <path d="M88.62,34.49h-49.24c-.55,0-1-.45-1-1,0-4.97-.25-5.62.75-5.88,15.38-4.05,15.19-4.02,15.39-4.02,18.01,0,17.83-.02,18.02.03,17.24,4.21,17.09,3.83,17.09,4.96v4.91c0,.55-.45,1-1,1ZM40.38,32.49h47.24v-3.12l-15.45-3.77h-17.53l-14.26,3.76v3.14Z"/>
  <path d="M93.74,127c-60.16,0-59.73.17-60.19-.31-.46-.48-.31-.01,1.72-58.07,0-1.15,1-2.11,2.24-2.11h10.39c1.23,0,2.24.96,2.24,2.14v15.12c0,.95.77,1.72,1.72,1.72h24.3c.95,0,1.72-.77,1.72-1.72v-15.12c0-1.18,1-2.14,2.24-2.14h10.39c1.23,0,2.24.96,2.24,2.14,2.16,61.88,2.49,58.34,1,58.34ZM35.3,125h57.4l-1.96-56.3c0-.27,0-.18-10.63-.18-.37,0-.24,0-.24,15.26,0,2.05-1.67,3.72-3.72,3.72h-24.3c-2.05,0-3.72-1.67-3.72-3.72v-15.12c0-.22,0-.14-10.63-.14-.37,0-.23.01-2.2,56.48Z"/>
  <path d="M85.19,126.63h-42.37c-.55,0-1-.45-1-1v-17.29c0-1.37,1.12-2.49,2.49-2.49h39.4c1.37,0,2.49,1.12,2.49,2.49v17.29c0,.55-.45,1-1,1ZM43.81,124.63h40.37v-16.29c0-.76,0-.49-39.89-.49-.75,0-.49,0-.49,16.77Z"/>
</svg>