<?xml version="1.0" encoding="utf-8"?>
<!-- Generator: Adobe Illustrator 28.7.1, SVG Export Plug-In . SVG Version: 9.03 Build 54978)  -->
<svg version="1.0" id="Layer_1" xmlns="http://www.w3.org/2000/svg" xmlns:xlink="http://www.w3.org/1999/xlink" x="0px" y="0px"
	 viewBox="0 0 64 64" style="enable-background:new 0 0 64 64;" xml:space="preserve">
<style type="text/css">
	.st0{fill:none;stroke:#231F20;stroke-width:2;stroke-linecap:round;stroke-linejoin:round;stroke-miterlimit:10;}
</style>
<g>
	<rect x="6.7" y="37.4" class="st0" width="44.7" height="22.4"/>
	<rect x="2.9" y="31.6" class="st0" width="52.3" height="5.8"/>
	<polyline class="st0" points="38.6,59.8 51.4,59.8 61.1,59.8 61.1,16.1 49.9,25.5 49.9,16.1 38.6,25.5 38.6,31.6 	"/>
	<polygon class="st0" points="19.4,31.6 8.8,31.6 10.4,4.2 17.9,4.2 	"/>
	<line class="st0" x1="10.1" y1="8.5" x2="18.1" y2="8.5"/>
	<path class="st0" d="M22.4,18.8c4.5-4.5,11.8-4.5,16.3,0"/>
	<path class="st0" d="M25.7,22.4c2.7-2.7,7.1-2.7,9.8,0"/>
	<path class="st0" d="M27.7,26.6c1.6-1.6,4.1-1.6,5.7,0"/>
	<rect x="11.6" y="41.3" class="st0" width="7.8" height="4.8"/>
	<rect x="24.9" y="41.3" class="st0" width="7.8" height="4.8"/>
	<rect x="38.7" y="41.3" class="st0" width="7.8" height="4.8"/>
</g>
</svg>
