<?xml version="1.0" encoding="utf-8"?>
<!-- Generator: Adobe Illustrator 28.7.1, SVG Export Plug-In . SVG Version: 9.03 Build 54978)  -->
<svg version="1.0" id="Layer_1" xmlns="http://www.w3.org/2000/svg" xmlns:xlink="http://www.w3.org/1999/xlink" x="0px" y="0px"
	 viewBox="0 0 64 64" style="enable-background:new 0 0 64 64;" xml:space="preserve">
<style type="text/css">
	.st0{fill:none;stroke:#231F20;stroke-width:2;stroke-linecap:round;stroke-linejoin:round;stroke-miterlimit:10;}
</style>
<g>
	<path class="st0" d="M50.8,14.4h6c1.6,0,2.9,1.3,2.9,2.9V43v5.4c0,1.6-1.3,2.9-2.9,2.9H36.9h-9.9H7.3c-1.6,0-2.9-1.3-2.9-2.9V43
		V17.2c0-1.6,1.3-2.9,2.9-2.9h2.5"/>
	<rect x="27.1" y="51.3" class="st0" width="9.9" height="9.9"/>
	<line class="st0" x1="21.4" y1="61.1" x2="42.6" y2="61.1"/>
	<polygon class="st0" points="50,37 50,19.3 29.4,19.3 29.4,4.7 14.5,11.5 14.5,37 	"/>
	<rect x="33.5" y="8" class="st0" width="4.1" height="11.2"/>
	<rect x="41.7" y="2.9" class="st0" width="4.1" height="16.4"/>
	<line class="st0" x1="4.4" y1="43" x2="59.6" y2="43"/>
	<line class="st0" x1="14.5" y1="26" x2="35.4" y2="26"/>
	<line class="st0" x1="14.5" y1="31.2" x2="35.4" y2="31.2"/>
</g>
</svg>
