<?xml version="1.0" encoding="utf-8"?>
<!-- Generator: Adobe Illustrator 28.7.1, SVG Export Plug-In . SVG Version: 9.03 Build 54978)  -->
<svg version="1.0" id="Layer_1" xmlns="http://www.w3.org/2000/svg" xmlns:xlink="http://www.w3.org/1999/xlink" x="0px" y="0px"
	 viewBox="0 0 64 64" style="enable-background:new 0 0 64 64;" xml:space="preserve">
<style type="text/css">
	.st0{fill:none;stroke:#231F20;stroke-width:2;stroke-linecap:round;stroke-linejoin:round;stroke-miterlimit:10;}
</style>
<g>
	<circle class="st0" cx="32.1" cy="27.6" r="9.1"/>
	<circle class="st0" cx="32.1" cy="27.6" r="3.8"/>
	<path class="st0" d="M23.5,30.7L11,40l6.2,9.6c1.7,2.6,2.8,5.4,3.4,8.4l0,0H25v-6.8L18.6,41l7.8-6.2"/>
	<path class="st0" d="M40.6,30.7L53,40l-6.2,9.6c-1.7,2.6-2.8,5.5-3.4,8.5v0H39v-6.8L45.4,41l-7.8-6.2"/>
	<rect x="25" y="46.6" class="st0" width="13.9" height="14.6"/>
	<line class="st0" x1="27.3" y1="19.9" x2="21.9" y2="2.9"/>
	<line class="st0" x1="42.2" y1="2.9" x2="36.9" y2="19.9"/>
	<rect x="29.6" y="46.6" class="st0" width="4.8" height="7.1"/>
</g>
</svg>
