<?xml version="1.0" encoding="utf-8"?>
<!-- Generator: Adobe Illustrator 28.7.1, SVG Export Plug-In . SVG Version: 9.03 Build 54978)  -->
<svg version="1.0" id="Layer_1" xmlns="http://www.w3.org/2000/svg" xmlns:xlink="http://www.w3.org/1999/xlink" x="0px" y="0px"
	 viewBox="0 0 64 64" style="enable-background:new 0 0 64 64;" xml:space="preserve">
<style type="text/css">
	.st0{fill:none;stroke:#231F20;stroke-width:2;stroke-linecap:round;stroke-linejoin:round;stroke-miterlimit:10;}
</style>
<g>
	<polygon class="st0" points="16.4,26 8.8,26 10.3,10.7 14.8,10.7 	"/>
	<polygon class="st0" points="21.2,26 21.2,20.7 29.8,15.4 29.8,20.7 38.5,15.4 38.5,47 3.9,47 3.9,26 	"/>
	<rect x="9" y="38.3" class="st0" width="10.1" height="8.7"/>
	<line class="st0" x1="25.3" y1="26" x2="33.6" y2="26"/>
	<line class="st0" x1="25.3" y1="32.2" x2="33.6" y2="32.2"/>
	<line class="st0" x1="9.9" y1="32.2" x2="18.2" y2="32.2"/>
	<line class="st0" x1="25.3" y1="38.3" x2="33.6" y2="38.3"/>
	<line class="st0" x1="14" y1="38.3" x2="14" y2="47"/>
	<path class="st0" d="M26,50.9V57c0,1.8,1.5,3.3,3.3,3.3h27.4c1.8,0,3.3-1.5,3.3-3.3V7c0-1.8-1.5-3.3-3.3-3.3H29.3
		C27.5,3.7,26,5.2,26,7v4.3"/>
	<line class="st0" x1="26" y1="53.5" x2="60.1" y2="53.5"/>
	<line class="st0" x1="39.5" y1="9" x2="46.6" y2="9"/>
</g>
</svg>
