<?xml version="1.0" encoding="utf-8"?>
<!-- Generator: Adobe Illustrator 28.7.1, SVG Export Plug-In . SVG Version: 9.03 Build 54978)  -->
<svg version="1.0" id="Layer_1" xmlns="http://www.w3.org/2000/svg" xmlns:xlink="http://www.w3.org/1999/xlink" x="0px" y="0px"
	 viewBox="0 0 64 64" style="enable-background:new 0 0 64 64;" xml:space="preserve">
<style type="text/css">
	.st0{fill:none;stroke:#231F20;stroke-width:2;stroke-linecap:round;stroke-linejoin:round;stroke-miterlimit:10;}
</style>
<g>
	<path class="st0" d="M15.1,49.2H3.8V28.5c0-1.2,1-2.2,2.2-2.2h6.9c1.2,0,2.2,1,2.2,2.2V49.2z"/>
	<rect x="6" y="3.8" class="st0" width="6.8" height="22.5"/>
	<line class="st0" x1="26.2" y1="49.2" x2="15.1" y2="49.2"/>
	<polyline class="st0" points="12.9,23.9 25,14.2 25,23.9 37.3,14.2 37.3,23.9 49.4,14.2 49.4,25.6 	"/>
	<rect x="34.6" y="34.6" class="st0" width="21.5" height="21.5"/>
	<path class="st0" d="M48.5,51.3h-6.2c-1.6,0-2.8-1.3-2.8-2.8v-6.2c0-1.6,1.3-2.8,2.8-2.8h6.2c1.6,0,2.8,1.3,2.8,2.8v6.2
		C51.3,50,50,51.3,48.5,51.3z"/>
	<line class="st0" x1="45.3" y1="34.6" x2="45.3" y2="30.5"/>
	<line class="st0" x1="38.7" y1="34.6" x2="38.7" y2="30.5"/>
	<line class="st0" x1="52" y1="34.6" x2="52" y2="30.5"/>
	<line class="st0" x1="45.3" y1="60.2" x2="45.3" y2="56.1"/>
	<line class="st0" x1="38.7" y1="60.2" x2="38.7" y2="56.1"/>
	<line class="st0" x1="52" y1="60.2" x2="52" y2="56.1"/>
	<line class="st0" x1="56.1" y1="45.4" x2="60.2" y2="45.4"/>
	<line class="st0" x1="56.1" y1="38.7" x2="60.2" y2="38.7"/>
	<line class="st0" x1="56.1" y1="52" x2="60.2" y2="52"/>
	<line class="st0" x1="30.5" y1="45.4" x2="34.6" y2="45.4"/>
	<line class="st0" x1="30.5" y1="38.7" x2="34.6" y2="38.7"/>
	<line class="st0" x1="30.5" y1="52" x2="34.6" y2="52"/>
</g>
</svg>
