<?xml version="1.0" encoding="utf-8"?>
<!-- Generator: Adobe Illustrator 28.7.1, SVG Export Plug-In . SVG Version: 9.03 Build 54978)  -->
<svg version="1.0" id="Layer_1" xmlns="http://www.w3.org/2000/svg" xmlns:xlink="http://www.w3.org/1999/xlink" x="0px" y="0px"
	 viewBox="0 0 64 64" style="enable-background:new 0 0 64 64;" xml:space="preserve">
<style type="text/css">
	.st0{fill:none;stroke:#231F20;stroke-width:2;stroke-linecap:round;stroke-linejoin:round;stroke-miterlimit:10;}
</style>
<g>
	<polyline class="st0" points="22.2,49.4 14,49.4 14,27.8 49.6,27.8 49.6,37.7 	"/>
	<rect x="33" y="10.5" class="st0" width="5.4" height="17.2"/>
	<rect x="44.1" y="10.5" class="st0" width="5.4" height="17.2"/>
	<line class="st0" x1="33" y1="14.7" x2="38.4" y2="14.7"/>
	<line class="st0" x1="44.1" y1="14.7" x2="49.6" y2="14.7"/>
	<polyline class="st0" points="14,49.4 4.1,49.4 4.1,14.9 27.4,4.8 27.4,27.8 	"/>
	<path class="st0" d="M51.8,59.2H34.7c-1.4,0-2.5-1.1-2.5-2.5V44.7c0-1.4,1.1-2.5,2.5-2.5h17.1c1.4,0,2.5,1.1,2.5,2.5v12.1
		C54.3,58.1,53.1,59.2,51.8,59.2z"/>
	<path class="st0" d="M32.2,51.8h-3c-1.5,0-2.6-1.2-2.6-2.6v0c0-1.5,1.2-2.6,2.6-2.6h3V51.8z"/>
	<line class="st0" x1="29.2" y1="46.6" x2="29.2" y2="37.7"/>
	<path class="st0" d="M54.3,51.8h3c1.5,0,2.6-1.2,2.6-2.6v0c0-1.5-1.2-2.6-2.6-2.6h-3V51.8z"/>
	<line class="st0" x1="57.3" y1="46.6" x2="57.3" y2="37.7"/>
	<line class="st0" x1="38.6" y1="47.3" x2="38.6" y2="50.1"/>
	<line class="st0" x1="47.9" y1="47.3" x2="47.9" y2="50.1"/>
	<line class="st0" x1="41" y1="53.8" x2="45.5" y2="53.8"/>
	<rect x="4.1" y="18.9" class="st0" width="17.5" height="4.5"/>
</g>
</svg>
