<?xml version="1.0" encoding="utf-8"?>
<!-- Generator: Adobe Illustrator 28.7.1, SVG Export Plug-In . SVG Version: 9.03 Build 54978)  -->
<svg version="1.0" id="Layer_1" xmlns="http://www.w3.org/2000/svg" xmlns:xlink="http://www.w3.org/1999/xlink" x="0px" y="0px"
	 viewBox="0 0 64 64" style="enable-background:new 0 0 64 64;" xml:space="preserve">
<style type="text/css">
	.st0{fill:none;stroke:#231F20;stroke-width:2;stroke-linecap:round;stroke-linejoin:round;stroke-miterlimit:10;}
</style>
<g>
	<path class="st0" d="M19.9,33.9H5.7c-1.6,0-2.9-1.3-2.9-2.9V8c0-1.6,1.3-2.9,2.9-2.9h14.2c1.6,0,2.9,1.3,2.9,2.9v23
		C22.8,32.6,21.5,33.9,19.9,33.9z"/>
	<polyline class="st0" points="37.1,22.8 37.1,49.7 29.7,49.7 29.7,22.8 	"/>
	<path class="st0" d="M38.6,13.4h17c2,0,3.7,1.6,3.7,3.7c0,1-0.4,1.9-1.1,2.6c-0.7,0.7-1.6,1.1-2.6,1.1h-2.1H39"/>
	<circle class="st0" cx="33.4" cy="17.4" r="6.6"/>
	<line class="st0" x1="53.5" y1="25.9" x2="53.5" y2="20.7"/>
	<polyline class="st0" points="50.7,41.3 47.9,35.5 52.1,32 	"/>
	<polyline class="st0" points="54.9,32 59.1,35.5 56.3,41.3 	"/>
	<circle class="st0" cx="53.5" cy="29.1" r="3.2"/>
	<path class="st0" d="M61.1,58.9H22.8v-6.5c0-1.5,1.2-2.7,2.7-2.7h32.9c1.5,0,2.7,1.2,2.7,2.7V58.9z"/>
	<path class="st0" d="M8,16.4c2.7-2.7,7.1-2.7,9.7,0"/>
	<path class="st0" d="M9.9,19.7c1.6-1.6,4.2-1.6,5.9,0"/>
	<line class="st0" x1="2.9" y1="27.8" x2="22.8" y2="27.8"/>
</g>
</svg>
