<?xml version="1.0" encoding="utf-8"?>
<!-- Generator: Adobe Illustrator 28.7.1, SVG Export Plug-In . SVG Version: 9.03 Build 54978)  -->
<svg version="1.0" id="Layer_1" xmlns="http://www.w3.org/2000/svg" xmlns:xlink="http://www.w3.org/1999/xlink" x="0px" y="0px"
	 viewBox="0 0 64 64" style="enable-background:new 0 0 64 64;" xml:space="preserve">
<style type="text/css">
	.st0{fill:none;stroke:#231F20;stroke-width:2;stroke-linecap:round;stroke-linejoin:round;stroke-miterlimit:10;}
</style>
<g>
	<g>
		<path class="st0" d="M23.8,4.8l16,0c1.5,0,2.8,1.3,2.8,2.8v0c0,1.5-1.3,2.8-2.8,2.8l-16,0"/>
		<line class="st0" x1="15.5" y1="10" x2="11.6" y2="17.8"/>
		<line class="st0" x1="20.5" y1="12.5" x2="16.6" y2="20.3"/>
		<line class="st0" x1="19.8" y1="34.7" x2="14" y2="27.2"/>
		<line class="st0" x1="27" y1="34.7" x2="17.2" y2="22.3"/>
		<circle class="st0" cx="19.8" cy="7.6" r="4.9"/>
		<circle class="st0" cx="12.2" cy="22.6" r="4.9"/>
		<path class="st0" d="M33.1,42.5H13.9v-4c0-2.1,1.7-3.8,3.8-3.8h11.6c2.1,0,3.8,1.7,3.8,3.8V42.5z"/>
		<line class="st0" x1="33.2" y1="14.9" x2="33.2" y2="10.4"/>
		<line class="st0" x1="37.9" y1="14.9" x2="37.9" y2="10.4"/>
		<path class="st0" d="M40.3,19.9v-3c0-1.1-0.9-2-2-2h-6c-1.1,0-2,0.9-2,2v3H40.3z"/>
		<polyline class="st0" points="30.3,19.9 30.3,24.6 33.7,26.3 		"/>
		<polyline class="st0" points="40.3,19.9 40.3,24.6 36.9,26.3 		"/>
		<path class="st0" d="M44.8,12.7h13c1.6,0,2.9,1.3,2.9,2.9v32.5c0,1.6-1.3,3-3,3H37.1H26.9H6.3c-1.6,0-3-1.3-3-3v-5.6V15.6
			c0-1.6,1.3-2.9,2.9-2.9h3.4"/>
		<rect x="26.9" y="51" class="st0" width="10.3" height="10.3"/>
		<line class="st0" x1="21" y1="61.3" x2="43" y2="61.3"/>
		<line class="st0" x1="3.3" y1="42.5" x2="60.7" y2="42.5"/>
	</g>
	<path class="st0" d="M40.8,30.9c4.5-4.5,11.8-4.5,16.3,0"/>
	<path class="st0" d="M44.1,34.5c2.7-2.7,7.1-2.7,9.8,0"/>
	<path class="st0" d="M46.7,38.3c1.3-1.3,3.3-1.3,4.6,0"/>
</g>
</svg>
