<?xml version="1.0" encoding="utf-8"?>
<!-- Generator: Adobe Illustrator 28.7.1, SVG Export Plug-In . SVG Version: 9.03 Build 54978)  -->
<svg version="1.0" id="Layer_1" xmlns="http://www.w3.org/2000/svg" xmlns:xlink="http://www.w3.org/1999/xlink" x="0px" y="0px"
	 viewBox="0 0 64 64" style="enable-background:new 0 0 64 64;" xml:space="preserve">
<style type="text/css">
	.st0{fill:none;stroke:#231F20;stroke-width:2;stroke-linecap:round;stroke-linejoin:round;stroke-miterlimit:10;}
</style>
<g>
	<path class="st0" d="M56.4,35.4l0,5.4h-6.1c-0.4,1.6-1,3-1.8,4.4l4.3,4.2l-7.2,7.2l-4.2-4.3c-1.4,0.8-2.8,1.4-4.4,1.8v6H26.9l0-6
		c-1.6-0.4-3-1-4.4-1.8l-4.2,4.3l-7.2-7.2l4.3-4.2c-0.8-1.4-1.4-2.8-1.8-4.4l-6,0l0-5.4"/>
	<path class="st0" d="M44.3,35.8c0,6.8-5.5,12.3-12.3,12.3c-6.8,0-12.3-5.5-12.3-12.3"/>
	<polygon class="st0" points="12.4,31.5 12.4,18.5 18.9,14.9 25.5,11.2 25.5,17.6 38.5,11.2 38.5,17.6 51.6,11.2 51.6,31.5 	"/>
	<polyline class="st0" points="18.9,14.9 18.9,3.8 12.4,3.8 12.4,18.5 	"/>
	<line class="st0" x1="7.6" y1="31.5" x2="56.4" y2="31.5"/>
	<line class="st0" x1="17.3" y1="22.4" x2="23.6" y2="22.4"/>
	<line class="st0" x1="28.9" y1="22.4" x2="35.2" y2="22.4"/>
	<line class="st0" x1="40.5" y1="22.4" x2="46.8" y2="22.4"/>
	<line class="st0" x1="17.3" y1="26.6" x2="23.6" y2="26.6"/>
	<line class="st0" x1="28.9" y1="26.6" x2="35.2" y2="26.6"/>
	<line class="st0" x1="40.5" y1="26.6" x2="46.8" y2="26.6"/>
</g>
</svg>
