<?xml version="1.0" encoding="utf-8"?>
<!-- Generator: Adobe Illustrator 28.7.1, SVG Export Plug-In . SVG Version: 9.03 Build 54978)  -->
<svg version="1.0" id="Layer_1" xmlns="http://www.w3.org/2000/svg" xmlns:xlink="http://www.w3.org/1999/xlink" x="0px" y="0px"
	 viewBox="0 0 64 64" style="enable-background:new 0 0 64 64;" xml:space="preserve">
<style type="text/css">
	.st0{fill:none;stroke:#231F20;stroke-width:2;stroke-linecap:round;stroke-linejoin:round;stroke-miterlimit:10;}
</style>
<g>
	<path class="st0" d="M48.7,60.3L48.7,60.3c3.9,0,7-3.1,7-7c0-3.9-3.1-7-7-7c-0.2,0-0.3,0-0.5,0c0.3-0.9,0.5-1.8,0.5-2.8
		c0-4.7-3.8-8.4-8.5-8.4c-2.4,0-4.5,1-6,2.5c-1.6-3.4-5.1-5.7-9-5.7c-5.5,0-10,4.5-10,10c0,1.2,0.2,2.4,0.6,3.4
		c-4.1,0.1-7.4,3.4-7.4,7.5c0,4.1,3.3,7.5,7.5,7.5l0,0H48.7z"/>
	<polyline class="st0" points="53.4,48.1 53.4,28.8 22,16.5 22,32.4 	"/>
	<polyline class="st0" points="30,19.6 30,6 37.2,6 37.2,22.4 	"/>
	<polyline class="st0" points="42.3,24.4 42.3,11.2 49.5,11.2 49.5,27.3 	"/>
	<line class="st0" x1="30" y1="11.2" x2="37.2" y2="11.2"/>
	<line class="st0" x1="42.3" y1="16.4" x2="49.5" y2="16.4"/>
	<path class="st0" d="M9.3,17.8c0-7.8,6.3-14.1,14.1-14.1"/>
	<path class="st0" d="M15.3,18.1c0-4.7,3.8-8.5,8.5-8.5"/>
</g>
</svg>
