<?xml version="1.0" encoding="utf-8"?>
<!-- Generator: Adobe Illustrator 28.7.1, SVG Export Plug-In . SVG Version: 9.03 Build 54978)  -->
<svg version="1.0" id="Layer_1" xmlns="http://www.w3.org/2000/svg" xmlns:xlink="http://www.w3.org/1999/xlink" x="0px" y="0px"
	 viewBox="0 0 64 64" style="enable-background:new 0 0 64 64;" xml:space="preserve">
<style type="text/css">
	.st0{fill:none;stroke:#231F20;stroke-width:2;stroke-linecap:round;stroke-linejoin:round;stroke-miterlimit:10;}
</style>
<g>
	<path class="st0" d="M58.5,35.2c0,14.6-11.9,26.5-26.5,26.5S5.5,49.9,5.5,35.2"/>
	<path class="st0" d="M43.9,35.2c0,14.6-5.3,26.5-11.9,26.5S20.1,49.9,20.1,35.2"/>
	<path class="st0" d="M58.5,35.2c0,6.6-11.9,11.9-26.5,11.9S5.5,41.8,5.5,35.2"/>
	<polygon class="st0" points="12.1,30.4 12.1,17.2 18.8,13.5 25.4,9.8 25.4,16.2 38.6,9.8 38.6,16.2 51.9,9.8 51.9,30.4 	"/>
	<polyline class="st0" points="18.8,13.5 18.8,2.3 12.1,2.3 12.1,17.2 	"/>
	<line class="st0" x1="17.1" y1="21.1" x2="23.5" y2="21.1"/>
	<line class="st0" x1="28.9" y1="21.1" x2="35.3" y2="21.1"/>
	<line class="st0" x1="40.6" y1="21.1" x2="47" y2="21.1"/>
	<line class="st0" x1="17.1" y1="25.4" x2="23.5" y2="25.4"/>
	<line class="st0" x1="28.9" y1="25.4" x2="35.3" y2="25.4"/>
	<line class="st0" x1="40.6" y1="25.4" x2="47" y2="25.4"/>
	<line class="st0" x1="5.5" y1="30.4" x2="58.5" y2="30.4"/>
</g>
</svg>
