<?xml version="1.0" encoding="utf-8"?>
<!-- Generator: Adobe Illustrator 28.7.1, SVG Export Plug-In . SVG Version: 9.03 Build 54978)  -->
<svg version="1.0" id="Layer_1" xmlns="http://www.w3.org/2000/svg" xmlns:xlink="http://www.w3.org/1999/xlink" x="0px" y="0px"
	 viewBox="0 0 64 64" style="enable-background:new 0 0 64 64;" xml:space="preserve">
<style type="text/css">
	.st0{fill:none;stroke:#231F20;stroke-width:2;stroke-linecap:round;stroke-linejoin:round;stroke-miterlimit:10;}
</style>
<g>
	<polygon class="st0" points="29.7,41.2 3.7,41.2 12.4,24.4 38.3,24.4 	"/>
	<line class="st0" x1="35.5" y1="29.9" x2="9.6" y2="29.9"/>
	<line class="st0" x1="32.5" y1="35.7" x2="6.5" y2="35.7"/>
	<line class="st0" x1="21" y1="24.4" x2="12.3" y2="41.2"/>
	<line class="st0" x1="29.6" y1="24.4" x2="20.9" y2="41.2"/>
	<line class="st0" x1="29.7" y1="41.2" x2="29.7" y2="60.6"/>
	<polygon class="st0" points="56.8,60.6 43.9,60.6 46.7,13.5 54,13.5 	"/>
	<polyline class="st0" points="3.7,41.2 3.7,60.6 47.9,60.6 	"/>
	<line class="st0" x1="46" y1="24.5" x2="38.3" y2="24.5"/>
	<polyline class="st0" points="40.1,40.8 35.5,45.5 40.1,45.5 36,50.2 	"/>
	<line class="st0" x1="54.2" y1="18.2" x2="46.4" y2="18.2"/>
	<path class="st0" d="M50.3,9c0,0,0.5-5-3.8-4.8c-4.2,0.2-6.1-0.8-6.1-0.8S42.1,12.3,50.3,9z"/>
	<path class="st0" d="M50.3,9c0,0-0.5-5,3.8-4.8c4.2,0.2,6.1-0.8,6.1-0.8S58.5,12.3,50.3,9z"/>
	<line class="st0" x1="50.3" y1="13.5" x2="50.3" y2="8.7"/>
</g>
</svg>
