<?xml version="1.0" encoding="utf-8"?>
<!-- Generator: Adobe Illustrator 28.7.1, SVG Export Plug-In . SVG Version: 9.03 Build 54978)  -->
<svg version="1.0" id="Layer_1" xmlns="http://www.w3.org/2000/svg" xmlns:xlink="http://www.w3.org/1999/xlink" x="0px" y="0px"
	 viewBox="0 0 64 64" style="enable-background:new 0 0 64 64;" xml:space="preserve">
<style type="text/css">
	.st0{fill:none;stroke:#231F20;stroke-width:2;stroke-linecap:round;stroke-linejoin:round;stroke-miterlimit:10;}
</style>
<g>
	<g>
		<path class="st0" d="M42.1,54.5l-1.3-1.2c-0.7-0.6-1.5-0.9-2.4-0.9c-2.5,0-8,0-11.5-0.2c-4.7-0.2-8.2-3.7-8.2-3.7l-9.2-8.8
			c-1.1-1.2,0-5.3,2.7-3l5.9,4.4c2,1.5,4.5,2.3,7,2.3H33"/>
		<path class="st0" d="M25.6,43.5c-1.4,0-0.8-3.8,2.7-3.8h8.6c8.7-2.6,11.3,5,11.3,5"/>
	</g>
	<path class="st0" d="M55.1,45.9l-3.8-2.6c-0.8-0.6-2-0.3-2.5,0.5l-7.5,12c-0.5,0.8-0.3,1.8,0.5,2.4l4.5,3.2"/>
	<polygon class="st0" points="27.1,15.9 20.6,15.9 21.9,2.6 25.8,2.6 	"/>
	<polygon class="st0" points="31.3,15.9 31.3,11.3 38.8,6.7 38.8,11.3 46.2,6.7 46.2,34 16.4,34 16.4,15.9 	"/>
	<path class="st0" d="M24.1,23c4-4,10.4-4,14.3,0"/>
	<path class="st0" d="M27,26.1c2.4-2.4,6.3-2.4,8.6,0"/>
	<path class="st0" d="M29.3,29.4c1.1-1.1,2.9-1.1,4,0"/>
</g>
</svg>
