<?xml version="1.0" encoding="utf-8"?>
<!-- Generator: Adobe Illustrator 28.7.1, SVG Export Plug-In . SVG Version: 9.03 Build 54978)  -->
<svg version="1.0" id="Layer_1" xmlns="http://www.w3.org/2000/svg" xmlns:xlink="http://www.w3.org/1999/xlink" x="0px" y="0px"
	 viewBox="0 0 64 64" style="enable-background:new 0 0 64 64;" xml:space="preserve">
<style type="text/css">
	.st0{fill:none;stroke:#231F20;stroke-width:2;stroke-linecap:round;stroke-linejoin:round;stroke-miterlimit:10;}
</style>
<g>
	<polygon class="st0" points="45.1,21.2 53.8,21.2 52,3.7 46.9,3.7 	"/>
	<polyline class="st0" points="39,45.2 41.9,45.2 47.8,45.2 53.6,45.2 59.3,45.2 59.3,21.2 39.6,21.2 39.6,15.2 29.7,9.1 29.7,15.2 
		19.8,9.1 19.8,25.3 	"/>
	<line class="st0" x1="52.5" y1="27.2" x2="32.9" y2="27.2"/>
	<line class="st0" x1="52.5" y1="32.8" x2="35.8" y2="32.8"/>
	<line class="st0" x1="52.5" y1="38.5" x2="39.6" y2="38.5"/>
	<path class="st0" d="M9.5,39.4l-2.6-2.6l4.4-4.4l2.6,2.6c0.8-0.5,1.8-0.9,2.7-1.1l0-3.7l6.3,0l0,3.7c1,0.2,1.9,0.6,2.7,1.1l2.6-2.6
		l4.4,4.4L30,39.4c0.5,0.8,0.9,1.8,1.1,2.7h3.8l0,6.3h-3.8c-0.2,1-0.6,1.9-1.1,2.7l2.6,2.6l-4.4,4.4l-2.6-2.6
		c-0.8,0.5-1.8,0.9-2.7,1.1l0,3.7l-6.3,0l0-3.7c-1-0.2-1.9-0.6-2.7-1.1l-2.6,2.6l-4.4-4.4l2.6-2.6c-0.5-0.8-0.9-1.8-1.1-2.7H4.7
		l0-6.3h3.7C8.7,41.1,9,40.2,9.5,39.4z"/>
	<circle class="st0" cx="19.8" cy="45.2" r="6.4"/>
</g>
</svg>
