<?xml version="1.0" encoding="utf-8"?>
<!-- Generator: Adobe Illustrator 28.7.1, SVG Export Plug-In . SVG Version: 9.03 Build 54978)  -->
<svg version="1.0" id="Layer_1" xmlns="http://www.w3.org/2000/svg" xmlns:xlink="http://www.w3.org/1999/xlink" x="0px" y="0px"
	 viewBox="0 0 64 64" style="enable-background:new 0 0 64 64;" xml:space="preserve">
<style type="text/css">
	.st0{fill:none;stroke:#231F20;stroke-width:2;stroke-linecap:round;stroke-linejoin:round;stroke-miterlimit:10;}
</style>
<g>
	<path class="st0" d="M53.2,52.9H10.8c-5,0-9-4-9-9v0c0-5,4-9,9-9h42.3c5,0,9,4,9,9v0C62.1,48.9,58.1,52.9,53.2,52.9z"/>
	<path class="st0" d="M12.9,47.6L12.9,47.6c-2,0-3.6-1.6-3.6-3.6v0c0-2,1.6-3.6,3.6-3.6h0c2,0,3.6,1.6,3.6,3.6v0
		C16.5,45.9,14.9,47.6,12.9,47.6z"/>
	<path class="st0" d="M31.5,47.6L31.5,47.6c-2,0-3.6-1.6-3.6-3.6v0c0-2,1.6-3.6,3.6-3.6h0c2,0,3.6,1.6,3.6,3.6v0
		C35.1,45.9,33.5,47.6,31.5,47.6z"/>
	<path class="st0" d="M51.1,47.6L51.1,47.6c-2,0-3.6-1.6-3.6-3.6v0c0-2,1.6-3.6,3.6-3.6h0c2,0,3.6,1.6,3.6,3.6v0
		C54.7,45.9,53.1,47.6,51.1,47.6z"/>
	<path class="st0" d="M46.4,60.1H16.5c-2.5,0-4.6-2.1-4.6-4.6v-2.6H51v2.6C51,58.1,48.9,60.1,46.4,60.1z"/>
	<rect x="19.5" y="15.7" class="st0" width="24.4" height="19.3"/>
	<rect x="28.3" y="15.7" class="st0" width="6.8" height="10.8"/>
	<path class="st0" d="M22.8,7.4c4.8-4.8,12.5-4.8,17.3,0"/>
	<path class="st0" d="M26.3,11.2c2.9-2.9,7.5-2.9,10.4,0"/>
</g>
</svg>
