<?xml version="1.0" encoding="utf-8"?>
<!-- Generator: Adobe Illustrator 26.0.1, SVG Export Plug-In . SVG Version: 6.00 Build 0)  -->
<svg version="1.1" id="Layer_1" xmlns="http://www.w3.org/2000/svg" xmlns:xlink="http://www.w3.org/1999/xlink" x="0px" y="0px"
	 viewBox="0 0 546 259" style="enable-background:new 0 0 546 259;" xml:space="preserve">
<style type="text/css">
	
		.st0{clip-path:url(#SVGID_00000170259998380338625080000003060740267178462367_);fill:url(#SVGID_00000093160201314977799660000016866535544287009464_);}
	.st1{fill:#727986;}
	.st2{fill:#FEFEFE;}
	.st3{fill:#F10001;}
	.st4{fill:#073D77;}
	.st5{fill:#0F40A3;}
	
		.st6{clip-path:url(#SVGID_00000013899827955553048550000008366054028116379781_);fill:url(#SVGID_00000014628424870213412920000013639467812023659440_);}
	.st7{fill:#FFFFFF;}
</style>
<g>
	<g>
		<defs>
			<path id="SVGID_00000135666466612323243320000005313054913108540309_" d="M48.14,51.77c-4.76,0-8.62,3.86-8.62,8.62v138.23
				c0,4.76,3.86,8.62,8.62,8.62h148.47c4.76,0,8.62-3.86,8.62-8.62V60.38c0-4.76-3.86-8.62-8.62-8.62H48.14z"/>
		</defs>
		<clipPath id="SVGID_00000005228734985432124710000001220349359114171288_">
			<use xlink:href="#SVGID_00000135666466612323243320000005313054913108540309_"  style="overflow:visible;"/>
		</clipPath>
		
			<linearGradient id="SVGID_00000058571959632048118770000008516992509497977781_" gradientUnits="userSpaceOnUse" x1="607.8898" y1="386.5045" x2="608.8898" y2="386.5045" gradientTransform="matrix(105.5948 182.8955 182.8955 -105.5948 -134810.3438 -70329.4062)">
			<stop  offset="0" style="stop-color:#1586FF"/>
			<stop  offset="1" style="stop-color:#0D007F"/>
		</linearGradient>
		
			<polygon style="clip-path:url(#SVGID_00000005228734985432124710000001220349359114171288_);fill:url(#SVGID_00000058571959632048118770000008516992509497977781_);" points="
			163.81,-19.99 272.55,168.37 80.95,278.99 -27.8,90.63 		"/>
	</g>
	<path class="st1" d="M205.39,197.91h-0.14c0.02-0.34-0.12-0.85,0.14-1.08V197.91z"/>
	<path class="st2" d="M109.57,67.64c0.92,0.47,1.77,0.86,2.57,1.55c3.53,3.05,2.81,6.94,2.84,11.15c0.03,5.13-0.11,10.27-0.13,15.41
		c-0.02,4.59,0.02,9.19,0,13.79c-0.09,24.82,0.02,49.68,0,74.54c-0.29,4.26-3.24,7.45-7.5,7.9l-51.22-0.01
		c-4.38-0.59-6.99-3.68-7.24-8.03c0.06-33.89,0.06-67.76,0.55-101.63c0.08-5.34-1.29-11.1,4.14-14.24c1.86-1.07,2.83-0.94,4.83-0.97
		c8.96-0.12,17.95,0.08,26.89,0.13c7.01,0.04,14.89-0.49,21.77-0.01C107.87,67.28,108.86,67.64,109.57,67.64 M57.41,116.15
		l49.07,0.21l0.13-0.41c0.06-8.38-0.1-16.77-0.01-25.15c0.02-1.74,0.52-3.63-0.56-5.24c-1.66-2.48-3.98-1.76-6.54-1.84
		c-8.9-0.27-17.84-0.08-26.76-0.13c-3.63-0.02-7.44-0.42-11.08-0.15c-2.04,0.15-3.91,1.79-4.12,3.86c-0.59,6,0.44,12.96,0.01,19.06
		C57.24,109.6,57.49,112.9,57.41,116.15 M68.73,134.43c-1.87,0.41-3.2,2.07-3.34,3.95c0.12,14.16-0.26,28.38,0.2,42.51
		c0.48,1.62,1.87,2.63,3.52,2.83c8.79-0.13,17.66,0.27,26.42-0.2c1.72-0.71,2.7-2.05,2.84-3.91c-0.13-14.04,0.23-28.12-0.18-42.13
		c-0.38-1.41-2.05-2.96-3.54-3.08L68.73,134.43z"/>
	<path class="st2" d="M190.93,141.02h-16.49v-4.93c0-1.09-2.31-3.45-3.58-3.31l-26.15,0.06c-1.45,0.26-2.86,1.84-3.07,3.29
		c-0.29,1.99-0.22,7.21-0.04,9.29c0.17,1.99,1.61,3.48,3.59,3.71l38.25,0c3.81,0.38,7.09,3.53,7.5,7.37l-0.01,26.62
		c-0.4,3.46-2.96,6.28-6.34,7.04c-17.29,0.45-34.65,0.07-51.97,0.19c-3.22,0.08-7.5-3.58-7.5-6.82v-9.66h16.49v4.93
		c0,0.21,0.54,1.37,0.7,1.6c0.78,1.15,2.09,1.6,3.43,1.71c7.85,0.64,16.53-0.48,24.46,0.01c2.08-0.07,3.94-1.49,4.24-3.6
		l-0.02-17.66c-0.45-1.81-2.07-3.33-3.96-3.48l-38.25,0c-3.69-0.38-6.78-3.36-7.1-7.1c-0.52-6.03,0.38-12.8,0.02-18.91
		c0.59-3.37,3.08-6.1,6.47-6.78c17.58-0.33,35.28-0.33,52.85,0c2.65,0.28,6.48,4.13,6.48,6.76V141.02z"/>
	<path class="st3" d="M181.06,67.5c-3.11,3.5-3.44,8.97-0.81,12.84h-65.27c-0.02-4.21,0.69-8.1-2.84-11.15
		c-0.8-0.69-1.64-1.08-2.57-1.55c0.02,0,0.24-0.24,0.46-0.14L181.06,67.5z"/>
	<path class="st4" d="M167.14,95.75c-3.41,3.9-3.33,9.96,0.13,13.78h-52.43c0.02-4.59-0.02-9.19,0-13.78H167.14z"/>
	<path class="st2" d="M167.28,109.53c-3.46-3.82-3.54-9.89-0.14-13.79c5.37-6.14,15.75-3.73,17.8,4.16
		C187.67,110.42,174.49,117.5,167.28,109.53 M174.55,96.73c-7.85,0.59-6.95,12.81,1.44,11.71
		C182.96,107.52,182.09,96.17,174.55,96.73"/>
	<path class="st2" d="M180.25,80.34c-2.63-3.87-2.3-9.34,0.81-12.84c6.7-7.55,19.54-1.57,17.94,8.54
		C197.55,85.2,185.47,88.02,180.25,80.34 M188.19,68.75c-7.49,0.95-6.35,12.58,1.57,11.71C197.22,79.64,196.08,67.75,188.19,68.75"
		/>
	<path class="st7" d="M231.56,75.79h28.48c22.36,0,36.22,14.83,36.22,37.19c0,23.21-13.86,38.05-36.22,38.05h-28.48V75.79z
		 M258.75,138.67c15.05,0,24.08-9.99,24.08-25.04c0-15.58-9.03-25.47-24.08-25.47H245v50.51H258.75z"/>
	<path class="st7" d="M330.34,86.87c-8.81,0-13.01,3.01-13.97,10.43h12.14v11.82h-12.25v41.92h-12.9v-41.92h-0.02l0.11-7.2
		l0.02-4.62c1.18-14.51,10.43-22.25,26.87-22.25V86.87z"/>
	<rect x="338.5" y="118.25" class="st7" width="26.76" height="9.67"/>
	<path class="st7" d="M480.23,152.21c-13.23,0-22.65-5.29-28.37-10.8l8.36-9.1c5.72,4.87,11.96,7.73,19.9,7.73
		c10.27,0,13.12-4.87,13.12-9.53c0-17.67-41.17-7.09-41.17-33.44c0-12.38,9-21.28,25.72-21.28c11.43,0,20.85,4.24,27.52,9.95
		l-7.73,9.63c-6.67-5.4-13.12-7.41-19.69-7.41c-8.89,0-12.59,3.6-12.59,8.04c0,14.92,41.17,5.08,41.17,33.55
		C506.48,142.37,498.22,152.21,480.23,152.21"/>
	<path class="st7" d="M411.36,152.48c-21.22,0-38.47-17.26-38.47-38.47c0-21.21,17.26-38.47,38.47-38.47
		c21.21,0,38.47,17.26,38.47,38.47C449.83,135.22,432.58,152.48,411.36,152.48 M411.36,87.6c-14.56,0-26.4,11.84-26.4,26.4
		c0,14.56,11.84,26.4,26.4,26.4c14.56,0,26.4-11.84,26.4-26.4C437.76,99.45,425.92,87.6,411.36,87.6"/>
	<path class="st7" d="M239.67,168.71c0.92,0.47,1.62,1.13,2.11,2c0.49,0.87,0.73,1.89,0.73,3.07c0,1.18-0.24,2.2-0.73,3.06
		c-0.49,0.86-1.19,1.52-2.11,1.98c-0.92,0.46-2,0.68-3.26,0.68h-3.58v-11.49h3.58C237.66,168.01,238.75,168.25,239.67,168.71
		 M239.81,177.09c0.78-0.79,1.17-1.89,1.17-3.31c0-1.43-0.39-2.54-1.18-3.35c-0.79-0.8-1.92-1.2-3.39-1.2h-2.08v9.04h2.08
		C237.89,178.27,239.03,177.88,239.81,177.09"/>
	<path class="st7" d="M244.54,168.7c-0.2-0.2-0.3-0.44-0.3-0.73c0-0.29,0.1-0.53,0.3-0.73c0.2-0.2,0.44-0.3,0.73-0.3
		c0.27,0,0.51,0.1,0.7,0.3c0.19,0.2,0.29,0.44,0.29,0.73c0,0.29-0.1,0.53-0.29,0.73c-0.19,0.2-0.43,0.3-0.7,0.3
		C244.98,169,244.74,168.9,244.54,168.7 M245.99,179.5h-1.5v-9.04h1.5V179.5z"/>
	<path class="st7" d="M254.33,170.83c0.59,0.34,1.02,0.77,1.31,1.29v-1.65h1.52v9.23c0,0.82-0.17,1.56-0.53,2.2
		c-0.35,0.64-0.85,1.15-1.51,1.51c-0.65,0.36-1.41,0.54-2.28,0.54c-1.19,0-2.18-0.28-2.97-0.84c-0.79-0.56-1.26-1.32-1.4-2.29h1.48
		c0.16,0.55,0.5,0.99,1.02,1.33c0.52,0.34,1.14,0.5,1.86,0.5c0.82,0,1.5-0.26,2.02-0.77c0.52-0.52,0.78-1.24,0.78-2.18v-1.9
		c-0.3,0.53-0.74,0.97-1.32,1.32c-0.58,0.35-1.27,0.53-2.05,0.53c-0.8,0-1.53-0.2-2.18-0.59s-1.17-0.95-1.54-1.67
		c-0.37-0.71-0.56-1.53-0.56-2.44c0-0.92,0.19-1.73,0.56-2.43c0.37-0.7,0.89-1.24,1.54-1.62c0.65-0.38,1.38-0.58,2.18-0.58
		C253.05,170.32,253.74,170.49,254.33,170.83 M255.22,173.19c-0.28-0.5-0.65-0.89-1.11-1.16c-0.47-0.27-0.98-0.4-1.54-0.4
		c-0.56,0-1.07,0.13-1.53,0.4c-0.46,0.26-0.83,0.65-1.11,1.15c-0.27,0.51-0.41,1.1-0.41,1.78c0,0.69,0.14,1.29,0.41,1.81
		c0.28,0.51,0.64,0.9,1.11,1.17c0.46,0.27,0.97,0.4,1.53,0.4c0.56,0,1.07-0.14,1.54-0.4c0.47-0.27,0.84-0.66,1.11-1.17
		c0.27-0.51,0.41-1.11,0.41-1.79C255.64,174.29,255.5,173.7,255.22,173.19"/>
	<path class="st7" d="M259.74,168.7c-0.2-0.2-0.3-0.44-0.3-0.73c0-0.29,0.1-0.53,0.3-0.73c0.2-0.2,0.44-0.3,0.73-0.3
		c0.27,0,0.51,0.1,0.7,0.3c0.19,0.2,0.29,0.44,0.29,0.73c0,0.29-0.1,0.53-0.29,0.73c-0.19,0.2-0.43,0.3-0.7,0.3
		C260.18,169,259.94,168.9,259.74,168.7 M261.19,179.5h-1.5v-9.04h1.5V179.5z"/>
	<path class="st7" d="M265.58,171.71v5.33c0,0.44,0.09,0.75,0.28,0.93c0.19,0.18,0.51,0.27,0.97,0.27h1.1v1.27h-1.35
		c-0.84,0-1.46-0.19-1.88-0.58s-0.63-1.02-0.63-1.9v-5.33h-1.17v-1.24h1.17v-2.28h1.5v2.28h2.36v1.24H265.58z"/>
	<path class="st7" d="M269.75,172.52c0.37-0.7,0.89-1.24,1.54-1.62c0.65-0.38,1.38-0.58,2.18-0.58c0.79,0,1.48,0.17,2.06,0.51
		c0.58,0.34,1.02,0.77,1.3,1.29v-1.65h1.52v9.03h-1.52v-1.68c-0.3,0.53-0.74,0.96-1.33,1.31c-0.59,0.35-1.27,0.52-2.05,0.52
		c-0.8,0-1.53-0.2-2.18-0.59c-0.65-0.4-1.16-0.95-1.53-1.67c-0.37-0.71-0.56-1.53-0.56-2.44
		C269.19,174.03,269.38,173.22,269.75,172.52 M276.43,173.19c-0.28-0.5-0.65-0.89-1.11-1.16c-0.47-0.27-0.98-0.4-1.54-0.4
		c-0.56,0-1.07,0.13-1.53,0.4c-0.46,0.26-0.83,0.65-1.11,1.15c-0.27,0.51-0.41,1.1-0.41,1.78c0,0.69,0.14,1.29,0.41,1.81
		c0.28,0.51,0.64,0.9,1.11,1.17c0.46,0.27,0.97,0.4,1.53,0.4c0.56,0,1.07-0.14,1.54-0.4c0.47-0.27,0.84-0.66,1.11-1.17
		c0.27-0.51,0.41-1.11,0.41-1.79C276.84,174.29,276.7,173.7,276.43,173.19"/>
	<rect x="280.9" y="167.3" class="st7" width="1.5" height="12.2"/>
	<polygon class="st7" points="295.85,168.01 295.85,169.23 290.85,169.23 290.85,173.11 294.91,173.11 294.91,174.33 290.85,174.33 
		290.85,179.5 289.35,179.5 289.35,168.01 	"/>
	<path class="st7" d="M297.66,172.52c0.37-0.7,0.89-1.24,1.54-1.62c0.65-0.38,1.38-0.58,2.18-0.58c0.79,0,1.48,0.17,2.06,0.51
		c0.58,0.34,1.02,0.77,1.3,1.29v-1.65h1.52v9.03h-1.52v-1.68c-0.3,0.53-0.74,0.96-1.33,1.31c-0.59,0.35-1.27,0.52-2.05,0.52
		c-0.8,0-1.53-0.2-2.18-0.59c-0.65-0.4-1.16-0.95-1.53-1.67c-0.37-0.71-0.56-1.53-0.56-2.44
		C297.1,174.03,297.29,173.22,297.66,172.52 M304.34,173.19c-0.28-0.5-0.65-0.89-1.11-1.16c-0.47-0.27-0.98-0.4-1.54-0.4
		c-0.56,0-1.07,0.13-1.53,0.4c-0.46,0.26-0.83,0.65-1.11,1.15c-0.27,0.51-0.41,1.1-0.41,1.78c0,0.69,0.14,1.29,0.41,1.81
		c0.28,0.51,0.64,0.9,1.11,1.17c0.46,0.27,0.97,0.4,1.53,0.4c0.56,0,1.07-0.14,1.54-0.4c0.47-0.27,0.84-0.66,1.11-1.17
		c0.27-0.51,0.41-1.11,0.41-1.79C304.75,174.29,304.62,173.7,304.34,173.19"/>
	<path class="st7" d="M308.81,172.52c0.37-0.7,0.89-1.24,1.56-1.62c0.67-0.38,1.43-0.58,2.28-0.58c1.11,0,2.02,0.27,2.74,0.81
		s1.2,1.29,1.43,2.24h-1.62c-0.15-0.55-0.45-0.98-0.9-1.3c-0.45-0.32-1-0.48-1.66-0.48c-0.86,0-1.55,0.29-2.08,0.88
		c-0.53,0.59-0.79,1.42-0.79,2.5c0,1.09,0.26,1.93,0.79,2.52c0.53,0.59,1.22,0.89,2.08,0.89c0.66,0,1.21-0.15,1.65-0.46
		c0.44-0.31,0.74-0.75,0.91-1.32h1.62c-0.24,0.92-0.73,1.66-1.45,2.22c-0.73,0.55-1.63,0.83-2.72,0.83c-0.86,0-1.62-0.19-2.28-0.58
		c-0.67-0.39-1.18-0.93-1.56-1.63c-0.37-0.7-0.56-1.53-0.56-2.47C308.25,174.04,308.44,173.22,308.81,172.52"/>
	<path class="st7" d="M320.65,171.71v5.33c0,0.44,0.09,0.75,0.28,0.93c0.19,0.18,0.51,0.27,0.97,0.27h1.1v1.27h-1.35
		c-0.84,0-1.46-0.19-1.88-0.58s-0.63-1.02-0.63-1.9v-5.33h-1.17v-1.24h1.17v-2.28h1.5v2.28h2.36v1.24H320.65z"/>
	<path class="st7" d="M326.46,179.08c-0.69-0.38-1.23-0.93-1.62-1.64c-0.39-0.71-0.58-1.53-0.58-2.46c0-0.92,0.2-1.74,0.6-2.45
		c0.4-0.71,0.95-1.25,1.64-1.63c0.69-0.38,1.47-0.57,2.32-0.57c0.86,0,1.63,0.19,2.33,0.57c0.69,0.38,1.24,0.92,1.64,1.62
		c0.4,0.7,0.6,1.52,0.6,2.46c0,0.93-0.21,1.76-0.62,2.46c-0.41,0.71-0.97,1.26-1.67,1.64c-0.7,0.39-1.48,0.58-2.34,0.58
		C327.91,179.65,327.15,179.46,326.46,179.08 M330.28,177.95c0.47-0.25,0.85-0.63,1.15-1.14c0.29-0.51,0.44-1.12,0.44-1.85
		c0-0.73-0.14-1.34-0.43-1.85c-0.29-0.51-0.66-0.88-1.12-1.13c-0.46-0.25-0.96-0.37-1.5-0.37c-0.55,0-1.05,0.12-1.51,0.37
		c-0.46,0.25-0.82,0.62-1.1,1.13c-0.27,0.51-0.41,1.12-0.41,1.85c0,0.74,0.14,1.36,0.4,1.86c0.27,0.5,0.63,0.88,1.08,1.13
		c0.45,0.25,0.94,0.37,1.48,0.37S329.8,178.21,330.28,177.95"/>
	<path class="st7" d="M338,170.73c0.49-0.29,1.09-0.43,1.79-0.43v1.55h-0.4c-1.68,0-2.52,0.91-2.52,2.74v4.91h-1.5v-9.03h1.5v1.47
		C337.14,171.42,337.51,171.02,338,170.73"/>
	<polygon class="st7" points="349.3,170.47 343.86,183.76 342.31,183.76 344.09,179.41 340.45,170.47 342.12,170.47 344.95,177.79 
		347.75,170.47 	"/>
	<path class="st7" d="M357.5,178.87c-0.88-0.5-1.57-1.2-2.09-2.1c-0.51-0.89-0.77-1.9-0.77-3.02s0.26-2.13,0.77-3.03
		c0.51-0.89,1.21-1.59,2.09-2.09c0.88-0.5,1.85-0.75,2.92-0.75c1.08,0,2.06,0.25,2.94,0.75c0.88,0.5,1.57,1.19,2.08,2.08
		s0.76,1.9,0.76,3.03c0,1.13-0.25,2.14-0.76,3.03c-0.51,0.89-1.2,1.59-2.08,2.09c-0.88,0.5-1.86,0.75-2.94,0.75
		C359.35,179.62,358.38,179.37,357.5,178.87 M362.59,177.76c0.64-0.37,1.15-0.91,1.52-1.6c0.37-0.69,0.55-1.49,0.55-2.41
		c0-0.92-0.18-1.73-0.55-2.42c-0.37-0.69-0.87-1.22-1.51-1.59c-0.64-0.37-1.36-0.56-2.18-0.56c-0.81,0-1.54,0.19-2.18,0.56
		c-0.64,0.37-1.14,0.9-1.51,1.59c-0.37,0.69-0.55,1.49-0.55,2.42c0,0.91,0.18,1.71,0.55,2.41c0.37,0.69,0.87,1.23,1.52,1.6
		c0.64,0.37,1.37,0.56,2.17,0.56C361.22,178.32,361.94,178.13,362.59,177.76"/>
	<path class="st7" d="M371,170.84c0.59-0.35,1.27-0.52,2.05-0.52c0.8,0,1.53,0.19,2.18,0.58c0.66,0.38,1.17,0.93,1.54,1.62
		c0.37,0.7,0.56,1.51,0.56,2.43c0,0.91-0.19,1.73-0.56,2.44c-0.37,0.71-0.89,1.27-1.54,1.67c-0.65,0.4-1.38,0.59-2.18,0.59
		c-0.77,0-1.45-0.17-2.04-0.52c-0.59-0.35-1.04-0.78-1.34-1.3v5.95h-1.5v-13.32h1.5v1.67C369.97,171.62,370.41,171.19,371,170.84
		 M375.39,173.17c-0.28-0.51-0.65-0.89-1.11-1.15c-0.47-0.26-0.98-0.4-1.54-0.4c-0.55,0-1.06,0.14-1.53,0.4
		c-0.47,0.27-0.84,0.66-1.12,1.17c-0.28,0.51-0.42,1.1-0.42,1.77c0,0.68,0.14,1.28,0.42,1.79c0.28,0.51,0.65,0.9,1.12,1.17
		c0.47,0.27,0.98,0.4,1.53,0.4c0.56,0,1.08-0.14,1.54-0.4c0.47-0.27,0.84-0.66,1.11-1.17c0.27-0.51,0.41-1.11,0.41-1.81
		C375.8,174.27,375.66,173.68,375.39,173.17"/>
	<path class="st7" d="M387.51,175.55h-7.22c0.05,0.89,0.36,1.59,0.92,2.08c0.55,0.5,1.23,0.75,2.02,0.75c0.65,0,1.19-0.15,1.62-0.45
		c0.43-0.3,0.74-0.71,0.91-1.21h1.62c-0.24,0.87-0.73,1.57-1.45,2.12c-0.73,0.55-1.63,0.82-2.7,0.82c-0.86,0-1.62-0.19-2.3-0.58
		c-0.68-0.38-1.21-0.93-1.59-1.64c-0.38-0.71-0.58-1.53-0.58-2.46s0.19-1.75,0.56-2.46c0.37-0.7,0.9-1.24,1.57-1.62
		s1.45-0.57,2.33-0.57c0.86,0,1.61,0.19,2.28,0.56c0.66,0.37,1.17,0.89,1.53,1.54c0.36,0.65,0.53,1.39,0.53,2.22
		C387.56,174.93,387.54,175.23,387.51,175.55 M385.63,172.85c-0.25-0.41-0.6-0.73-1.03-0.94c-0.43-0.21-0.92-0.32-1.44-0.32
		c-0.76,0-1.4,0.24-1.94,0.73c-0.53,0.48-0.84,1.15-0.91,2.01h5.7C386.01,173.76,385.88,173.26,385.63,172.85"/>
	<path class="st7" d="M392.17,170.73c0.49-0.29,1.09-0.43,1.79-0.43v1.55h-0.4c-1.68,0-2.52,0.91-2.52,2.74v4.91h-1.5v-9.03h1.5
		v1.47C391.3,171.42,391.68,171.02,392.17,170.73"/>
	<path class="st7" d="M395.69,172.52c0.37-0.7,0.89-1.24,1.54-1.62c0.65-0.38,1.38-0.58,2.18-0.58c0.79,0,1.48,0.17,2.06,0.51
		c0.58,0.34,1.02,0.77,1.3,1.29v-1.65h1.52v9.03h-1.52v-1.68c-0.3,0.53-0.74,0.96-1.33,1.31c-0.59,0.35-1.27,0.52-2.05,0.52
		c-0.8,0-1.53-0.2-2.18-0.59c-0.65-0.4-1.16-0.95-1.53-1.67c-0.37-0.71-0.56-1.53-0.56-2.44
		C395.13,174.03,395.31,173.22,395.69,172.52 M402.36,173.19c-0.27-0.5-0.65-0.89-1.11-1.16c-0.47-0.27-0.98-0.4-1.54-0.4
		c-0.56,0-1.07,0.13-1.53,0.4c-0.46,0.26-0.83,0.65-1.1,1.15c-0.27,0.51-0.41,1.1-0.41,1.78c0,0.69,0.14,1.29,0.41,1.81
		c0.28,0.51,0.64,0.9,1.1,1.17c0.46,0.27,0.97,0.4,1.53,0.4c0.56,0,1.08-0.14,1.54-0.4c0.47-0.27,0.84-0.66,1.11-1.17
		c0.27-0.51,0.41-1.11,0.41-1.79C402.78,174.29,402.64,173.7,402.36,173.19"/>
	<path class="st7" d="M408.66,171.71v5.33c0,0.44,0.09,0.75,0.28,0.93c0.19,0.18,0.51,0.27,0.97,0.27h1.1v1.27h-1.35
		c-0.84,0-1.46-0.19-1.88-0.58c-0.42-0.39-0.63-1.02-0.63-1.9v-5.33h-1.17v-1.24h1.17v-2.28h1.5v2.28h2.36v1.24H408.66z"/>
	<path class="st7" d="M412.88,168.7c-0.2-0.2-0.3-0.44-0.3-0.73c0-0.29,0.1-0.53,0.3-0.73c0.2-0.2,0.44-0.3,0.73-0.3
		c0.27,0,0.51,0.1,0.7,0.3s0.29,0.44,0.29,0.73c0,0.29-0.1,0.53-0.29,0.73s-0.43,0.3-0.7,0.3C413.32,169,413.08,168.9,412.88,168.7
		 M414.33,179.5h-1.5v-9.04h1.5V179.5z"/>
	<path class="st7" d="M423.96,171.3c0.68,0.67,1.02,1.62,1.02,2.88v5.33h-1.48v-5.11c0-0.9-0.22-1.59-0.68-2.07
		c-0.45-0.48-1.07-0.72-1.85-0.72c-0.79,0-1.42,0.25-1.89,0.74c-0.47,0.49-0.7,1.21-0.7,2.16v5h-1.5v-9.03h1.5v1.28
		c0.3-0.46,0.7-0.82,1.21-1.07c0.51-0.25,1.08-0.38,1.69-0.38C422.39,170.3,423.28,170.64,423.96,171.3"/>
	<path class="st7" d="M433.22,170.83c0.59,0.34,1.02,0.77,1.31,1.29v-1.65h1.52v9.23c0,0.82-0.18,1.56-0.53,2.2
		c-0.35,0.64-0.85,1.15-1.51,1.51c-0.65,0.36-1.41,0.54-2.28,0.54c-1.19,0-2.18-0.28-2.97-0.84c-0.79-0.56-1.26-1.32-1.4-2.29h1.48
		c0.16,0.55,0.51,0.99,1.02,1.33c0.52,0.34,1.14,0.5,1.86,0.5c0.83,0,1.5-0.26,2.02-0.77c0.52-0.52,0.78-1.24,0.78-2.18v-1.9
		c-0.3,0.53-0.74,0.97-1.32,1.32c-0.58,0.35-1.26,0.53-2.04,0.53c-0.8,0-1.53-0.2-2.18-0.59s-1.17-0.95-1.54-1.67
		c-0.37-0.71-0.56-1.53-0.56-2.44c0-0.92,0.19-1.73,0.56-2.43c0.37-0.7,0.89-1.24,1.54-1.62c0.65-0.38,1.38-0.58,2.18-0.58
		C431.95,170.32,432.63,170.49,433.22,170.83 M434.12,173.19c-0.27-0.5-0.65-0.89-1.11-1.16c-0.47-0.27-0.98-0.4-1.54-0.4
		c-0.56,0-1.07,0.13-1.53,0.4c-0.46,0.26-0.83,0.65-1.11,1.15c-0.27,0.51-0.41,1.1-0.41,1.78c0,0.69,0.14,1.29,0.41,1.81
		c0.28,0.51,0.64,0.9,1.11,1.17c0.46,0.27,0.97,0.4,1.53,0.4c0.56,0,1.07-0.14,1.54-0.4c0.47-0.27,0.84-0.66,1.11-1.17
		c0.27-0.51,0.41-1.11,0.41-1.79C434.53,174.29,434.39,173.7,434.12,173.19"/>
	<path class="st7" d="M444.6,179.22c-0.6-0.27-1.07-0.64-1.41-1.12c-0.34-0.48-0.52-1.03-0.53-1.66h1.6
		c0.06,0.54,0.28,0.99,0.67,1.36c0.39,0.37,0.96,0.55,1.71,0.55c0.71,0,1.28-0.18,1.69-0.53c0.41-0.36,0.62-0.82,0.62-1.38
		c0-0.44-0.12-0.8-0.36-1.07c-0.24-0.28-0.55-0.48-0.91-0.63c-0.36-0.14-0.85-0.3-1.47-0.46c-0.76-0.2-1.37-0.4-1.82-0.59
		c-0.46-0.2-0.85-0.51-1.17-0.93c-0.32-0.42-0.49-0.99-0.49-1.71c0-0.63,0.16-1.18,0.48-1.67c0.32-0.48,0.77-0.86,1.34-1.12
		c0.58-0.26,1.24-0.4,1.99-0.4c1.08,0,1.96,0.27,2.65,0.81c0.69,0.54,1.07,1.25,1.16,2.14h-1.65c-0.05-0.44-0.29-0.83-0.69-1.16
		c-0.41-0.33-0.95-0.5-1.62-0.5c-0.63,0-1.14,0.16-1.53,0.49c-0.39,0.33-0.59,0.78-0.59,1.36c0,0.42,0.12,0.76,0.36,1.02
		s0.53,0.46,0.87,0.6c0.35,0.14,0.83,0.29,1.46,0.47c0.76,0.21,1.37,0.42,1.83,0.62c0.46,0.2,0.86,0.52,1.19,0.94
		c0.33,0.42,0.49,1,0.49,1.72c0,0.56-0.15,1.09-0.45,1.58c-0.3,0.49-0.74,0.9-1.32,1.2c-0.58,0.31-1.27,0.46-2.06,0.46
		C445.88,179.62,445.2,179.49,444.6,179.22"/>
	<polygon class="st7" points="460.45,170.47 455.01,183.76 453.46,183.76 455.24,179.41 451.6,170.47 453.26,170.47 456.1,177.79 
		458.9,170.47 	"/>
	<path class="st7" d="M463.29,179.3c-0.55-0.24-0.98-0.57-1.3-0.99c-0.32-0.42-0.49-0.91-0.53-1.46h1.55
		c0.04,0.45,0.26,0.82,0.63,1.1c0.38,0.29,0.88,0.43,1.49,0.43c0.57,0,1.02-0.13,1.35-0.38c0.33-0.25,0.49-0.57,0.49-0.96
		c0-0.4-0.18-0.69-0.53-0.88c-0.35-0.19-0.9-0.38-1.63-0.57c-0.67-0.18-1.22-0.36-1.64-0.54c-0.42-0.18-0.79-0.45-1.09-0.81
		c-0.3-0.36-0.46-0.83-0.46-1.41c0-0.46,0.14-0.89,0.41-1.27c0.27-0.38,0.67-0.69,1.17-0.92c0.51-0.23,1.08-0.34,1.73-0.34
		c1,0,1.81,0.25,2.42,0.76c0.62,0.51,0.95,1.2,0.99,2.08h-1.5c-0.03-0.47-0.22-0.85-0.57-1.14c-0.35-0.29-0.81-0.43-1.39-0.43
		c-0.54,0-0.97,0.11-1.29,0.35c-0.32,0.23-0.48,0.53-0.48,0.91c0,0.3,0.1,0.54,0.29,0.73c0.19,0.19,0.43,0.35,0.73,0.46
		c0.29,0.11,0.69,0.24,1.21,0.39c0.65,0.18,1.18,0.35,1.58,0.52c0.41,0.17,0.76,0.43,1.05,0.77c0.29,0.34,0.44,0.79,0.45,1.34
		c0,0.49-0.14,0.94-0.41,1.34c-0.27,0.4-0.66,0.71-1.16,0.93c-0.5,0.22-1.07,0.34-1.72,0.34
		C464.46,179.65,463.84,179.53,463.29,179.3"/>
	<path class="st7" d="M472.39,171.71v5.33c0,0.44,0.09,0.75,0.28,0.93c0.19,0.18,0.51,0.27,0.97,0.27h1.1v1.27h-1.35
		c-0.84,0-1.46-0.19-1.88-0.58c-0.42-0.39-0.63-1.02-0.63-1.9v-5.33h-1.17v-1.24h1.17v-2.28h1.5v2.28h2.36v1.24H472.39z"/>
	<path class="st7" d="M484.75,175.55h-7.22c0.05,0.89,0.36,1.59,0.92,2.08c0.55,0.5,1.23,0.75,2.02,0.75c0.65,0,1.19-0.15,1.62-0.45
		c0.43-0.3,0.74-0.71,0.91-1.21h1.61c-0.24,0.87-0.72,1.57-1.45,2.12c-0.73,0.55-1.63,0.82-2.7,0.82c-0.86,0-1.62-0.19-2.3-0.58
		c-0.68-0.38-1.21-0.93-1.59-1.64c-0.38-0.71-0.58-1.53-0.58-2.46s0.19-1.75,0.56-2.46c0.37-0.7,0.9-1.24,1.57-1.62
		s1.45-0.57,2.33-0.57c0.86,0,1.61,0.19,2.28,0.56c0.66,0.37,1.17,0.89,1.53,1.54c0.36,0.65,0.53,1.39,0.53,2.22
		C484.8,174.93,484.79,175.23,484.75,175.55 M482.87,172.85c-0.25-0.41-0.6-0.73-1.03-0.94c-0.43-0.21-0.92-0.32-1.44-0.32
		c-0.76,0-1.4,0.24-1.94,0.73c-0.53,0.48-0.84,1.15-0.91,2.01h5.7C483.25,173.76,483.13,173.26,482.87,172.85"/>
	<path class="st7" d="M499.53,170.74c0.55,0.29,0.98,0.73,1.3,1.31c0.32,0.58,0.48,1.29,0.48,2.13v5.33h-1.48v-5.11
		c0-0.9-0.22-1.59-0.67-2.07c-0.45-0.48-1.05-0.72-1.81-0.72c-0.78,0-1.4,0.25-1.86,0.75c-0.46,0.5-0.69,1.22-0.69,2.17v4.98h-1.48
		v-5.11c0-0.9-0.22-1.59-0.67-2.07c-0.45-0.48-1.05-0.72-1.81-0.72c-0.78,0-1.4,0.25-1.86,0.75c-0.46,0.5-0.69,1.22-0.69,2.17v4.98
		h-1.5v-9.04h1.5v1.3c0.3-0.47,0.7-0.84,1.2-1.09c0.5-0.25,1.05-0.38,1.66-0.38c0.76,0,1.43,0.17,2.01,0.51
		c0.58,0.34,1.02,0.84,1.3,1.5c0.25-0.64,0.67-1.13,1.25-1.48c0.58-0.35,1.23-0.53,1.95-0.53
		C498.35,170.3,498.98,170.45,499.53,170.74"/>
</g>
</svg>
