<?xml version="1.0" encoding="iso-8859-1"?>
<!-- Generator: Adobe Illustrator 23.0.4, SVG Export Plug-In . SVG Version: 6.00 Build 0)  -->
<svg version="1.1" xmlns="http://www.w3.org/2000/svg" xmlns:xlink="http://www.w3.org/1999/xlink" x="0px" y="0px"
	 viewBox="0 0 64 64" style="enable-background:new 0 0 64 64;" xml:space="preserve">
<g id="conveyor-belt">
	<path style="fill:#404041;" d="M55.12,16.84H33.92c-0.444,0-0.803,0.36-0.803,0.803v15.721c0,0.444,0.359,0.803,0.803,0.803H55.12
		c0.444,0,0.803-0.36,0.803-0.803V17.643C55.923,17.199,55.564,16.84,55.12,16.84z M43.289,18.446h2.461v2.607h-2.461V18.446z
		 M54.316,32.561H34.723V18.446h6.959v3.41c0,0.444,0.359,0.803,0.803,0.803h4.068c0.444,0,0.803-0.36,0.803-0.803v-3.41h6.959
		V32.561z M44.906,29.194h3.372v1.606h-3.372V29.194z M52.766,30.801h-3.372v-1.606h3.372V30.801z M30.079,16.84H8.88
		c-0.444,0-0.803,0.36-0.803,0.803v15.721c0,0.444,0.359,0.803,0.803,0.803h21.199c0.444,0,0.803-0.36,0.803-0.803V17.643
		C30.882,17.199,30.523,16.84,30.079,16.84z M18.249,18.446h2.462v2.607h-2.462V18.446z M29.276,32.561H9.684V18.446h6.959v3.41
		c0,0.444,0.359,0.803,0.803,0.803h4.069c0.444,0,0.803-0.36,0.803-0.803v-3.41h6.958V32.561z M19.865,29.194h3.372v1.606h-3.372
		V29.194z M27.726,30.801h-3.372v-1.606h3.372V30.801z"/>
	<path style="fill:#80C0C9;" d="M56.7,32.561H7.3c-4.025,0-7.3,3.275-7.3,7.3s3.275,7.3,7.3,7.3H56.7c4.025,0,7.3-3.275,7.3-7.3
		S60.725,32.561,56.7,32.561z M56.7,45.554H7.3c-3.139,0-5.693-2.554-5.693-5.693c0-3.14,2.554-5.694,5.693-5.694H56.7
		c3.139,0,5.693,2.554,5.693,5.694C62.394,43,59.839,45.554,56.7,45.554z"/>
	<path style="fill:#F29E87;" d="M57.112,36.342c-1.941,0-3.519,1.579-3.519,3.519c0,1.94,1.578,3.519,3.519,3.519
		c1.941,0,3.52-1.579,3.52-3.519C60.632,37.92,59.053,36.342,57.112,36.342z M57.112,41.773c-1.054,0-1.912-0.858-1.912-1.912
		s0.858-1.913,1.912-1.913c1.055,0,1.913,0.858,1.913,1.913S58.167,41.773,57.112,41.773z M48.953,36.342
		c-1.941,0-3.519,1.579-3.519,3.519c0,1.94,1.578,3.519,3.519,3.519c1.941,0,3.52-1.579,3.52-3.519
		C52.473,37.92,50.894,36.342,48.953,36.342z M48.953,41.773c-1.054,0-1.912-0.858-1.912-1.912s0.858-1.913,1.912-1.913
		c1.055,0,1.913,0.858,1.913,1.913S50.008,41.773,48.953,41.773z M6.996,36.342c-1.941,0-3.519,1.579-3.519,3.519
		c0,1.94,1.578,3.519,3.519,3.519s3.519-1.579,3.519-3.519C10.515,37.92,8.937,36.342,6.996,36.342z M6.996,41.773
		c-1.054,0-1.912-0.858-1.912-1.912s0.858-1.913,1.912-1.913s1.912,0.858,1.912,1.913S8.05,41.773,6.996,41.773z M15.155,36.342
		c-1.941,0-3.519,1.579-3.519,3.519c0,1.94,1.578,3.519,3.519,3.519s3.519-1.579,3.519-3.519
		C18.674,37.92,17.095,36.342,15.155,36.342z M15.155,41.773c-1.054,0-1.912-0.858-1.912-1.912s0.858-1.913,1.912-1.913
		s1.912,0.858,1.912,1.913S16.209,41.773,15.155,41.773z"/>
</g>
<g id="Layer_1">
</g>
</svg>
