<?xml version="1.0" encoding="iso-8859-1"?>
<!-- Generator: Adobe Illustrator 23.0.4, SVG Export Plug-In . SVG Version: 6.00 Build 0)  -->
<svg version="1.1" xmlns="http://www.w3.org/2000/svg" xmlns:xlink="http://www.w3.org/1999/xlink" x="0px" y="0px"
	 viewBox="0 0 64 64" style="enable-background:new 0 0 64 64;" xml:space="preserve">
<g id="factory-03">
	<path style="fill:#F29E87;" d="M2.325,53.637V38.589c0-0.295,0.172-0.563,0.441-0.686l16.517-7.537
		c0.231-0.107,0.503-0.088,0.721,0.052c0.216,0.139,0.346,0.378,0.346,0.634v6.364l15.451-7.05c0.237-0.108,0.515-0.086,0.732,0.06
		c0.217,0.146,0.344,0.393,0.333,0.655l-0.243,6.314l15.404-7.029c0.231-0.107,0.503-0.088,0.721,0.052
		c0.216,0.139,0.346,0.378,0.346,0.634l-1.507,1.172l-15.451,7.05c-0.236,0.109-0.515,0.086-0.732-0.06
		c-0.217-0.146-0.344-0.393-0.333-0.655l0.243-6.314l-15.404,7.029c-0.233,0.106-0.504,0.086-0.721-0.052
		c-0.216-0.139-0.346-0.378-0.346-0.634v-6.364l-15.01,6.849v14.563H2.325z M15.627,41.133c0.417,0,0.754,0.337,0.754,0.754v3.155
		c0,0.416-0.337,0.754-0.754,0.754H7.278c-0.417,0-0.754-0.337-0.754-0.754v-3.155c0-0.416,0.337-0.754,0.754-0.754H15.627z
		 M8.032,44.288h2.667V42.64H8.032V44.288z M14.873,42.64h-2.667v1.648h2.667V42.64z M32.608,41.886v3.155
		c0,0.416-0.337,0.754-0.754,0.754h-8.349c-0.417,0-0.754-0.337-0.754-0.754v-3.155c0-0.416,0.337-0.754,0.754-0.754h8.349
		C32.27,41.133,32.608,41.47,32.608,41.886z M24.259,44.288h2.667V42.64h-2.667V44.288z M31.1,42.64h-2.667v1.648H31.1V42.64z
		 M40.438,45.795c-0.417,0-0.754-0.337-0.754-0.754v-3.155c0-0.416,0.337-0.754,0.754-0.754h8.348c0.417,0,0.754,0.337,0.754,0.754
		v3.155c0,0.416-0.337,0.754-0.754,0.754H40.438z M48.033,42.64h-2.667v1.648h2.667V42.64z M41.192,44.288h2.667V42.64h-2.667
		V44.288z"/>
	<path style="fill:#404041;" d="M53.094,54.389l-1.507,0.374V17.078c0-0.416,0.337-0.754,0.754-0.754h8.075
		c0.417,0,0.754,0.337,0.754,0.754v37.311h-1.507V17.831h-6.568v35.052 M39.303,19.656c2.095-0.01,3.959-0.968,5.542-2.846
		c5.143-6.103,10.648-2.288,10.879-2.122l0.88-1.224c-0.067-0.049-6.855-4.813-12.912,2.374c-1.284,1.524-2.762,2.301-4.393,2.31
		c-0.01,0-0.021,0-0.031,0c-3.849,0-7.457-4.132-7.493-4.173l-1.143,0.983c0.166,0.192,4.091,4.698,8.636,4.698
		C39.28,19.656,39.291,19.656,39.303,19.656z M23.089,16.641c2.095-0.01,3.96-0.968,5.543-2.846
		c5.144-6.103,10.647-2.288,10.879-2.122l0.88-1.224c-0.067-0.049-6.855-4.813-12.912,2.374c-1.284,1.524-2.762,2.301-4.393,2.31
		c-3.868,0.058-7.487-4.131-7.523-4.173l-1.143,0.983c0.166,0.192,4.09,4.698,8.636,4.698
		C23.067,16.641,23.078,16.641,23.089,16.641z"/>
	<rect y="53.637" style="fill:#80C0C9;" width="64" height="1.507"/>
</g>
<g id="Layer_1">
</g>
</svg>
