<?xml version="1.0" encoding="iso-8859-1"?>
<!-- Generator: Adobe Illustrator 23.0.4, SVG Export Plug-In . SVG Version: 6.00 Build 0)  -->
<svg version="1.1" xmlns="http://www.w3.org/2000/svg" xmlns:xlink="http://www.w3.org/1999/xlink" x="0px" y="0px"
	 viewBox="0 0 64 64" style="enable-background:new 0 0 64 64;" xml:space="preserve">
<g id="factory-12">
	<path style="fill:#F29E87;" d="M54.456,42h-4.904l-1.339-20.073c-0.024-0.353-0.317-0.627-0.67-0.627h-3.765
		c-0.354,0-0.647,0.274-0.67,0.627l-0.651,9.759l-0.977-9.782c-0.034-0.343-0.323-0.605-0.668-0.605h-5.637
		c-0.345,0-0.634,0.262-0.668,0.605L32.498,42h-3.287c-0.371,0-0.672,0.3-0.672,0.672v12.081c0,0.371,0.3,0.672,0.672,0.672h25.246
		c0.371,0,0.672-0.3,0.672-0.672V42.671C55.128,42.3,54.828,42,54.456,42z M44.406,22.643h2.508L48.206,42h-4.719l-0.223-2.23
		L44.406,22.643z M35.782,22.643h4.421l1.713,17.148l-0.007,0.11l0.018,0.001L42.136,42h-8.288L35.782,22.643z M53.785,54.08H29.883
		V43.343h23.902V54.08z M35.305,17.547h-8.884c-1.493,0-2.707-1.214-2.707-2.707c0-1.5,1.214-2.714,2.707-2.714h12.725
		c1.111,0,2.015-0.904,2.015-2.015V8.576h1.343v1.536c0,1.852-1.507,3.359-3.359,3.359H26.422c-0.752,0-1.364,0.612-1.364,1.364
		c0,0.758,0.612,1.37,1.364,1.37h8.884c1.852,0,3.359,1.507,3.359,3.359v0.954h-1.343v-0.954
		C37.321,18.451,36.417,17.547,35.305,17.547z M64,11.935v1.536c0,1.852-1.507,3.359-3.359,3.359H47.916
		c-0.752,0-1.364,0.612-1.364,1.364v2.114h-1.343v-2.108c0-1.5,1.214-2.714,2.707-2.714h12.725c1.111,0,2.015-0.904,2.015-2.015
		v-1.536H64z"/>
	<path style="fill:#404041;" d="M29.628,29.162c-0.161-0.127-0.37-0.173-0.571-0.127L0.518,35.752C0.215,35.824,0,36.095,0,36.406
		v18.346c0,0.371,0.3,0.672,0.672,0.672h28.539c0.371,0,0.672-0.3,0.672-0.672V29.689C29.883,29.484,29.789,29.29,29.628,29.162z
		 M28.539,30.537v0.635L1.343,37.573v-0.635L28.539,30.537z M1.343,54.08V38.953l27.196-6.401V54.08H1.343z"/>
	<path style="fill:#80C0C9;" d="M51.22,51.076h-8.025c-0.371,0-0.672-0.3-0.672-0.672v-3.385c0-0.371,0.3-0.672,0.672-0.672h8.025
		c0.371,0,0.672,0.3,0.672,0.672v3.385C51.892,50.776,51.591,51.076,51.22,51.076z M43.866,49.733h6.682v-2.042h-6.682V49.733z
		 M40.472,51.076h-8.025c-0.371,0-0.672-0.3-0.672-0.672v-3.385c0-0.371,0.3-0.672,0.672-0.672h8.025c0.371,0,0.672,0.3,0.672,0.672
		v3.385C41.144,50.776,40.844,51.076,40.472,51.076z M33.119,49.733h6.682v-2.042h-6.682V49.733z M25.715,45.924h-1.343v-2.516
		h-2.76v-1.343h4.103V45.924z M19.78,45.924h-1.343v-2.516h-2.76v-1.343h4.104V45.924z M13.845,45.924h-1.343v-2.516h-2.76v-1.343
		h4.104V45.924z M7.91,45.924H6.566v-2.516h-2.76v-1.343H7.91V45.924z M25.715,51.298h-1.343v-2.516h-2.76v-1.343h4.103V51.298z
		 M19.78,51.298h-1.343v-2.516h-2.76v-1.343h4.104V51.298z M13.845,51.298h-1.343v-2.516h-2.76v-1.343h4.104V51.298z M7.91,51.298
		H6.566v-2.516h-2.76v-1.343H7.91V51.298z"/>
</g>
<g id="Layer_1">
</g>
</svg>
