<?xml version="1.0" encoding="iso-8859-1"?>
<!-- Generator: Adobe Illustrator 23.0.4, SVG Export Plug-In . SVG Version: 6.00 Build 0)  -->
<svg version="1.1" xmlns="http://www.w3.org/2000/svg" xmlns:xlink="http://www.w3.org/1999/xlink" x="0px" y="0px"
	 viewBox="0 0 64 64" style="enable-background:new 0 0 64 64;" xml:space="preserve">
<g id="factory-07">
	<path style="fill:#F29E87;" d="M46.442,26.65l-21.621,9.087v4.342v0.599V54.18h-1.199V40.678H8.761v13.718H7.562V39.48h16.061
		v-4.539l24.019-10.095L46.442,26.65z M20.862,53.692v-7.156h-8.058v7.156l1.199-0.111v-5.846h2.231v5.846h1.199v-5.846h2.231v5.846
		L20.862,53.692z M36.627,48.083h5.747v3.508h-5.747V48.083z M37.826,50.391h3.349v-1.11h-3.349V50.391z M36.627,37.327h5.747v3.508
		h-5.747V37.327z M37.826,39.636h3.349v-1.11h-3.349V39.636z M28.834,42.705h5.747v3.508h-5.747V42.705z M30.033,45.014h3.349v-1.11
		h-3.349V45.014z M28.834,37.327h5.747v3.508h-5.747V37.327z M30.033,39.636h3.349v-1.11h-3.349V39.636z M28.834,48.083h5.747v3.508
		h-5.747V48.083z M30.033,50.391h3.349v-1.11h-3.349V50.391z M36.627,42.705h5.747v3.508h-5.747V42.705z M37.826,45.014h3.349v-1.11
		h-3.349V45.014z"/>
	<path style="fill:#404041;" d="M30.136,13.627h29.742v-1.199H30.136c-1.728,0-3.134,1.406-3.134,3.133
		c0,1.728,1.406,3.133,3.134,3.133h17.835c0.661,0,1.199,0.538,1.199,1.199v1.757h-2.727v32.27h1.199V28.856h4.256v2.398h-2.128
		v1.199h2.128v2.398h-2.128v1.199h2.128v2.398h-2.128v1.199h2.128v2.398h-2.128v1.199h2.128v2.397h-2.128v1.199h2.128v2.398h-2.128
		v1.199h2.128v3.676h1.199v-32.46h-2.727v-1.757c0-1.322-1.075-2.398-2.398-2.398H30.136c-1.067,0-1.935-0.868-1.935-1.934
		S29.069,13.627,30.136,13.627z M51.897,22.85v4.808h-4.256V22.85H51.897z M64,12.79c0,1.931-1.571,3.502-3.501,3.502H37.283v-1.199
		h23.217c1.269,0,2.302-1.033,2.302-2.302s-1.033-2.302-2.302-2.302H40.011V9.289h20.488C62.429,9.289,64,10.859,64,12.79z"/>
	<rect y="53.512" style="fill:#80C0C9;" width="56.231" height="1.199"/>
</g>
<g id="Layer_1">
</g>
</svg>
