<?xml version="1.0" encoding="iso-8859-1"?>
<!-- Generator: Adobe Illustrator 23.0.4, SVG Export Plug-In . SVG Version: 6.00 Build 0)  -->
<svg version="1.1" xmlns="http://www.w3.org/2000/svg" xmlns:xlink="http://www.w3.org/1999/xlink" x="0px" y="0px"
	 viewBox="0 0 64 64" style="enable-background:new 0 0 64 64;" xml:space="preserve">
<g id="factory-05">
	<path style="fill:#F29E87;" d="M60.239,41.494h-5.177V31.108c0-0.396-0.321-0.717-0.717-0.717h-5.041
		c-0.106,0-0.211,0.023-0.307,0.069L47.5,31.168l-0.946-13.592c-0.026-0.376-0.339-0.668-0.716-0.668h-5.053
		c-0.385,0-0.701,0.303-0.717,0.688L39.35,35.028l-3.84,1.819c-0.25,0.119-0.41,0.371-0.41,0.648v3.998h-3.662
		c-0.396,0-0.717,0.321-0.717,0.717V53.92h1.435V42.929h27.365V53.92h1.435V42.211C60.956,41.815,60.635,41.494,60.239,41.494z
		 M41.474,18.343h3.695l0.938,13.485l-5.293,2.507L41.474,18.343z M36.535,37.949l12.929-6.124h4.163v9.668H36.535V37.949z
		 M46.875,11.435h8.505v1.435h-7.788v1.544c0,0.396-0.321,0.717-0.717,0.717h-1.671v1.388h-1.435v-2.105
		c0-0.396,0.321-0.717,0.717-0.717h1.671v-1.544C46.157,11.756,46.479,11.435,46.875,11.435z M43.131,16.518h-1.435v-4.177
		c0-0.396,0.321-0.717,0.717-0.717h1.671V10.08c0-0.396,0.321-0.717,0.717-0.717H57.97v1.435H45.52v1.544
		c0,0.396-0.321,0.717-0.717,0.717h-1.671V16.518z M60.504,10.797h-1.419V9.363h1.419V10.797z M56.306,11.435h1.671v1.435h-1.671
		V11.435z M39.03,44.716h-2.19c-0.396,0-0.717,0.321-0.717,0.717v5.265c0,0.397,0.321,0.717,0.717,0.717h2.19
		c0.396,0,0.717-0.321,0.717-0.717v-5.265C39.748,45.036,39.427,44.716,39.03,44.716z M38.313,49.98h-0.755v-3.83h0.755V49.98z
		 M49.39,44.716H47.2c-0.396,0-0.717,0.321-0.717,0.717v5.265c0,0.397,0.321,0.717,0.717,0.717h2.19
		c0.396,0,0.717-0.321,0.717-0.717v-5.265C50.107,45.036,49.786,44.716,49.39,44.716z M48.673,49.98h-0.755v-3.83h0.755V49.98z
		 M44.21,44.716h-2.19c-0.396,0-0.717,0.321-0.717,0.717v5.265c0,0.397,0.321,0.717,0.717,0.717h2.19
		c0.396,0,0.717-0.321,0.717-0.717v-5.265C44.928,45.036,44.606,44.716,44.21,44.716z M43.493,49.98h-0.755v-3.83h0.755V49.98z
		 M54.57,44.716h-2.19c-0.396,0-0.717,0.321-0.717,0.717v5.265c0,0.397,0.321,0.717,0.717,0.717h2.19
		c0.396,0,0.717-0.321,0.717-0.717v-5.265C55.287,45.036,54.966,44.716,54.57,44.716z M53.852,49.98h-0.755v-3.83h0.755V49.98z"/>
	<path style="fill:#404041;" d="M32.156,36.401V53.92h-1.435V37.118H4.759V53.92H3.325V36.401c0-0.396,0.321-0.717,0.717-0.717
		h27.397C31.835,35.684,32.156,36.005,32.156,36.401z M14.061,39.654v3.338c0,0.397-0.321,0.717-0.717,0.717h-3.049
		c-0.396,0-0.717-0.321-0.717-0.717v-3.338c0-0.396,0.321-0.717,0.717-0.717h3.049C13.74,38.936,14.061,39.257,14.061,39.654z
		 M12.626,40.371h-1.615v1.903h1.615V40.371z M14.061,45.895v3.337c0,0.397-0.321,0.717-0.717,0.717h-3.049
		c-0.396,0-0.717-0.321-0.717-0.717v-3.337c0-0.397,0.321-0.717,0.717-0.717h3.049C13.74,45.177,14.061,45.498,14.061,45.895z
		 M12.626,46.612h-1.615v1.903h1.615V46.612z M20.005,45.895v3.337c0,0.397-0.321,0.717-0.717,0.717h-3.049
		c-0.396,0-0.717-0.321-0.717-0.717v-3.337c0-0.397,0.321-0.717,0.717-0.717h3.049C19.684,45.177,20.005,45.498,20.005,45.895z
		 M18.571,46.612h-1.615v1.903h1.615V46.612z M25.904,39.654v3.338c0,0.397-0.321,0.717-0.717,0.717h-3.049
		c-0.396,0-0.717-0.321-0.717-0.717v-3.338c0-0.396,0.321-0.717,0.717-0.717h3.049C25.583,38.936,25.904,39.257,25.904,39.654z
		 M24.469,40.371h-1.615v1.903h1.615V40.371z M25.904,45.895v3.337c0,0.397-0.321,0.717-0.717,0.717h-3.049
		c-0.396,0-0.717-0.321-0.717-0.717v-3.337c0-0.397,0.321-0.717,0.717-0.717h3.049C25.583,45.177,25.904,45.498,25.904,45.895z
		 M24.469,46.612h-1.615v1.903h1.615V46.612z M20.005,39.654v3.338c0,0.397-0.321,0.717-0.717,0.717h-3.049
		c-0.396,0-0.717-0.321-0.717-0.717v-3.338c0-0.396,0.321-0.717,0.717-0.717h3.049C19.684,38.936,20.005,39.257,20.005,39.654z
		 M18.571,40.371h-1.615v1.903h1.615V40.371z"/>
	<rect y="53.203" style="fill:#80C0C9;" width="64" height="1.435"/>
</g>
<g id="Layer_1">
</g>
</svg>
