<?xml version="1.0" encoding="iso-8859-1"?>
<!-- Generator: Adobe Illustrator 23.0.4, SVG Export Plug-In . SVG Version: 6.00 Build 0)  -->
<svg version="1.1" xmlns="http://www.w3.org/2000/svg" xmlns:xlink="http://www.w3.org/1999/xlink" x="0px" y="0px"
	 viewBox="0 0 64 64" style="enable-background:new 0 0 64 64;" xml:space="preserve">
<g id="factory-09">
	<path style="fill:#404041;" d="M1.365,43.392h15.471v1.384h-0.54v6.198h-1.384v-6.198H2.896v6.198H1.512v-6.198H1.365V43.392z
		 M1.365,35.932h15.471v1.384h-0.54v4.373h0.54v1.384H1.365v-1.384h0.148v-4.373H1.365V35.932z M2.896,41.689h12.016v-4.373H2.896
		V41.689z M19.536,35.932h15.471v1.384h-0.54v4.373h0.54v1.384H19.536v-1.384h0.147v-4.373h-0.147V35.932z M21.067,41.689h12.016
		v-4.373H21.067V41.689z M19.536,44.776h0.147v6.198h1.384v-6.198h12.016v6.198h1.384v-6.198h0.54v-1.384H19.536V44.776z
		 M27.767,18.887v3.782l6.447,5.305c0.16,0.132,0.252,0.328,0.252,0.534v5.72h0.54v1.384H19.536v-1.384h0.147v-5.72
		c0-0.207,0.093-0.403,0.252-0.534l6.448-5.306v-3.782H9.596v3.782l6.448,5.306c0.16,0.132,0.252,0.328,0.252,0.534v5.72h0.54v1.384
		H1.365v-1.384h0.148v-5.72c0-0.207,0.093-0.403,0.252-0.534l6.447-5.305v-4.474c0-0.382,0.31-0.692,0.692-0.692h33.527v1.384
		H27.767z M14.912,29.366H2.896v4.862h12.016V29.366z M13.875,27.983l-4.971-4.091l-4.971,4.091H13.875z M33.083,29.366H21.067
		v4.862h12.016V29.366z M32.047,27.983l-4.971-4.091l-4.971,4.091H32.047z"/>
	<path style="fill:#F29E87;" d="M48.233,17.154h-3.047c-0.382,0-0.692,0.309-0.692,0.692v7.386c0,0.382,0.31,0.692,0.692,0.692
		h3.047c0.382,0,0.692-0.309,0.692-0.692v-7.386C48.925,17.464,48.616,17.154,48.233,17.154z M47.542,24.54h-1.663v-6.002h1.663
		V24.54z M55.047,17.154h-3.046c-0.382,0-0.692,0.309-0.692,0.692v7.386c0,0.382,0.31,0.692,0.692,0.692h3.046
		c0.382,0,0.692-0.309,0.692-0.692v-7.386C55.739,17.464,55.43,17.154,55.047,17.154z M54.355,24.54h-1.663v-6.002h1.663V24.54z
		 M55.047,28.511h-3.046c-0.382,0-0.692,0.309-0.692,0.692v7.386c0,0.382,0.31,0.692,0.692,0.692h3.046
		c0.382,0,0.692-0.309,0.692-0.692v-7.386C55.739,28.82,55.43,28.511,55.047,28.511z M54.355,35.897h-1.663v-6.002h1.663V35.897z
		 M48.233,28.511h-3.047c-0.382,0-0.692,0.309-0.692,0.692v7.386c0,0.382,0.31,0.692,0.692,0.692h3.047
		c0.382,0,0.692-0.309,0.692-0.692v-7.386C48.925,28.82,48.616,28.511,48.233,28.511z M47.542,35.897h-1.663v-6.002h1.663V35.897z
		 M62.306,39.609h-3.55V13.025c0-0.382-0.31-0.692-0.692-0.692H42.431c-0.382,0-0.692,0.309-0.692,0.692v26.583h-3.216
		c-0.382,0-0.692,0.309-0.692,0.692v10.674h1.384v-9.982h22.399v9.982h1.384V40.301C62.998,39.918,62.688,39.609,62.306,39.609z
		 M43.123,13.717h14.249v25.892H43.123V13.717z M43.593,43.84h1.384v3.945h-1.384V43.84z M47.568,43.84h1.384v3.945h-1.384V43.84z
		 M51.543,43.84h1.384v3.945h-1.384V43.84z M55.518,43.84h1.384v3.945h-1.384V43.84z"/>
	<rect y="50.283" style="fill:#80C0C9;" width="64" height="1.384"/>
</g>
<g id="Layer_1">
</g>
</svg>
