<?xml version="1.0" encoding="iso-8859-1"?>
<!-- Generator: Adobe Illustrator 23.0.4, SVG Export Plug-In . SVG Version: 6.00 Build 0)  -->
<svg version="1.1" xmlns="http://www.w3.org/2000/svg" xmlns:xlink="http://www.w3.org/1999/xlink" x="0px" y="0px"
	 viewBox="0 0 64 64" style="enable-background:new 0 0 64 64;" xml:space="preserve">
<g id="factory-08">
	<path style="fill:#80C0C9;" d="M18.667,45.595V19.602c0-0.308-0.17-0.591-0.443-0.734c-0.272-0.145-0.602-0.125-0.856,0.049
		L0.362,30.54C0.135,30.695,0,30.951,0,31.225v30.939c0,0.459,0.371,0.83,0.83,0.83h17.007v-1.66H1.66V31.664l15.347-10.489v24.42
		H18.667z"/>
	<rect x="4.339" y="49.711" style="fill:#80C0C9;" width="9.989" height="1.66"/>
	<rect x="4.339" y="54.693" style="fill:#80C0C9;" width="9.989" height="1.66"/>
	<rect x="4.339" y="44.73" style="fill:#80C0C9;" width="9.989" height="1.66"/>
	<rect x="4.339" y="34.767" style="fill:#80C0C9;" width="9.989" height="1.66"/>
	<rect x="4.339" y="39.748" style="fill:#80C0C9;" width="9.989" height="1.66"/>
	<g>
		<g>
			<path style="fill:none;stroke:#404041;stroke-width:2;stroke-linejoin:round;stroke-miterlimit:10;" d="M38.624,37.053"/>
		</g>
	</g>
	<g>
		<g>
			<path style="fill:none;stroke:#404041;stroke-width:2;stroke-linejoin:round;stroke-miterlimit:10;" d="M17.837,37.053"/>
		</g>
	</g>
	<g>
		<g>
			<path style="fill:none;stroke:#404041;stroke-width:2;stroke-linejoin:round;stroke-miterlimit:10;" d="M38.624,32.902"/>
		</g>
	</g>
	<g>
		<g>
			<path style="fill:none;stroke:#404041;stroke-width:2;stroke-linejoin:round;stroke-miterlimit:10;" d="M17.837,49.507"/>
		</g>
	</g>
	<path style="fill:#404041;" d="M63.17,62.898H37.794v-1.66H62.34v-10.9H37.794v-1.66H63.17c0.459,0,0.83,0.371,0.83,0.83v12.561
		C64,62.527,63.629,62.898,63.17,62.898z M58.784,53.286h-1.66v5.399h1.66V53.286z M53.803,53.286h-1.66v5.399h1.66V53.286z
		 M48.821,53.286h-1.66v5.399h1.66V53.286z M43.84,53.286h-1.66v5.399h1.66V53.286z"/>
	<path style="fill:#F29E87;" d="M38.624,40.548H34.46l-1.38-19.832c-0.031-0.435-0.392-0.773-0.829-0.773h-5.848
		c-0.445,0-0.812,0.351-0.829,0.796l-0.817,19.809h-6.92c-0.459,0-0.83,0.372-0.83,0.83v20.787c0,0.459,0.371,0.83,0.83,0.83h20.787
		c0.459,0,0.83-0.371,0.83-0.83V41.378C39.454,40.92,39.083,40.548,38.624,40.548z M27.2,21.604h4.277l1.318,18.944h-6.376
		L27.2,21.604z M37.794,42.208v2.317H18.667v-2.317H37.794z M31.552,51.998v9.337H24.91v-9.337H31.552z M33.212,61.335v-9.337h1.768
		v-1.66H21.482v1.66h1.768v9.337h-4.582V46.186h19.126v15.149H33.212z"/>
	<rect x="29.108" y="56.149" style="fill:#F29E87;" width="1.417" height="1.66"/>
	<path style="fill:#F29E87;" d="M50.482,6.65c0,2.564-2.085,4.649-4.649,4.649H34.588c-3.48,0-6.31,2.831-6.31,6.312l1.66-0.002
		c0-2.564,2.086-4.649,4.65-4.649h11.245c3.479,0,6.31-2.83,6.31-6.31V5.463h-1.66V6.65z"/>
	<rect x="50.694" y="1.005" style="fill:#F29E87;" width="1.66" height="3.323"/>
</g>
<g id="Layer_1">
</g>
</svg>
