<?xml version="1.0" encoding="iso-8859-1"?>
<!-- Generator: Adobe Illustrator 23.0.4, SVG Export Plug-In . SVG Version: 6.00 Build 0)  -->
<svg version="1.1" xmlns="http://www.w3.org/2000/svg" xmlns:xlink="http://www.w3.org/1999/xlink" x="0px" y="0px"
	 viewBox="0 0 64 64" style="enable-background:new 0 0 64 64;" xml:space="preserve">
<g id="factory-02">
	<path style="fill:#F29E87;" d="M48.916,48.488h11.183v1.417H48.916V48.488z M48.916,52.032h11.183v-1.417H48.916V52.032z
		 M34.001,38.341v2.996c0,0.391-0.317,0.709-0.709,0.709h-5.646c-0.391,0-0.709-0.317-0.709-0.709v-2.996
		c0-0.391,0.317-0.709,0.709-0.709h5.646C33.683,37.632,34.001,37.95,34.001,38.341z M32.583,39.05h-4.228v1.578h4.228V39.05z
		 M29.772,47.715h1.417V44.72h-1.417V47.715z M36.859,47.715h1.417V44.72h-1.417V47.715z M27.646,47.715h1.417V44.72h-1.417V47.715z
		 M31.898,47.715h1.417V44.72h-1.417V47.715z M60.209,43.914v2.482c0,0.391-0.317,0.709-0.709,0.709h-3.341
		c-0.391,0-0.709-0.317-0.709-0.709v-2.482c0-0.391,0.317-0.709,0.709-0.709H59.5C59.891,43.205,60.209,43.522,60.209,43.914z
		 M58.791,44.622h-1.924v1.064h1.924V44.622z M38.985,47.715h1.417V44.72h-1.417V47.715z M62.731,40.693v13.823h-1.417V41.401
		H47.661v13.115h-1.417V33.988H23.199V32.57h15.609v-6.523c0-0.391,0.317-0.709,0.709-0.709h3.706c0.391,0,0.709,0.317,0.709,0.709
		v6.523h3.02c0.391,0,0.709,0.317,0.709,0.709v6.705h14.361C62.413,39.984,62.731,40.301,62.731,40.693z M42.515,26.756h-2.289
		v5.814h2.289V26.756z M48.915,46.395v-2.482c0-0.391,0.317-0.709,0.709-0.709h3.341c0.391,0,0.709,0.317,0.709,0.709v2.482
		c0,0.391-0.317,0.709-0.709,0.709h-3.341C49.232,47.104,48.915,46.787,48.915,46.395z M50.333,45.686h1.924v-1.064h-1.924V45.686z
		 M43.214,38.341v2.996c0,0.391-0.317,0.709-0.709,0.709h-5.646c-0.391,0-0.709-0.317-0.709-0.709v-2.996
		c0-0.391,0.317-0.709,0.709-0.709h5.646C42.897,37.632,43.214,37.95,43.214,38.341z M41.796,39.05h-4.228v1.578h4.228V39.05z
		 M41.112,47.715h1.417V44.72h-1.417V47.715z"/>
	<path style="fill:#404041;" d="M30.419,54.03c-0.072-0.077-7.248-7.913-7.248-27.161c0-0.391-0.317-0.709-0.709-0.709H11.477
		c-0.391,0-0.709,0.317-0.709,0.709c0,19.182-7.177,27.084-7.248,27.161l1.976-0.223c2.019-2.847,6.55-10.926,6.687-26.229h9.574
		c0.136,15.304,4.668,23.383,6.687,26.229L30.419,54.03z M35.651,13.623c0,2.727-2.248,4.944-4.999,4.852
		c-0.509,2.804-2.966,4.907-5.886,4.907c-0.407,0-0.81-0.042-1.206-0.124c-0.201,0.959-0.618,1.856-1.228,2.632l-1.114-0.876
		c0.613-0.779,0.975-1.716,1.048-2.711c0.016-0.222,0.136-0.423,0.323-0.544c0.187-0.121,0.42-0.147,0.628-0.07
		c0.498,0.183,1.019,0.275,1.549,0.275c2.42,0,4.422-1.892,4.558-4.306c0.011-0.201,0.108-0.389,0.266-0.514
		c0.158-0.126,0.362-0.176,0.561-0.145c0.243,0.041,0.45,0.061,0.653,0.061c1.891,0,3.43-1.542,3.43-3.437
		c0-1.892-1.539-3.43-3.43-3.43c-1.389,0-2.626,0.844-3.158,2.095c0.833,0.945,0.937,2.043,0.941,2.098l-1.413,0.113
		c-0.003-0.034-0.078-0.734-0.623-1.318c-0.006-0.002-0.013-0.001-0.019-0.004c-0.551-0.231-1.145-0.348-1.767-0.348
		c-2.137,0-3.971,1.512-4.431,3.562c1.211,1.14,1.351,2.624,1.356,2.692l-1.413,0.112c-0.004-0.048-0.122-1.172-1.094-1.935
		c-0.63-0.262-1.288-0.399-1.959-0.399c-2.79,0-5.06,2.27-5.06,5.06c0,1.125,0.366,2.196,1.058,3.098l-1.124,0.863
		c-0.884-1.151-1.351-2.521-1.351-3.961c0-3.572,2.906-6.478,6.477-6.478c0.613,0,1.217,0.087,1.805,0.257
		c0.735-2.497,3.066-4.29,5.735-4.29c0.555,0,1.096,0.072,1.614,0.216c0.775-1.711,2.501-2.853,4.424-2.853
		C33.477,8.775,35.651,10.95,35.651,13.623z M13.99,21.831h-0.709c0-2.243,1.825-4.069,4.069-4.069v0.709
		C15.497,18.471,13.99,19.978,13.99,21.831z M22.134,16.381l-0.698-0.126c0.168-0.928,0.687-1.736,1.462-2.275
		c0.776-0.538,1.715-0.742,2.644-0.575l-0.126,0.698c-0.743-0.135-1.494,0.029-2.114,0.46
		C22.683,14.993,22.268,15.639,22.134,16.381z"/>
	<rect y="53.807" style="fill:#80C0C9;" width="64" height="1.417"/>
</g>
<g id="Layer_1">
</g>
</svg>
