<?xml version="1.0" encoding="iso-8859-1"?>
<!-- Generator: Adobe Illustrator 23.0.4, SVG Export Plug-In . SVG Version: 6.00 Build 0)  -->
<svg version="1.1" xmlns="http://www.w3.org/2000/svg" xmlns:xlink="http://www.w3.org/1999/xlink" x="0px" y="0px"
	 viewBox="0 0 64 64" style="enable-background:new 0 0 64 64;" xml:space="preserve">
<g id="factory-10">
	<path style="fill:#404041;" d="M0,39.315l0.563,1.087l3.033-1.569v18.232h1.225V38.2l18.53-9.587l-0.563-1.087L0,39.315z
		 M20.047,47.41v9.656c0,0.339-0.274,0.612-0.612,0.612H7.922c-0.338,0-0.612-0.274-0.612-0.612V47.41
		c0-0.339,0.274-0.612,0.612-0.612h11.513C19.773,46.797,20.047,47.071,20.047,47.41z M13.066,48.022H8.534v8.431h4.532V48.022z
		 M18.822,48.022h-4.531v8.431h4.531V48.022z M9.956,43.312c-0.338,0-0.612-0.274-0.612-0.612v-4.501
		c0-0.339,0.274-0.612,0.612-0.612H17.4c0.338,0,0.612,0.274,0.612,0.612v4.501c0,0.339-0.274,0.612-0.612,0.612H9.956z
		 M14.2,42.087h2.588v-3.276H14.2V42.087z M10.569,42.087h2.406v-3.276h-2.406V42.087z"/>
	<path style="fill:#F29E87;" d="M60.474,46.323c-0.542-3.547-2.966-6.522-6.404-7.748v-1.733h0.219c0.338,0,0.612-0.274,0.612-0.612
		v-1.54c0-0.339-0.274-0.612-0.612-0.612h-2.927V20.373c0-3.944-3.209-7.153-7.153-7.153s-7.153,3.209-7.153,7.153v2.176h-5.619
		v-5.117c0-0.339-0.274-0.612-0.612-0.612H25.45c-0.338,0-0.612,0.274-0.612,0.612v5.117h-1.689c-0.338,0-0.612,0.274-0.612,0.612
		v33.904h1.225V23.774h9.013v1.512v2.008v12.972v1.554v14.979h1.225v-0.88h3.058v1.147h1.225V20.373
		c0-3.269,2.659-5.928,5.928-5.928c3.269,0,5.928,2.659,5.928,5.928v13.704h-2.926c-0.338,0-0.612,0.274-0.612,0.612v1.54
		c0,0.339,0.274,0.612,0.612,0.612h0.218v1.733c-3.438,1.227-5.862,4.201-6.404,7.748c-0.57,0.15-0.993,0.665-0.993,1.281v0.17
		c0,0.609,0.414,1.119,0.974,1.275c0.601,4.854,4.73,8.628,9.743,8.628c5.013,0,9.143-3.774,9.743-8.628
		c0.56-0.157,0.974-0.666,0.974-1.275v-0.17C61.468,46.987,61.044,46.473,60.474,46.323z M30.213,22.549h-4.151v-4.505h4.151V22.549
		z M37.057,54.694h-3.058v-1.761h3.058V54.694z M37.057,51.708h-3.058v-1.761h3.058V51.708z M37.057,48.722h-3.058v-1.761h3.058
		V48.722z M37.057,45.736h-3.058v-1.761h3.058V45.736z M37.057,42.75h-3.058v-0.93v-0.88h3.058V42.75z M37.057,39.714h-3.058v-1.761
		h3.058V39.714z M37.057,36.728h-3.058v-1.761h3.058V36.728z M37.057,33.742h-3.058v-1.761h3.058V33.742z M37.057,30.756h-3.058
		v-1.761h3.058V30.756z M37.057,27.77h-3.058v-0.476v-0.88h3.058V27.77z M37.057,25.189h-3.058v-1.415h3.058V25.189z M47.824,35.302
		h5.853v0.315h-5.853V35.302z M48.221,39.602c0.257-0.079,0.433-0.316,0.433-0.586v-2.175h4.191v2.175
		c0,0.269,0.176,0.507,0.433,0.586c3.131,0.96,5.372,3.544,5.939,6.672H42.283C42.85,43.146,45.091,40.562,48.221,39.602z
		 M50.75,56.453c-4.319,0-7.89-3.199-8.505-7.349h17.011C58.64,53.254,55.068,56.453,50.75,56.453z M60.243,47.774
		c0,0.057-0.047,0.105-0.105,0.105H41.362c-0.058,0-0.105-0.047-0.105-0.105v-0.17c0-0.057,0.047-0.105,0.105-0.105h18.776
		c0.058,0,0.105,0.047,0.105,0.105V47.774z M26.658,9.493c0.067-1.786,1.814-3.116,1.889-3.171l0.367,0.49l0.368,0.489
		c-0.013,0.01-1.358,1.042-1.4,2.242c-0.02,0.565,0.258,1.091,0.848,1.607c1.137,0.992,1.751,2.057,1.824,3.163
		c0.089,1.34-0.674,2.226-0.707,2.263l-0.92-0.809c0.137-0.162,1.303-1.682-1.003-3.696C27.049,11.307,26.623,10.44,26.658,9.493z
		 M23.596,9.493c0.067-1.786,1.814-3.116,1.889-3.171l0.367,0.49l0.368,0.489c-0.013,0.01-1.358,1.042-1.4,2.242
		c-0.02,0.565,0.258,1.091,0.848,1.607c1.137,0.992,1.751,2.057,1.824,3.163c0.089,1.34-0.674,2.226-0.707,2.263l-0.92-0.809
		c0.137-0.162,1.303-1.682-1.003-3.696C23.987,11.307,23.56,10.44,23.596,9.493z"/>
	<rect x="0.281" y="56.453" style="fill:#80C0C9;" width="63.719" height="1.225"/>
	<path style="fill:#80C0C9;" d="M25.338,46.545h1.673v1.225h-1.06v1.656h-1.225v-2.268C24.726,46.819,25,46.545,25.338,46.545z
		 M24.726,51.697v2.267h1.225v-1.655h1.06v-1.225h-1.673C25,51.084,24.726,51.358,24.726,51.697z M29.265,38.079v2.268h1.225v-1.656
		h1.06v-1.225h-1.673C29.539,37.466,29.265,37.74,29.265,38.079z M29.265,42.618v2.267h1.225v-1.655h1.06v-1.225h-1.673
		C29.539,42.006,29.265,42.28,29.265,42.618z M29.265,33.54v2.267h1.225v-1.655h1.06v-1.225h-1.673
		C29.539,32.927,29.265,33.201,29.265,33.54z M24.726,42.618v2.267h1.225v-1.655h1.06v-1.225h-1.673
		C25,42.006,24.726,42.28,24.726,42.618z M29.265,51.697v2.267h1.225v-1.655h1.06v-1.225h-1.673
		C29.539,51.084,29.265,51.358,29.265,51.697z M29.265,47.157v2.268h1.225V47.77h1.06v-1.225h-1.673
		C29.539,46.545,29.265,46.819,29.265,47.157z M24.726,29v2.268h1.225v-1.656h1.06v-1.225h-1.673C25,28.387,24.726,28.661,24.726,29
		z M24.726,33.54v2.267h1.225v-1.655h1.06v-1.225h-1.673C25,32.927,24.726,33.201,24.726,33.54z M24.726,38.079v2.268h1.225v-1.656
		h1.06v-1.225h-1.673C25,37.466,24.726,37.74,24.726,38.079z M29.877,28.387c-0.338,0-0.612,0.274-0.612,0.612v2.268h1.225v-1.656
		h1.06v-1.225H29.877z"/>
</g>
<g id="Layer_1">
</g>
</svg>
