<?xml version="1.0" encoding="iso-8859-1"?>
<!-- Generator: Adobe Illustrator 23.0.4, SVG Export Plug-In . SVG Version: 6.00 Build 0)  -->
<svg version="1.1" xmlns="http://www.w3.org/2000/svg" xmlns:xlink="http://www.w3.org/1999/xlink" x="0px" y="0px"
	 viewBox="0 0 64 64" style="enable-background:new 0 0 64 64;" xml:space="preserve">
<g id="factory-11">
	<path style="fill:#80C0C9;" d="M61.91,63.56C61.784,63.829,61.514,64,61.217,64H51.005v-1.532h8.645
		c-4.232-5.784-5.754-12.693-6.259-17.845h-11.05v-1.532h10.925c-0.152-2.319-0.105-4.152-0.051-5.16H41.083v-1.532h12.952
		c0.215,0,0.421,0.091,0.566,0.251s0.217,0.373,0.196,0.588c-0.014,0.153-1.352,15.411,7.008,25.508
		C61.996,62.974,62.036,63.292,61.91,63.56z M44.711,32.899c-1.51-2.311-0.86-5.42,1.452-6.931c1.308-0.857,2.894-1.044,4.331-0.554
		c0.275-0.874,0.844-1.64,1.626-2.151c1.851-1.21,4.344-0.688,5.554,1.162c1.21,1.852,0.688,4.343-1.163,5.554
		c-0.782,0.511-1.709,0.726-2.623,0.627c-0.129,1.513-0.937,2.889-2.246,3.745c-0.824,0.539-1.767,0.818-2.73,0.818
		c-0.344,0-0.691-0.036-1.036-0.108C46.567,34.786,45.442,34.019,44.711,32.899z M45.993,32.061c0.508,0.776,1.288,1.31,2.196,1.5
		c0.906,0.189,1.836,0.015,2.614-0.493c1.118-0.732,1.709-2.013,1.542-3.345c-0.034-0.269,0.077-0.536,0.292-0.702
		c0.216-0.165,0.503-0.206,0.753-0.104c0.755,0.302,1.607,0.219,2.282-0.221c1.145-0.748,1.467-2.288,0.719-3.433
		c-0.75-1.144-2.29-1.468-3.434-0.719c-0.674,0.441-1.091,1.189-1.118,2.001c-0.008,0.272-0.159,0.518-0.397,0.648
		c-0.239,0.131-0.527,0.126-0.76-0.013c-0.557-0.332-1.174-0.497-1.789-0.497c-0.659,0-1.315,0.19-1.894,0.568
		c-0.776,0.508-1.31,1.288-1.5,2.196C45.311,30.356,45.485,31.284,45.993,32.061z"/>
	<path style="fill:#F29E87;" d="M22.916,32.568H10.778c0.057,1.185,0.118,3.531-0.053,6.537h10.933v1.532H10.621
		c-0.498,6.28-2.042,14.787-6.422,21.831h8.796V64H2.783c-0.284,0-0.545-0.158-0.678-0.409c-0.132-0.251-0.114-0.556,0.046-0.791
		C10.563,50.55,9.215,32.048,9.2,31.862c-0.016-0.213,0.056-0.423,0.201-0.58c0.145-0.157,0.349-0.246,0.563-0.246h12.952V32.568z
		 M7.014,19.064c0.586-0.897,1.486-1.512,2.536-1.732c1.047-0.221,2.121-0.017,3.017,0.569c0.782,0.512,1.352,1.276,1.627,2.151
		c1.44-0.487,3.024-0.301,4.331,0.555c2.311,1.51,2.962,4.62,1.452,6.931c-0.96,1.468-2.564,2.266-4.199,2.266
		c-0.94,0-1.889-0.263-2.732-0.815c-1.308-0.855-2.116-2.231-2.246-3.745c-0.911,0.1-1.84-0.116-2.623-0.627
		C6.326,23.406,5.804,20.915,7.014,19.064z M9.015,23.334c0.675,0.44,1.528,0.523,2.281,0.221c0.093-0.037,0.189-0.055,0.286-0.055
		c0.167,0,0.331,0.055,0.468,0.159c0.215,0.166,0.326,0.432,0.292,0.702c-0.167,1.332,0.424,2.614,1.542,3.345
		c0.777,0.508,1.706,0.683,2.614,0.493c0.909-0.19,1.689-0.723,2.197-1.5c0.508-0.777,0.682-1.706,0.492-2.614
		c-0.19-0.908-0.723-1.688-1.5-2.196c-1.119-0.732-2.53-0.757-3.682-0.071c-0.233,0.14-0.521,0.144-0.761,0.014
		c-0.238-0.13-0.389-0.376-0.397-0.648c-0.026-0.812-0.444-1.56-1.118-2.001c-0.555-0.364-1.219-0.485-1.865-0.352
		c-0.649,0.136-1.205,0.516-1.568,1.07C7.548,21.046,7.871,22.586,9.015,23.334z"/>
	<path style="fill:#404041;" d="M51.223,62.8c-11.638-16.949-9.771-42.515-9.751-42.771c0.016-0.213-0.056-0.423-0.201-0.58
		c-0.145-0.157-0.349-0.246-0.563-0.246H22.879c-0.214,0-0.417,0.089-0.563,0.246s-0.218,0.367-0.201,0.58
		c0.02,0.256,1.893,25.811-9.752,42.771c-0.161,0.235-0.179,0.539-0.046,0.791S12.711,64,12.995,64h37.596
		c0.284,0,0.545-0.158,0.678-0.409S51.383,63.035,51.223,62.8z M39.897,20.734c-0.058,1.216-0.131,3.709-0.011,6.998H23.701
		c0.12-3.289,0.047-5.782-0.011-6.998H39.897z M14.42,62.468c6.827-10.715,8.749-24.301,9.214-33.204h16.318
		c0.465,8.902,2.387,22.489,9.214,33.204H14.42z M33.109,17.512c-0.658,0-1.32-0.102-1.964-0.31
		c-1.628-0.523-2.954-1.648-3.736-3.169c-1.612-3.14-0.37-7.005,2.769-8.619c1.71-0.878,3.674-0.94,5.412-0.199
		c0.484-1.11,1.337-2.027,2.43-2.589c1.265-0.65,2.694-0.761,4.025-0.333c0.429-0.767,1.07-1.391,1.86-1.797
		c2.207-1.135,4.927-0.261,6.062,1.947c0.55,1.069,0.65,2.289,0.282,3.434c-0.368,1.145-1.159,2.078-2.229,2.628
		c-0.789,0.405-1.673,0.565-2.543,0.465c-0.426,1.331-1.35,2.428-2.615,3.079c-1.094,0.561-2.336,0.718-3.52,0.467
		c-0.41,1.843-1.603,3.405-3.314,4.284C35.108,17.274,34.112,17.512,33.109,17.512z M33.094,6.239c-0.757,0-1.516,0.179-2.217,0.539
		c-2.388,1.227-3.333,4.168-2.106,6.556c1.227,2.389,4.169,3.333,6.555,2.105c1.516-0.779,2.496-2.263,2.625-3.971
		c0.018-0.245,0.153-0.465,0.361-0.594c0.209-0.13,0.468-0.151,0.693-0.057c1.024,0.42,2.174,0.375,3.154-0.129
		c1.066-0.548,1.792-1.545,1.99-2.736c0.036-0.217,0.163-0.407,0.349-0.524c0.186-0.117,0.412-0.147,0.623-0.085
		c0.742,0.219,1.52,0.148,2.196-0.2c0.705-0.363,1.228-0.978,1.471-1.734c0.242-0.756,0.177-1.56-0.186-2.265
		c-0.748-1.456-2.542-2.034-3.999-1.284c-0.676,0.347-1.188,0.94-1.441,1.67c-0.072,0.207-0.23,0.374-0.432,0.457
		c-0.203,0.082-0.432,0.076-0.629-0.021c-1.083-0.533-2.317-0.524-3.382,0.024c-0.98,0.503-1.688,1.411-1.942,2.488
		c-0.057,0.239-0.224,0.436-0.45,0.531c-0.226,0.095-0.484,0.076-0.693-0.052C34.848,6.479,33.972,6.239,33.094,6.239z M29.644,13.1
		c-0.53-1.031-0.627-2.207-0.272-3.31c0.355-1.103,1.118-2.003,2.149-2.532l0.35,0.681c-0.849,0.437-1.478,1.177-1.77,2.086
		c-0.292,0.909-0.212,1.877,0.224,2.726L29.644,13.1z M39.567,5.577c0.516-0.265,1.114-0.269,1.639-0.011l0.338-0.688
		c-0.746-0.366-1.595-0.36-2.327,0.019c-0.675,0.346-1.162,0.97-1.336,1.711l0.745,0.175C38.749,6.261,39.092,5.822,39.567,5.577z"
		/>
</g>
<g id="Layer_1">
</g>
</svg>
