<?xml version="1.0" encoding="iso-8859-1"?>
<!-- Generator: Adobe Illustrator 23.0.4, SVG Export Plug-In . SVG Version: 6.00 Build 0)  -->
<svg version="1.1" xmlns="http://www.w3.org/2000/svg" xmlns:xlink="http://www.w3.org/1999/xlink" x="0px" y="0px"
	 viewBox="0 0 64 64" style="enable-background:new 0 0 64 64;" xml:space="preserve">
<g id="factory-06">
	<path style="fill:#404041;" d="M33.392,38.376h-9.933v-7.201h1.558v-3.564H0v3.564h1.364v20.403h32.028v-1.336H2.7V31.175h19.423
		v8.537h11.269V38.376z M1.336,28.947h22.346v0.892H1.336V28.947z M6.889,37.621v-2.502H4.468v-1.336h3.757v3.838H6.889z
		 M12.998,37.621v-2.502h-2.422v-1.336h3.757v3.838H12.998z M19.106,37.621v-2.502h-2.422v-1.336h3.757v3.838H19.106z M7.361,47.506
		v-3.181H4.279V42.99h4.419v4.517H7.361z M13.328,47.506v-3.181h-3.083V42.99h4.419v4.517H13.328z M19.295,47.506v-3.181h-3.083
		V42.99h4.419v4.517H19.295z M25.261,47.506v-3.181h-3.083V42.99h4.419v4.517H25.261z M55.65,17.123h-1.336v-1.049
		c0-1.277-1.039-2.315-2.315-2.315h-8.953c-1.277,0-2.315,1.039-2.315,2.315v1.049h-1.336v-1.049c0-2.013,1.638-3.651,3.651-3.651
		h8.953c2.013,0,3.651,1.638,3.651,3.651V17.123z"/>
	<path style="fill:#F29E87;" d="M47.407,41.335h-1.336v-5.299h1.336V41.335z M34.06,41.335v-5.299h-1.116
		c-0.075,0-0.148-0.009-0.22-0.022v5.343c0.072-0.013,0.145-0.022,0.22-0.022H34.06z M32.724,28.257V33.6
		c0.072-0.013,0.145-0.022,0.22-0.022h1.116v-5.299h-1.116C32.869,28.279,32.796,28.27,32.724,28.257z M62.323,33.6v-5.343
		c-0.072,0.013-0.145,0.022-0.22,0.022h-1.116v5.299h1.116C62.179,33.578,62.252,33.587,62.323,33.6z M47.641,33.578h1.336v-5.299
		h-1.336V33.578z M46.071,33.578h1.336v-5.299h-1.336V33.578z M46.071,43.792v6.45H34.06v-6.45h-1.116
		c-0.075,0-0.148-0.009-0.22-0.022v7.808h14.683v-7.785H46.071z M48.976,36.036h-1.336v5.299h1.336V36.036z M62.104,43.792h-1.116
		v6.45H48.976v-6.45h-1.336v7.785h14.683V43.77C62.252,43.783,62.179,43.792,62.104,43.792z M32.944,25.822h1.116v-2.025
		c0-3.312,2.694-6.006,6.006-6.006c3.311,0,6.005,2.694,6.005,6.006v2.025h1.336v-2.025c0-4.048-3.293-7.341-7.341-7.341
		s-7.341,3.293-7.341,7.341v2.047C32.796,25.831,32.869,25.822,32.944,25.822z M48.976,25.822v-2.025
		c0-3.312,2.694-6.006,6.006-6.006c3.312,0,6.006,2.694,6.006,6.006v2.025h1.116c0.075,0,0.148,0.009,0.22,0.022v-2.047
		c0-4.048-3.293-7.341-7.341-7.341s-7.341,3.293-7.341,7.341v2.025H48.976z M62.323,41.357v-5.343
		c-0.072,0.013-0.145,0.022-0.22,0.022h-1.116v5.299h1.116C62.179,41.335,62.252,41.344,62.323,41.357z"/>
	<path style="fill:#80C0C9;" d="M62.104,44.46h-29.16c-1.046,0-1.897-0.851-1.897-1.897s0.851-1.896,1.897-1.896h29.16
		c1.046,0,1.896,0.851,1.896,1.896S63.149,44.46,62.104,44.46z M32.944,42.003c-0.309,0-0.561,0.251-0.561,0.56
		s0.252,0.561,0.561,0.561h29.16c0.309,0,0.561-0.252,0.561-0.561s-0.251-0.56-0.561-0.56H32.944z M62.104,36.704h-29.16
		c-1.046,0-1.897-0.851-1.897-1.897s0.851-1.897,1.897-1.897h29.16c1.046,0,1.896,0.851,1.896,1.897S63.149,36.704,62.104,36.704z
		 M32.944,34.246c-0.309,0-0.561,0.252-0.561,0.561s0.252,0.561,0.561,0.561h29.16c0.309,0,0.561-0.252,0.561-0.561
		s-0.251-0.561-0.561-0.561H32.944z M62.104,28.947h-29.16c-1.046,0-1.897-0.851-1.897-1.897c0-1.046,0.851-1.897,1.897-1.897h29.16
		c1.046,0,1.896,0.851,1.896,1.897C64,28.096,63.149,28.947,62.104,28.947z M32.944,26.489c-0.309,0-0.561,0.252-0.561,0.561
		s0.252,0.561,0.561,0.561h29.16c0.309,0,0.561-0.252,0.561-0.561s-0.251-0.561-0.561-0.561H32.944z"/>
</g>
<g id="Layer_1">
</g>
</svg>
