<?xml version="1.0" encoding="iso-8859-1"?>
<!-- Generator: Adobe Illustrator 23.0.4, SVG Export Plug-In . SVG Version: 6.00 Build 0)  -->
<svg version="1.1" xmlns="http://www.w3.org/2000/svg" xmlns:xlink="http://www.w3.org/1999/xlink" x="0px" y="0px"
	 viewBox="0 0 64 64" style="enable-background:new 0 0 64 64;" xml:space="preserve">
<g id="factory-13">
	<path style="fill:#404041;" d="M17.784,38.398H12.28v-1.549h5.504V38.398z M17.784,40.721H12.28v1.549h5.504V40.721z M9.266,36.849
		H3.762v1.549h5.504V36.849z M37.35,30.156v19.857c0,0.428-0.346,0.774-0.774,0.774H21.773v-0.162
		c-0.129,0.095-0.279,0.162-0.451,0.162H0.774C0.346,50.787,0,50.441,0,50.013V28.027c0-0.247,0.118-0.479,0.318-0.625
		c0.2-0.147,0.459-0.188,0.693-0.112l12.245,3.924v-10.54c0-0.259,0.13-0.501,0.346-0.645c0.216-0.143,0.488-0.171,0.729-0.069
		l11.799,4.962V23.73h1.549v1.843l4.646,1.954v-0.7h1.549v1.351l3.004,1.263C37.163,29.563,37.35,29.844,37.35,30.156z
		 M27.678,27.254v5.245l4.646-2.988v-0.303L27.678,27.254z M27.678,41.016l3.902-2.509l-3.902-2.509V41.016z M32.324,37.144v-5.793
		l-4.503,2.897L32.324,37.144z M27.82,42.765l4.503,2.897v-5.793L27.82,42.765z M20.547,35.176L1.549,29.088v20.151h18.998V35.176z
		 M26.129,49.239v-5.692h-1.09v-1.549h1.09v-6.969h-1.09v-1.549h1.09v-6.878L14.804,21.84v9.87l6.753,2.164
		c0.321,0.103,0.538,0.401,0.538,0.737v14.628H26.129z M32.324,49.239v-1.736l-4.646-2.988v4.724H32.324z M35.801,30.67
		l-1.929-0.811v8.268h1.05v1.549h-1.05v6.195h1.05v1.549h-1.05v1.82h1.929V30.67z M17.486,30.894h5.665v-1.549h-5.665V30.894z
		 M9.266,40.721H3.762v1.549h5.504V40.721z M9.266,44.593H3.762v1.549h5.504V44.593z M17.784,44.593H12.28v1.549h5.504V44.593z"/>
	<path style="fill:#F29E87;" d="M63.349,17.071v-3.084c0-0.428-0.346-0.774-0.774-0.774H37.35c-0.428,0-0.774,0.346-0.774,0.774
		v3.06c-0.428,0-0.774,0.346-0.774,0.774v32.192c0,0.428,0.346,0.774,0.774,0.774h26.65c0.428,0,0.774-0.346,0.774-0.774V17.821
		C64,17.437,63.716,17.132,63.349,17.071z M56.869,18.595h5.582v27.546H37.35V18.595h12.763 M56.869,17.047v-2.285h1.549v2.285
		H56.869z M51.661,18.595h3.659 M55.321,17.047h-1.549v-2.285h1.549V17.047z M52.223,17.047h-1.549v-2.285h1.549V17.047z
		 M49.126,17.047h-1.549v-2.285h1.549V17.047z M46.029,17.047H44.48v-2.285h1.549V17.047z M42.931,17.047h-1.549v-2.285h1.549
		V17.047z M61.8,17.047h-1.834v-2.285H61.8V17.047z M38.124,14.761h1.71v2.285h-1.71V14.761z M37.35,49.239V47.69h25.101v1.549
		H37.35z"/>
	<path style="fill:#80C0C9;" d="M58.418,18.595v1.93h-3.659v-1.93H53.21v18.177h1.549v-0.945h3.659v0.945h1.549V18.595H58.418z
		 M58.418,34.278h-3.659v-1.89h3.659V34.278z M58.418,30.84h-3.659v-1.89h3.659V30.84z M58.418,27.402h-3.659v-1.89h3.659V27.402z
		 M58.418,23.963h-3.659v-1.89h3.659V23.963z"/>
</g>
<g id="Layer_1">
</g>
</svg>
