<?xml version="1.0" encoding="iso-8859-1"?>
<!-- Generator: Adobe Illustrator 23.0.4, SVG Export Plug-In . SVG Version: 6.00 Build 0)  -->
<svg version="1.1" xmlns="http://www.w3.org/2000/svg" xmlns:xlink="http://www.w3.org/1999/xlink" x="0px" y="0px"
	 viewBox="0 0 64 64" style="enable-background:new 0 0 64 64;" xml:space="preserve">
<g id="factory-01">
	<path style="fill:#F29E87;" d="M33.988,18.682V21.6h-1.409v2.884c-1.994,0.841-3.398,2.815-3.398,5.112v6.738h-1.854v1.479h24.99
		v9.004h1.479V36.334h-1.69v-6.738c0-2.296-1.403-4.27-3.398-5.111V21.6h-1.409v-1.439h9.124v26.334h1.479V18.682H33.988z
		 M34.058,23.079h1.339v1.017c-0.22-0.027-0.444-0.045-0.671-0.045c-0.226,0-0.448,0.018-0.667,0.044V23.079z M30.66,29.596
		c0-2.242,1.824-4.066,4.069-4.066c2.242,0,4.066,1.824,4.066,4.066v6.738H30.66V29.596z M50.627,29.596v6.738h-8.135v-6.738
		c0-2.242,1.824-4.066,4.069-4.066C48.803,25.53,50.627,27.354,50.627,29.596z M46.558,24.051c-0.226,0-0.448,0.018-0.667,0.044
		v-1.017h1.339v1.017C47.008,24.069,46.785,24.051,46.558,24.051z M45.82,21.6h-1.409v2.884c-1.994,0.841-3.398,2.815-3.398,5.112
		v6.738h-0.74v-6.738c0-2.296-1.403-4.27-3.398-5.111V21.6h-1.409v-1.439H45.82V21.6z M29.404,41.576h3.827v1.479h-3.827V41.576z
		 M35.32,41.576h3.827v1.479H35.32V41.576z M47.153,41.576h3.827v1.479h-3.827V41.576z M41.237,41.576h3.827v1.479h-3.827V41.576z"
		/>
	<path style="fill:#404041;" d="M3.261,21.492c1.671,0.747,4.489,1.117,6.959,1.287v17.446h1.479v-0.902h4.489v0.902h1.479v-17.35
		c2.759-0.118,6.575-0.459,8.638-1.383V46.03h1.479V20.005H27.77c0-0.037,0.015-0.059,0.015-0.096
		c0-2.884-10.827-3.025-13.001-3.025S1.782,17.025,1.782,19.909c0,0.037,0.007,0.059,0.007,0.096H1.782V46.03h1.479V21.492z
		 M16.188,37.843h-4.489v-1.804h4.489V37.843z M16.188,34.559h-4.489v-1.812h4.489V34.559z M16.188,31.268h-4.489v-1.804h4.489
		V31.268z M16.188,27.985h-4.489V26.18h4.489V27.985z M16.188,24.701h-4.489v-1.834c1.383,0.067,2.522,0.074,3.084,0.074
		c0.311,0,0.799-0.007,1.405-0.015V24.701z M14.783,18.363c6.767,0,10.612,0.961,11.426,1.546
		c-0.814,0.592-4.659,1.553-11.426,1.553c-6.767,0-10.612-0.961-11.426-1.553C4.171,19.325,8.016,18.363,14.783,18.363z"/>
	<rect y="45.637" style="fill:#80C0C9;" width="64" height="1.479"/>
</g>
<g id="Layer_1">
</g>
</svg>
