<?xml version="1.0" encoding="iso-8859-1"?>
<!-- Generator: Adobe Illustrator 23.0.4, SVG Export Plug-In . SVG Version: 6.00 Build 0)  -->
<svg version="1.1" xmlns="http://www.w3.org/2000/svg" xmlns:xlink="http://www.w3.org/1999/xlink" x="0px" y="0px"
	 viewBox="0 0 64 64" style="enable-background:new 0 0 64 64;" xml:space="preserve">
<g id="factory-04">
	<g>
		<rect x="4.871" y="28.521" style="fill:#404041;" width="0.669" height="20.333"/>
		<polygon style="fill:#404041;" points="15.077,34.936 11.679,34.936 11.679,35.604 15.077,35.604 15.077,37.611 11.679,37.611 
			11.679,38.279 15.077,38.279 15.077,40.285 11.679,40.285 11.679,40.954 15.077,40.954 15.077,42.96 11.679,42.96 11.679,43.629 
			15.077,43.629 15.077,45.635 11.679,45.635 11.679,46.304 15.077,46.304 15.077,48.855 16.415,48.855 16.415,32.162 
			15.077,32.162 		"/>
		<path style="fill:#404041;" d="M9.471,17.568c-3.828,0-6.941,3.114-6.941,6.941v24.346h1.337V27.014h9.225v-1.337H3.867v-1.168
			c0-3.09,2.514-5.604,5.606-5.604c3.09,0,5.604,2.514,5.604,5.604v5.602h1.337v-5.602C16.415,20.681,13.301,17.568,9.471,17.568z"
			/>
	</g>
	<path style="fill:#F29E87;" d="M55.253,17.487l-9.08-0.048v-2.495c0-0.369-0.299-0.669-0.669-0.669H25.703
		c-0.37,0-0.669,0.299-0.669,0.669v4.779h-1.929c-0.37,0-0.669,0.299-0.669,0.669v2.119c-2.813,1.21-4.736,3.895-4.985,6.931h-2.627
		c-0.37,0-0.669,0.299-0.669,0.669v2.052c0,0.369,0.299,0.669,0.669,0.669h14.652c-0.411,0.948-0.704,1.956-0.858,3.007
		c-0.692,0.195-1.204,0.826-1.204,1.58c0,0.745,0.5,1.369,1.18,1.572c0.693,5.921,5.715,10.538,11.819,10.538
		s11.126-4.616,11.819-10.538c0.68-0.203,1.18-0.827,1.18-1.572c0-0.754-0.512-1.384-1.204-1.58
		c-0.637-4.351-3.602-8.003-7.822-9.487v-2.248h0.345c0.37,0,0.669-0.299,0.669-0.669v-1.879c0-0.369-0.299-0.669-0.669-0.669
		h-3.649V18.75l13.497,0.071v30.034h1.337V18.155C55.919,17.787,55.622,17.489,55.253,17.487z M23.335,23.593
		c0.264-0.096,0.44-0.347,0.44-0.629v-1.904h3.857v1.904c0,0.281,0.176,0.532,0.44,0.629c2.276,0.828,3.919,2.785,4.409,5.09
		c-0.272,0.241-0.532,0.494-0.78,0.758H18.798C19.055,26.812,20.811,24.511,23.335,23.593z M15.495,31.494v-0.714h15.124
		c-0.162,0.232-0.315,0.47-0.459,0.714H15.495z M51.767,37.107c0.171,0,0.31,0.139,0.31,0.311s-0.139,0.311-0.31,0.311H29.064
		c-0.171,0-0.31-0.139-0.31-0.311s0.139-0.311,0.31-0.311H51.767z M40.416,48.19c-5.34,0-9.75-3.979-10.468-9.124h20.935
		C50.165,44.211,45.756,48.19,40.416,48.19z M43.524,27.474c3.88,1.19,6.646,4.409,7.315,8.296H29.992
		c0.178-1.035,0.505-2.023,0.962-2.938h0.062v-0.123c1.271-2.46,3.491-4.376,6.291-5.234c0.281-0.086,0.473-0.345,0.473-0.639
		v-2.732h5.272v2.732C43.052,27.128,43.244,27.387,43.524,27.474z M44.065,22.765h-7.299v-0.541h7.299V22.765z M40.419,17.409
		c-0.001,0-0.002,0-0.003,0c-0.177,0-0.346,0.07-0.472,0.195c-0.126,0.125-0.197,0.296-0.197,0.474v2.808h-3.649
		c-0.37,0-0.669,0.299-0.669,0.669v1.879c0,0.369,0.299,0.669,0.669,0.669h0.345v2.248c-1.017,0.358-1.957,0.847-2.814,1.436
		c-0.689-2.329-2.373-4.293-4.659-5.276v-2.119c0-0.369-0.299-0.669-0.669-0.669h-1.929v-4.11h18.464v1.819L40.419,17.409z
		 M24.939,34.107h-4.396c-0.37,0-0.669,0.299-0.669,0.669v4.395c0,0.369,0.299,0.669,0.669,0.669h4.396
		c0.37,0,0.669-0.299,0.669-0.669v-4.395C25.607,34.406,25.308,34.107,24.939,34.107z M22.407,38.502h-1.195v-1.195h1.195V38.502z
		 M22.407,36.639h-1.195v-1.194h1.195V36.639z M24.27,38.502h-1.194v-1.195h1.194V38.502z M24.27,36.639h-1.194v-1.194h1.194V36.639
		z M24.939,41.463h-4.396c-0.37,0-0.669,0.299-0.669,0.669v4.395c0,0.369,0.299,0.669,0.669,0.669h4.396
		c0.37,0,0.669-0.299,0.669-0.669v-4.395C25.607,41.762,25.308,41.463,24.939,41.463z M22.407,45.858h-1.195v-1.195h1.195V45.858z
		 M22.407,43.995h-1.195V42.8h1.195V43.995z M24.27,45.858h-1.194v-1.195h1.194V45.858z M24.27,43.995h-1.194V42.8h1.194V43.995z"/>
	<g>
		<g>
			<rect y="48.387" style="fill:#80C0C9;" width="64" height="1.337"/>
		</g>
	</g>
</g>
<g id="Layer_1">
</g>
</svg>
