<?xml version="1.0" encoding="iso-8859-1"?>
<!-- Generator: Adobe Illustrator 23.0.4, SVG Export Plug-In . SVG Version: 6.00 Build 0)  -->
<svg version="1.1" xmlns="http://www.w3.org/2000/svg" xmlns:xlink="http://www.w3.org/1999/xlink" x="0px" y="0px"
	 viewBox="0 0 64 64" style="enable-background:new 0 0 64 64;" xml:space="preserve">
<g id="helmet">
	<path style="fill:#404041;" d="M59.747,45.406h-1.794v-3.612c0-11.689-7.868-21.989-19.133-25.048l0.469-1.731
		c12.045,3.271,20.457,14.283,20.457,26.779V45.406z M6.047,41.794c0-11.689,7.868-21.989,19.134-25.048l-0.469-1.731
		C12.666,18.285,4.253,29.297,4.253,41.794v3.612h1.794V41.794z"/>
	<path style="fill:#80C0C9;" d="M38.155,45.026l-1.79-0.103l1.74-30.381H25.896l1.74,30.381l-1.79,0.103l-1.794-31.33
		c-0.014-0.246,0.074-0.487,0.243-0.667c0.169-0.18,0.405-0.281,0.652-0.281h14.107c0.247,0,0.483,0.102,0.652,0.281
		c0.17,0.18,0.258,0.421,0.243,0.667L38.155,45.026z"/>
	<path style="fill:#F29E87;" d="M60.412,51.252H3.588C1.609,51.252,0,49.643,0,47.665c0-1.979,1.609-3.588,3.588-3.588h56.825
		c1.979,0,3.588,1.609,3.588,3.588C64,49.643,62.391,51.252,60.412,51.252z M3.588,45.871c-0.989,0-1.794,0.805-1.794,1.794
		c0,0.989,0.805,1.794,1.794,1.794h56.825c0.989,0,1.794-0.805,1.794-1.794c0-0.989-0.805-1.794-1.794-1.794H3.588z"/>
</g>
<g id="Layer_1">
</g>
</svg>
